<svg width="64" height="64" viewBox="0 0 64 64" fill="none" xmlns="http://www.w3.org/2000/svg">
<g clip-path="url(#clip0)">
<path d="M32 14.8749C14.3272 14.8749 0 22.5425 0 32.0005C0 41.4585 14.3272 49.1249 32 49.1249C49.6728 49.1249 64 41.4586 64 32.0005C64 22.5424 49.6728 14.8749 32 14.8749ZM52.8032 40.7074C48.4546 43.0356 42.9174 44.5341 36.8689 45.0576C35.9224 45.1399 34.963 45.1979 33.9946 45.23C33.334 45.2545 32.6695 45.266 32 45.266C25.5536 45.266 19.4614 44.1945 14.456 42.2111C13.6718 41.9011 12.9132 41.568 12.1858 41.213C11.8496 41.0484 11.52 40.8799 11.1967 40.7075C6.5365 38.2134 3.86313 35.0401 3.86313 32.0006C3.86313 28.9611 6.5365 25.7865 11.1967 23.2925C15.3471 21.0724 20.5791 19.6048 26.3056 19.0208C27.238 18.9243 28.1831 18.8535 29.1386 18.8059C30.0825 18.7583 31.038 18.7339 32 18.7339C38.2776 18.7339 44.2192 19.7514 49.1486 21.6345C49.9096 21.9253 50.645 22.2365 51.3545 22.5684C51.8503 22.7999 52.3345 23.0418 52.8032 23.2925C57.4635 25.7866 60.1369 28.9611 60.1369 32.0006C60.1369 35.04 57.4635 38.2133 52.8032 40.7074Z" fill="#CCCCCC"/>
<path d="M32.001 14.8749C31.3522 14.8749 30.7086 14.8865 30.0693 14.9069C46.8425 15.4415 60.1377 22.8896 60.1377 32.0006C60.1377 41.1116 46.8425 48.5584 30.0693 49.093C30.7086 49.1133 31.3522 49.1249 32.001 49.1249C49.6737 49.1249 64.001 41.4586 64.001 32.0005C64.001 22.5424 49.6737 14.8749 32.001 14.8749Z" fill="#8C8C8C"/>
<path d="M51.3533 22.5682C47.3098 29.5604 39.9749 40.4798 36.8677 45.0577C35.9212 45.1399 34.9618 45.1979 33.9934 45.23C35.3726 41.2914 37.5269 32.7878 30.4162 32.7878C23.5024 32.7878 17.2016 39.0443 14.4548 42.2112C13.6706 41.9012 12.9121 41.568 12.1846 41.213C17.7682 30.5819 23.6608 22.4693 26.3044 19.0207C27.2368 18.9242 28.1819 18.8534 29.1374 18.8058C27.5432 22.855 26.1499 29.2453 33.2324 29.2453C40.2841 29.2453 46.1291 24.6044 49.1474 21.6343C49.9086 21.925 50.6438 22.2363 51.3533 22.5682Z" fill="#CCCCCC"/>
<path d="M49.1491 21.6344C48.6147 22.1601 47.9902 22.7386 47.2877 23.3341C43.7462 29.3564 38.1262 37.8265 34.7171 42.8865C34.487 43.7569 34.2299 44.5598 33.9951 45.23C34.9635 45.1979 35.9229 45.14 36.8694 45.0577C39.9766 40.4798 47.3115 29.5604 51.355 22.5681C50.6455 22.2363 49.9102 21.925 49.1491 21.6344Z" fill="#8C8C8C"/>
</g>
<defs>
<clipPath id="clip0">
<rect y="-0.00012207" width="64" height="64" fill="white"/>
</clipPath>
</defs>
</svg>
