<svg width="64" height="64" viewBox="0 0 64 64" fill="none" xmlns="http://www.w3.org/2000/svg">
<g clip-path="url(#clip0)">
<path d="M58.869 36.8556C58.0234 39.5576 56.4365 42.0624 54.2701 44.2311H20.0159C12.4863 44.2311 14.9536 38.5719 14.9536 38.5719C19.2049 29.5498 29.2254 16.3528 32.7816 11.7837C36.7896 11.8881 40.5893 12.6186 43.9951 13.8594C36.0368 22.8004 29.0399 31.6603 26.1786 35.3481C25.611 36.0786 26.1439 37.1223 27.059 37.1223L58.869 36.8556Z" fill="#CCCCCC"/>
<path d="M35.3966 12.4328C37.8266 12.9002 38.8407 15.8231 37.2233 17.6945C30.7016 25.2403 25.2194 32.1901 22.7694 35.3478C22.2018 36.0783 22.7347 37.1221 23.6498 37.1221L26.2886 37.1C26.4051 37.099 26.4556 36.9528 26.3644 36.8803C25.9237 36.5297 25.7773 35.862 26.1768 35.3478C29.0233 31.679 35.9632 22.891 43.8709 13.9968C43.9293 13.9311 43.9034 13.8265 43.8207 13.7968C40.4773 12.6003 36.7604 11.8936 32.8433 11.7851C32.8036 11.784 32.7658 11.8015 32.7414 11.8328C32.7408 11.8336 32.7403 11.8343 32.7397 11.8351C32.6806 11.9111 32.7272 12.0221 32.8228 12.0335C33.6947 12.1371 34.5533 12.2706 35.3966 12.4328Z" fill="#A6A6A6"/>
<path d="M55.4258 36.9689C54.5994 39.5411 53.101 41.9322 51.0701 44.0213C50.9937 44.1 51.048 44.2311 51.1577 44.2311H54.2187C54.2521 44.2311 54.2842 44.2177 54.3077 44.1941C56.4116 42.078 57.9646 39.6434 58.8174 37.0193C58.8436 36.9389 58.7822 36.8563 58.6977 36.8571L55.5418 36.8836C55.4886 36.8839 55.4421 36.9183 55.4258 36.9689Z" fill="#8C8C8C"/>
<path d="M32 10.1249C14.3272 10.1249 0 19.9185 0 31.9999C0 44.0813 14.3272 53.8749 32 53.8749C49.6728 53.8749 64 44.0813 64 31.9999C64 19.9185 49.6728 10.1249 32 10.1249ZM57.7494 36.4084C56.9471 38.9743 55.4393 41.3534 53.3828 43.4123C48.5756 48.2569 40.7887 51.4069 32 51.4069C17.4036 51.4069 5.55788 42.7186 5.55788 32.0038C5.55788 21.2799 17.4036 12.5916 32 12.5916C32.3296 12.5916 32.649 12.5916 32.9786 12.6019C36.7851 12.701 40.392 13.3945 43.6269 14.5733C52.404 17.7233 58.4421 24.3411 58.4421 32.0038C58.4421 33.5234 58.2001 34.9994 57.7494 36.4084Z" fill="#CCCCCC"/>
<path d="M30.4384 12.6262C30.2127 12.6161 29.9866 12.6077 29.7596 12.6018C29.43 12.5916 29.1106 12.5916 28.781 12.5916C14.1846 12.5916 2.33887 21.2798 2.33887 32.0037C2.33887 42.7186 14.1846 51.4068 28.781 51.4068C29.3265 51.4068 29.868 51.3946 30.4054 51.3706C16.551 50.7649 5.55812 42.3253 5.55812 32.0037C5.55812 21.6651 16.5684 13.2198 30.4384 12.6262Z" fill="#A6A6A6"/>
<path d="M32 10.1249C31.4601 10.1249 30.9236 10.1344 30.3904 10.1524C47.3153 10.7256 60.7806 20.2875 60.7806 31.9999C60.7806 43.7123 47.3153 53.2741 30.3904 53.8474C30.9236 53.8655 31.4603 53.8749 32 53.8749C49.6728 53.8749 64 44.0813 64 31.9999C64 19.9185 49.6728 10.1249 32 10.1249Z" fill="#8C8C8C"/>
</g>
<defs>
<clipPath id="clip0">
<rect y="-0.00012207" width="64" height="64" fill="white"/>
</clipPath>
</defs>
</svg>
