<svg width="64" height="64" viewBox="0 0 64 64" fill="none" xmlns="http://www.w3.org/2000/svg">
<g clip-path="url(#clip0)">
<path d="M52.1852 8.37158L48.3597 55.6232H41.417C41.417 55.6232 41.33 51.0473 39.2061 47.5837C38.8583 47.0065 38.411 46.5418 37.8646 46.2321C36.3245 45.3311 33.828 45.0423 32.0022 45.0423C30.1765 45.0423 27.68 45.331 26.1398 46.2321C25.5935 46.5418 25.1462 47.0066 24.7983 47.5837C22.6745 51.0473 22.5875 55.6232 22.5875 55.6232H15.6448L11.8193 8.37158H16.887C19.1225 21.339 20.849 28.1958 23.8546 33.8277C24.5005 35.0386 25.5812 35.8833 26.8107 36.1087C28.4872 36.4043 30.104 36.4502 32.0023 36.4502C33.9006 36.4502 35.5173 36.4043 37.194 36.1087C38.4236 35.8833 39.5042 35.0386 40.1501 33.8277C43.1557 28.1958 44.8821 21.339 47.1177 8.37158C47.1177 8.37158 52.1852 8.37158 52.1852 8.37158Z" fill="#CCCCCC"/>
<path d="M28.957 45.0422C27.1312 45.0422 24.6347 45.3309 23.0946 46.232C22.5482 46.5417 22.101 47.0065 21.7531 47.5836C19.6292 51.0472 19.5422 55.6231 19.5422 55.6231H22.5867C22.5867 55.6231 22.6737 51.0472 24.7976 47.5836C25.1454 47.0064 25.5927 46.5417 26.1391 46.232C27.2811 45.5639 28.9489 45.2329 30.4792 45.1062C29.9459 45.0621 29.4289 45.0422 28.957 45.0422Z" fill="#8C8C8C"/>
<path d="M23.7627 36.1087C25.4392 36.4043 27.056 36.4502 28.9544 36.4502C29.4815 36.4502 29.9855 36.4458 30.4766 36.4343C29.1995 36.4046 28.0182 36.3222 26.8072 36.1087C25.5776 35.8833 24.497 35.0386 23.8511 33.8277C20.8455 28.1958 19.1191 21.339 16.8835 8.37158H13.8389C16.0744 21.339 17.8009 28.1958 20.8065 33.8277C21.4524 35.0386 22.5331 35.8833 23.7627 36.1087Z" fill="#A6A6A6"/>
<path d="M49.1373 8.37158L45.3118 55.6232H48.3561L52.1818 8.37158H49.1373Z" fill="#8C8C8C"/>
<path d="M47.3944 3.75H16.8554C0.0332279 3.75 -0.198397 9.01763 0.0422277 15.4268L1.33373 49.779C1.55248 55.5962 5.95573 60.25 11.1709 60.25H52.8295C58.0445 60.25 62.4479 55.5962 62.6666 49.779L63.9581 15.4268C64.1986 9.01763 63.9671 3.75 47.3944 3.75ZM58.9939 15.2034L57.7024 49.5556C57.5944 52.454 55.4075 54.8129 52.8295 54.8129H11.1709C8.59285 54.8129 6.40598 52.4539 6.29798 49.5556L5.00635 15.2034C4.94073 13.4659 5.46435 11.871 6.47798 10.714C7.08898 10.018 8.1451 9.18838 9.70935 9.18838H54.2907C55.855 9.18838 56.9111 10.018 57.5221 10.714C58.5359 11.871 59.0595 13.4659 58.9939 15.2034Z" fill="#CCCCCC"/>
<path d="M9.70763 9.18835H6.79175C5.2275 9.18835 4.17138 10.018 3.56038 10.714C2.54675 11.871 2.02313 13.4659 2.08875 15.2034L3.38025 49.5556C3.48825 52.454 5.67513 54.8129 8.25313 54.8129H11.169C8.591 54.8129 6.40413 52.4539 6.29613 49.5556L5.0045 15.2034C4.93888 13.4659 5.4625 11.871 6.47613 10.714C7.08725 10.018 8.14338 9.18835 9.70763 9.18835Z" fill="#A6A6A6"/>
<path d="M47.3932 3.75H44.4773C61.0499 3.75 61.2815 9.01763 61.0409 15.4268L59.7494 49.779C59.5308 55.5962 55.1274 60.25 49.9124 60.25H52.8283C58.0433 60.25 62.4467 55.5962 62.6654 49.779L63.9569 15.4268C64.1974 9.01763 63.9659 3.75 47.3932 3.75Z" fill="#8C8C8C"/>
</g>
<defs>
<clipPath id="clip0">
<rect width="64" height="64" fill="white"/>
</clipPath>
</defs>
</svg>
