<svg width="64" height="64" viewBox="0 0 64 64" fill="none" xmlns="http://www.w3.org/2000/svg">
<g clip-path="url(#clip0)">
<path d="M32 4.25C16.673 4.25 4.25 16.6742 4.25 32C4.25 47.3258 16.673 59.75 32 59.75C47.3258 59.75 59.75 47.3258 59.75 32C59.75 16.6742 47.3258 4.25 32 4.25ZM32 54.5872C19.5448 54.5872 9.41275 44.4552 9.41275 32C9.41275 19.5448 19.5448 9.41275 32 9.41275C44.454 9.41275 54.5872 19.5448 54.5872 32C54.5872 44.4552 44.454 54.5872 32 54.5872Z" fill="#CCCCCC"/>
<path d="M32 4.25C16.673 4.25 4.25 16.6742 4.25 32C4.25 47.3258 16.673 59.75 32 59.75C47.3258 59.75 59.75 47.3258 59.75 32C59.75 16.6742 47.3258 4.25 32 4.25ZM32 54.5872C19.5448 54.5872 9.41275 44.4552 9.41275 32C9.41275 19.5448 19.5448 9.41275 32 9.41275C44.454 9.41275 54.5872 19.5448 54.5872 32C54.5872 44.4552 44.454 54.5872 32 54.5872Z" fill="#CCCCCC"/>
<path d="M31.9991 4.25C31.4574 4.25 30.9197 4.26725 30.3857 4.29787C44.9604 5.13362 56.5224 17.216 56.5224 32C56.5224 46.784 44.9604 58.8664 30.3857 59.7021C30.9197 59.7327 31.4574 59.75 31.9991 59.75C47.3249 59.75 59.7491 47.3258 59.7491 32C59.7491 16.6742 47.3249 4.25 31.9991 4.25Z" fill="#8C8C8C"/>
<path d="M63.9869 33.9425L63.2681 37.0325C63.2131 37.265 63.0043 37.43 62.7631 37.43H19.2785C19.0672 37.43 18.891 37.285 18.8435 37.0875C18.8347 37.0537 18.831 37.0187 18.831 36.9825C18.831 36.86 18.881 36.7475 18.9622 36.6675C18.9747 36.6537 18.9897 36.6412 19.0047 36.63L25.2421 31.3453C25.4179 31.1963 25.3157 30.9091 25.0854 30.9046L0.508727 30.43C0.148727 30.4237 -0.0950227 30.0637 0.0362273 29.7312L1.36248 26.3787C1.43998 26.1837 1.62873 26.055 1.83998 26.0525L37.3246 25.6675L44.0395 25.595C44.2345 25.595 44.3995 25.7187 44.4607 25.8912C44.4782 25.9375 44.487 25.9887 44.487 26.0412C44.487 26.1587 44.442 26.265 44.3682 26.3437L44.3245 26.3862C44.3232 26.3875 44.322 26.3887 44.3207 26.3887L38.0406 32.3663C37.8789 32.5202 37.9846 32.7928 38.2079 32.7973L63.4931 33.315C63.8206 33.3225 64.0606 33.6262 63.9869 33.9425Z" fill="#A6A6A6"/>
<path d="M44.4589 25.8912L43.6426 26.2487L19.6479 36.7362L18.8416 37.0875C18.8329 37.0537 18.8291 37.0187 18.8291 36.9825C18.8291 36.86 18.8791 36.7475 18.9604 36.6675C18.9729 36.6537 18.9879 36.6412 19.0029 36.63L25.2404 31.345C25.3279 31.2712 25.3466 31.1625 25.3141 31.0712L37.3227 25.6675L44.0376 25.595C44.2326 25.595 44.3976 25.7187 44.4589 25.8912Z" fill="#CCCCCC"/>
<path d="M44.487 26.0412C44.487 26.1587 44.442 26.265 44.3683 26.3437L44.3245 26.3862C44.3233 26.3875 44.322 26.3887 44.3208 26.3887L38.0408 32.3662C37.9608 32.4425 37.9458 32.5475 37.9783 32.635L30.3934 37.43H19.2785C19.0673 37.43 18.891 37.285 18.8435 37.0875L19.6498 36.7362L43.6445 26.2487L44.4608 25.8912C44.4783 25.9375 44.487 25.9887 44.487 26.0412Z" fill="#8C8C8C"/>
</g>
<defs>
<clipPath id="clip0">
<rect width="64" height="64" fill="white"/>
</clipPath>
</defs>
</svg>
