<svg width="64" height="64" viewBox="0 0 64 64" fill="none" xmlns="http://www.w3.org/2000/svg">
<g clip-path="url(#clip0)">
<path d="M32 10.6249C14.326 10.6249 0 20.1948 0 31.9999C0 43.805 14.326 53.3749 32 53.3749C49.6728 53.3749 64 43.805 64 31.9999C64 20.1948 49.6728 10.6249 32 10.6249ZM48.0617 18.9946C49.0044 19.6913 49.0018 21.0806 48.0566 21.776C46.7676 22.7224 44.496 23.8465 41.354 24.6655C41.2935 24.4466 41.2304 24.229 41.1634 24.0153C39.7481 19.4196 37.1264 16.0293 33.9959 15.0043C41.0566 15.3403 45.9216 17.4108 48.0617 18.9946ZM26.4989 30.1573C28.2656 30.3581 30.111 30.465 32 30.465C33.889 30.465 35.7331 30.3581 37.4999 30.1573C37.5385 30.7096 37.5591 31.2788 37.5591 31.8621C37.5591 39.3575 34.2124 44.3305 32 44.3305C29.7864 44.3305 26.4396 39.3576 26.4396 31.8621C26.4396 31.2788 26.4602 30.7096 26.4989 30.1573ZM36.6796 25.5308C35.2309 25.7008 33.6689 25.7973 32 25.7973C31.4514 25.7973 30.9145 25.787 30.3904 25.7664C30.3853 25.7664 30.3814 25.7664 30.3775 25.7651C29.3074 25.7253 28.2887 25.6441 27.3191 25.5308C28.4626 21.6961 30.4934 19.3925 32 19.3925C33.5054 19.3925 35.5361 21.6961 36.6796 25.5308ZM15.942 18.9791C17.5941 17.7661 20.8624 16.2596 25.506 15.4806C25.5845 15.4678 25.6656 15.4536 25.7467 15.4408C27.0602 15.2296 28.4806 15.0764 30.004 15.0043C26.7267 16.0769 24.0084 19.7403 22.6459 24.6643C19.4986 23.8428 17.2245 22.7135 15.9369 21.7606C14.9943 21.0626 14.9969 19.6733 15.942 18.9791ZM33.938 49.2724C33.8299 49.2788 33.7216 49.2826 33.6135 49.2865H33.6096C33.0765 49.3084 32.5395 49.3188 32 49.3188C17.2234 49.3188 4.74013 41.3881 4.74013 31.9999C4.74013 28.3751 6.59963 24.9693 9.73388 22.1533C10.8478 25.2643 15.508 27.9451 21.8076 29.3705C21.7355 30.1843 21.6995 31.0161 21.6995 31.8621C21.6995 41.3509 26.3109 49.0433 32 49.0433C37.6879 49.0433 42.2993 41.3509 42.2993 31.8621C42.2993 31.0161 42.2632 30.1843 42.1911 29.3705C48.4906 27.9451 53.151 25.2643 54.2649 22.1533C57.3979 24.9694 59.2586 28.3751 59.2586 31.9999C59.2586 40.9748 47.8506 48.617 33.938 49.2724ZM41.1635 24.0151C41.2215 24.234 41.2845 24.4516 41.3541 24.6654C41.2935 24.4465 41.2304 24.2289 41.1635 24.0151Z" fill="#CCCCCC"/>
<path d="M15.9359 21.7606C17.2237 22.7134 19.4978 23.8427 22.6449 24.6642C17.1902 24.4453 14.2713 22.8576 13.3484 21.9777C12.4255 21.0978 12.7467 19.6732 13.6918 18.9792C15.8345 17.4057 18.3813 16.4515 25.7458 15.4407C25.6647 15.4535 25.5835 15.4677 25.505 15.4805C20.8615 16.2595 17.5933 17.7662 15.941 18.979C14.9959 19.6733 14.9933 21.0627 15.9359 21.7606Z" fill="#8C8C8C"/>
<path d="M32.0011 10.6249C31.4612 10.6249 30.9247 10.6341 30.3914 10.6518C47.3162 11.2119 60.7817 20.5553 60.7817 31.9999C60.7817 43.4445 47.3162 52.7879 30.3914 53.348C30.9247 53.3656 31.4612 53.3749 32.0011 53.3749C49.6739 53.3749 64.0011 43.805 64.0011 31.9999C64.0011 20.1948 49.6739 10.6249 32.0011 10.6249Z" fill="#8C8C8C"/>
<path d="M42.1897 29.3705C42.2618 30.1842 42.2978 31.0161 42.2978 31.8621C42.2978 41.3509 37.6864 49.0432 31.9985 49.0432C31.4513 49.0432 30.913 48.9711 30.3889 48.8334C35.3119 47.5444 38.9626 43.0106 38.9626 34.4361C38.9626 34.4271 39.0784 31.8454 39.0784 31.8364C39.0772 30.4174 40.7898 29.6112 42.1897 29.3705Z" fill="#8C8C8C"/>
<path d="M41.3544 24.6654C41.2609 24.7014 41.1558 24.7309 41.042 24.7547C39.5725 25.0622 38.0847 24.2464 37.5189 22.8559C35.8905 18.8538 32.865 15.9408 30.0044 15.0042C31.4531 14.6488 32.6829 14.7917 33.9964 15.0042C37.1269 16.0292 39.7487 19.4196 41.1639 24.0152C41.2218 24.2341 41.2849 24.4517 41.3544 24.6654Z" fill="#8C8C8C"/>
</g>
<defs>
<clipPath id="clip0">
<rect y="-0.00012207" width="64" height="64" fill="white"/>
</clipPath>
</defs>
</svg>
