<svg width="124" height="124" viewBox="0 0 124 124" fill="none" xmlns="http://www.w3.org/2000/svg">
<path d="M20.6667 0V124H93L124 93V0H20.6667Z" fill="#EFEEEE"/>
<path d="M93 93V124L124 93H93Z" fill="#ABABAB"/>
<path d="M62 124H93V93L62 124Z" fill="#DEDEDD"/>
<path d="M0 31V67.1667H82.6667V31H0Z" fill="#E16344"/>
<path d="M21.5708 43.3639C21.4778 42.9299 21.3279 42.532 21.1213 42.1704C20.9146 41.8139 20.6511 41.509 20.3359 41.2714C20.0156 41.0337 19.6229 40.9149 19.1683 40.9149C18.0936 40.9149 17.3238 41.5142 16.8433 42.718C16.3679 43.9115 16.1303 45.9007 16.1303 48.6649C16.1303 49.9927 16.1716 51.1862 16.2543 52.2609C16.3369 53.3355 16.4868 54.25 16.7038 55.0044C16.9208 55.7587 17.2308 56.3374 17.6338 56.7404C18.0368 57.1434 18.5586 57.3449 19.1993 57.3449C19.4731 57.3449 19.7624 57.2674 20.0879 57.1279C20.4083 56.9832 20.7028 56.7662 20.9869 56.4769C21.2659 56.1824 21.4984 55.8207 21.6844 55.3764C21.8704 54.932 21.9583 54.405 21.9583 53.8057V51.5427H19.0184V48.2567H26.2363V60.1917H22.9503V58.1457H22.8934C22.3561 59.0189 21.7103 59.6285 20.9559 59.9902C20.2016 60.3519 19.2974 60.5327 18.2434 60.5327C16.8794 60.5327 15.7686 60.2899 14.9058 59.8145C14.0429 59.3392 13.3764 58.6107 12.8908 57.6135C12.4051 56.6164 12.0796 55.397 11.9194 53.94C11.7541 52.483 11.6663 50.7935 11.6663 48.8715C11.6663 47.0167 11.7851 45.3789 12.0228 43.9787C12.2604 42.5734 12.6686 41.4005 13.2473 40.455C13.8208 39.5147 14.5906 38.812 15.5361 38.3315C16.4919 37.8562 17.6751 37.6185 19.1011 37.6185C21.5398 37.6185 23.2964 38.223 24.3711 39.4372C25.4458 40.641 25.9831 42.3719 25.9831 44.6297H21.7103C21.7103 44.2215 21.6638 43.7979 21.5708 43.3639Z" fill="white"/>
<path d="M32.2363 38.0577H36.7003V60.1917H32.2363V38.0577Z" fill="white"/>
<path d="M56.8363 41.7157H52.0003V60.1917H47.5363V41.7157H42.7003V38.0577H56.8363V41.7157Z" fill="white"/>
</svg>
