<svg width="124" height="124" viewBox="0 0 124 124" fill="none" xmlns="http://www.w3.org/2000/svg">
<path d="M6.53906 0L17.2596 111.77L62.4229 124L106.948 111.77L117.668 0H6.53906Z" fill="#FD982C"/>
<path d="M62.4229 0V124L106.948 111.77L117.668 0H62.4229Z" fill="#FA502E"/>
<path d="M95.4635 38.5995L48.0288 38.5986L48.8226 47.2757H95.2384L91.4873 95.7596L62.3832 104.225L31.1448 94.5089V74.8473H50.55V80.7033L62.387 84.3607L73.6023 80.7004L74.4188 66.1834H31.4456L26.5943 19.9341H95.4635V38.5995Z" fill="white"/>
<path d="M62.4229 19.9341H95.4635V38.5995H62.4229V19.9341Z" fill="#DEECF1"/>
<path d="M74.4188 66.1834L73.6023 80.7005L62.4229 84.3494V104.213L91.4873 95.7596L95.2384 47.2758H62.4229V66.1834H74.4188Z" fill="#DEECF1"/>
</svg>
