<svg width="124" height="124" viewBox="0 0 124 124" fill="none" xmlns="http://www.w3.org/2000/svg">
<path d="M2.05884 121.941H121.941V2.05884H2.05884V121.941Z" fill="#FFE100"/>
<path d="M115.74 121.941H121.941V2.05884H115.74V121.941Z" fill="#FFA800"/>
<path d="M2.05884 121.941H8.25952V2.05884H2.05884V121.941Z" fill="white"/>
<path d="M121.941 124H2.05884C0.921765 124 0 123.078 0 121.941V2.05884C0 0.921765 0.921765 0 2.05884 0H121.941C123.078 0 124 0.921765 124 2.05884V121.941C124 123.078 123.078 124 121.941 124ZM4.11767 119.882H119.882V4.11767H4.11767V119.882Z" fill="black"/>
<path d="M95.071 113.665C84.8182 113.665 76.4766 105.324 76.4766 95.0709C76.4766 93.9339 77.3986 93.0121 78.5354 93.0121C79.6725 93.0121 80.5942 93.9339 80.5942 95.0709C80.5942 103.053 87.0885 109.548 95.071 109.548C103.053 109.548 109.548 103.053 109.548 95.0709C109.548 87.0884 103.053 80.5942 95.071 80.5942C84.8182 80.5942 76.4766 72.2527 76.4766 61.9997C76.4766 51.7467 84.818 43.4055 95.071 43.4055C105.324 43.4055 113.665 51.7469 113.665 62C113.665 63.137 112.744 64.0588 111.607 64.0588C110.469 64.0588 109.548 63.137 109.548 62C109.548 54.0175 103.053 47.5232 95.071 47.5232C87.0885 47.5232 80.5942 54.0175 80.5942 62C80.5942 69.9822 87.0885 76.4767 95.071 76.4767C105.324 76.4767 113.665 84.8182 113.665 95.0712C113.665 105.324 105.324 113.665 95.071 113.665Z" fill="black"/>
<path d="M51.6653 113.665C41.4126 113.665 33.0709 105.324 33.0709 95.0709C33.0709 93.9339 33.9927 93.0121 35.1298 93.0121C36.2668 93.0121 37.1886 93.9339 37.1886 95.0709C37.1886 103.053 43.6826 109.548 51.6653 109.548C59.6481 109.548 66.1421 103.053 66.1421 95.0709V45.4644C66.1421 44.3273 67.0639 43.4055 68.2009 43.4055C69.338 43.4055 70.2598 44.3273 70.2598 45.4644V95.0707C70.2593 105.324 61.9181 113.665 51.6653 113.665Z" fill="black"/>
</svg>
