<svg width="32" height="33" viewBox="0 0 32 33" fill="none" xmlns="http://www.w3.org/2000/svg">
<path fill-rule="evenodd" clip-rule="evenodd" d="M24.2803 23.6582V18.0644C24.2803 15.0674 22.6803 13.6728 20.5473 13.6728C18.826 13.6728 18.0546 14.6199 17.6248 15.2843V13.9021H14.3818C14.4248 14.8176 14.3818 23.6582 14.3818 23.6582H17.6248V18.2096C17.6248 17.9188 17.6458 17.6274 17.7318 17.4192C17.9658 16.8365 18.4993 16.2333 19.3948 16.2333C20.5688 16.2333 21.0378 17.1279 21.0378 18.4389V23.6587H24.2803V23.6582ZM10.9654 12.5705C12.096 12.5705 12.8004 11.8206 12.8004 10.884C12.7794 9.92737 12.096 9.19902 10.9869 9.19902C9.87792 9.19902 9.15243 9.9269 9.15243 10.884C9.15243 11.8206 9.85643 12.5705 10.9449 12.5705H10.9654ZM16.2388 31.2346C8.32568 31.2346 1.9104 24.8193 1.9104 16.9062C1.9104 8.99269 8.32568 2.57788 16.2388 2.57788C24.1518 2.57788 30.5671 8.99269 30.5671 16.9062C30.5671 24.8193 24.1518 31.2346 16.2388 31.2346ZM12.5869 23.6582V13.9021H9.34443V23.6582H12.5869Z" fill="#EDEDED"/>
</svg>
