<svg width="32" height="32" viewBox="0 0 32 32" fill="none" xmlns="http://www.w3.org/2000/svg">
<path d="M14.7081 27.0167L14.7081 27.0167L14.7141 27.0165C15.0967 27.0016 15.4725 26.9109 15.8198 26.7496C16.1644 26.5895 16.474 26.363 16.7309 26.0831L24.9926 17.8316L24.9931 17.8311C25.2209 17.6027 25.3996 17.33 25.5181 17.03C25.6366 16.73 25.6924 16.4089 25.6821 16.0865L25.6819 16.082L25.3594 8.90659L25.3595 8.90658L25.3591 8.90071C25.3195 8.25993 25.0436 7.6566 24.5848 7.20718C24.1261 6.75778 23.5169 6.49414 22.8751 6.46705L22.8751 6.46698L22.8678 6.46682L15.8847 6.31825C15.5686 6.30674 15.2536 6.36139 14.9598 6.47874C14.6659 6.59616 14.3999 6.77374 14.1788 7.00007L5.91804 15.2506C5.35381 15.7723 5.01809 16.4954 4.98407 17.263L4.98401 17.263L4.98384 17.2698C4.97751 17.5255 5.02264 17.7798 5.11653 18.0178C5.21043 18.2557 5.35118 18.4723 5.53042 18.6549L5.5304 18.6549L5.53348 18.658L13.3378 26.4114L13.339 26.4126C13.5204 26.591 13.7358 26.7313 13.9724 26.8251C13.9921 26.8329 14.014 26.842 14.0378 26.8519C14.1993 26.9189 14.4486 27.0223 14.7081 27.0167ZM7.07694 16.4116L7.07709 16.4117L7.0857 16.4031L15.3497 8.14928C15.4629 8.04263 15.6096 7.97914 15.764 7.96906L15.781 7.97473L15.8339 7.97586L22.7923 8.12443C23.0099 8.13269 23.2171 8.21958 23.3753 8.36887C23.5322 8.51693 23.6303 8.71633 23.6519 8.93048L23.974 16.0804L23.974 16.081C23.9784 16.1747 23.964 16.2684 23.9318 16.3566C23.9002 16.4428 23.852 16.5222 23.7901 16.5901L15.5279 24.842L15.5278 24.8419L15.5193 24.8509C15.2998 25.0863 15.0007 25.2321 14.6799 25.2603C14.617 25.2616 14.5557 25.241 14.5065 25.2022L6.72511 17.4303C6.68612 17.3811 6.66557 17.3198 6.66705 17.2571C6.69348 16.9343 6.83955 16.6327 7.07694 16.4116Z" fill="#1B1B1B" stroke="#1B1B1B" stroke-width="0.7"/>
<path d="M21.0002 13C20.6047 13 20.218 12.8827 19.8891 12.6629C19.5602 12.4432 19.3039 12.1308 19.1525 11.7654C19.0011 11.3999 18.9615 10.9978 19.0387 10.6098C19.1158 10.2219 19.3063 9.86549 19.586 9.58579C19.8657 9.30608 20.2221 9.1156 20.6101 9.03843C20.998 8.96126 21.4002 9.00087 21.7656 9.15224C22.1311 9.30362 22.4434 9.55996 22.6632 9.88886C22.8829 10.2178 23.0002 10.6044 23.0002 11C23.0002 11.5304 22.7895 12.0391 22.4145 12.4142C22.0394 12.7893 21.5307 13 21.0002 13ZM21.0002 10.5C20.9014 10.5 20.8047 10.5293 20.7225 10.5843C20.6402 10.6392 20.5761 10.7173 20.5383 10.8087C20.5005 10.9 20.4906 11.0006 20.5099 11.0975C20.5291 11.1945 20.5768 11.2836 20.6467 11.3536C20.7166 11.4235 20.8057 11.4711 20.9027 11.4904C20.9997 11.5097 21.1002 11.4998 21.1916 11.4619C21.2829 11.4241 21.361 11.36 21.416 11.2778C21.4709 11.1956 21.5002 11.0989 21.5002 11C21.5002 10.8674 21.4476 10.7402 21.3538 10.6464C21.26 10.5527 21.1329 10.5 21.0002 10.5Z" fill="#1B1B1B"/>
<path d="M21.7326 8.94922L21.4847 9.19685L21.7326 9.44448L22.5498 10.2608L22.7972 10.5078L23.0445 10.2608L27.9089 5.40192C27.9951 5.31584 28.0635 5.21362 28.1101 5.1011C28.1568 4.98858 28.1808 4.86797 28.1808 4.74615C28.1808 4.62433 28.1568 4.50371 28.1101 4.39119C28.0635 4.27867 27.9951 4.17646 27.9089 4.09038C27.8227 4.0043 27.7205 3.93603 27.6079 3.88947C27.4954 3.84291 27.3748 3.81895 27.253 3.81895C27.1312 3.81895 27.0106 3.84291 26.898 3.88947C26.7855 3.93603 26.6832 4.0043 26.597 4.09038L21.7326 8.94922Z" fill="#1B1B1B" stroke="#1B1B1B" stroke-width="0.7"/>
</svg>
