<svg width="32" height="33" viewBox="0 0 32 33" fill="none" xmlns="http://www.w3.org/2000/svg">
<path fill-rule="evenodd" clip-rule="evenodd" d="M15.7435 17.3848C16.512 16.6168 16.5717 15.5484 16.5717 14.948C16.5717 12.5356 15.1436 8.79878 12.3706 8.79878C11.5061 8.79878 10.57 9.2334 10.0303 9.90206C9.46622 10.6032 9.2981 11.5035 9.2981 12.3675C9.2981 14.6123 10.5943 18.3209 13.4753 18.3209C14.3035 18.3209 15.2038 17.9126 15.7435 17.3848ZM1.9104 16.9062C1.9104 20.443 3.19183 23.6807 5.3153 26.1791C5.71601 25.5056 6.33739 24.8432 7.25727 24.2987C9.33392 23.0264 12.1308 22.8578 13.6429 22.7618C13.1749 22.1614 12.6347 21.5252 12.6347 20.4816C12.6347 19.9171 12.8028 19.5813 12.9709 19.1849C12.5989 19.2212 12.2388 19.257 11.9025 19.257C8.3615 19.257 6.35697 16.6163 6.35697 14.0114C6.35697 12.475 7.06527 10.768 8.49333 9.53287C10.4019 7.96439 12.6705 7.69645 14.4711 7.69645H21.3492L19.2124 8.89812H17.1481C17.9157 9.53287 19.5128 10.8692 19.5128 13.4111C19.5128 15.8841 18.1081 17.0481 16.7159 18.1519C16.2717 18.5846 15.7798 19.0526 15.7798 19.7843C15.7798 20.5165 16.2717 20.9253 16.6442 21.2253L17.8445 22.1614C19.3213 23.386 20.6533 24.5261 20.6533 26.831C20.6533 28.3508 19.9445 29.8763 18.5619 31.0464C17.8182 31.1682 17.056 31.2317 16.2784 31.2341C17.6816 30.6185 18.409 29.4927 18.409 28.1392C18.409 26.4351 17.3167 25.5348 14.772 23.7222C14.5079 23.6979 14.3398 23.6979 14.004 23.6979C13.7041 23.6979 11.9035 23.7585 10.4993 24.2261C9.76712 24.4902 7.63076 25.2945 7.63076 27.6711C7.63076 27.9295 7.65846 28.1798 7.71195 28.4205C4.191 25.8113 1.9104 21.625 1.9104 16.9062ZM29.4829 11.429C29.6931 11.9367 29.8751 12.4601 30.0269 12.996C29.8755 12.4601 29.6936 11.9372 29.4829 11.429ZM16.2388 31.2346C8.32568 31.2346 1.9104 24.8193 1.9104 16.9062C1.9104 8.99269 8.32568 2.57788 16.2388 2.57788C22.2122 2.57788 27.3323 6.23304 29.4829 11.429H26.6335V7.69693H25.034V11.429H21.3019V12.996H25.034V16.7606H26.6335V12.996H30.0265C30.3785 14.2388 30.5671 15.5508 30.5671 16.9062C30.5671 24.8193 24.1518 31.2346 16.2388 31.2346Z" fill="#EDEDED"/>
</svg>
