<svg width="32" height="33" viewBox="0 0 32 33" fill="none" xmlns="http://www.w3.org/2000/svg">
<path fill-rule="evenodd" clip-rule="evenodd" d="M18.229 11.3101C16.9781 11.7652 16.1877 12.9392 16.2774 14.224L16.3075 14.7197L15.807 14.6591C13.9859 14.4265 12.3945 13.6375 11.0433 12.3116L10.3828 11.6539L10.2127 12.1397C9.85261 13.2224 10.0828 14.3658 10.8331 15.1348C11.2334 15.5599 11.1431 15.6205 10.453 15.3674C10.2127 15.2867 10.0026 15.226 9.98252 15.2561C9.91279 15.3273 10.1525 16.2476 10.3426 16.612C10.6029 17.1183 11.1331 17.6136 11.7139 17.9073L12.2044 18.1399L11.6241 18.1499C11.0638 18.1499 11.0438 18.16 11.104 18.373C11.3041 19.0307 12.0945 19.7289 12.9752 20.0327L13.5957 20.2447L13.0555 20.5686C12.255 21.0347 11.3141 21.2974 10.3732 21.317C9.92234 21.327 9.55219 21.3676 9.55219 21.3982C9.55219 21.499 10.7734 22.0654 11.4837 22.2884C13.6152 22.9461 16.1475 22.6624 18.0489 21.5396C19.4001 20.74 20.7508 19.1515 21.3817 17.6131C21.7222 16.794 22.0623 15.2962 22.0623 14.5784C22.0623 14.1127 22.0924 14.052 22.6526 13.4956C22.9831 13.1718 23.2931 12.8179 23.3533 12.7166C23.4536 12.5241 23.4431 12.5241 22.933 12.6961C22.0823 12.9999 21.962 12.9593 22.3828 12.5041C22.6927 12.1803 23.0634 11.5933 23.0634 11.4213C23.0634 11.3913 22.9134 11.4414 22.7429 11.5326C22.5628 11.6339 22.1626 11.7858 21.8622 11.8765L21.322 12.0489L20.8315 11.7146C20.5611 11.5326 20.1814 11.3301 19.9808 11.2695C19.4703 11.1281 18.6894 11.1481 18.229 11.3101ZM16.2388 31.2346C8.32568 31.2346 1.9104 24.8193 1.9104 16.9062C1.9104 8.99269 8.32568 2.57788 16.2388 2.57788C24.1518 2.57788 30.5671 8.99269 30.5671 16.9062C30.5671 24.8193 24.1518 31.2346 16.2388 31.2346Z" fill="#EDEDED"/>
</svg>
