<svg width="164" height="54" viewBox="0 0 164 54" fill="none" xmlns="http://www.w3.org/2000/svg">
<g clip-path="url(#clip0)">
<path fill-rule="evenodd" clip-rule="evenodd" d="M66.9874 15.3403C68.1812 16.6003 67.4662 18.4556 66.2251 19.4353C67.2205 14.8773 55.0238 13.4283 55.9656 27.7859C54.1733 23.6562 54.9167 19.1644 58.1454 15.8884C56.8801 16.7846 55.7502 17.8582 54.7907 19.0762L53.4425 16.0648C54.5481 14.6095 56.1483 13.6267 58.1107 12.9936C56.0444 13.1574 54.3308 14.1276 52.8849 15.7309L48.938 13.7527C50.85 12.1998 53.2125 11.2327 55.8428 10.6027C52.9794 10.735 50.2358 11.7304 47.5615 13.2456L45.9424 12.4738C54.5639 8.33161 61.519 7.11887 65.3746 11.4186C66.5653 12.9369 67.7528 13.5165 66.9874 15.3246V15.3403Z" fill="#FF8000"/>
<path fill-rule="evenodd" clip-rule="evenodd" d="M62.4165 12.5559C63.4654 12.4299 64.3695 13.167 65.1633 14.5687C63.5473 14.9467 63.6418 13.0662 62.4165 12.5559Z" fill="white"/>
<path fill-rule="evenodd" clip-rule="evenodd" d="M49.3821 13.4221C51.2123 12.0676 53.4141 11.1951 55.8427 10.6187C53.2723 10.7352 50.8027 11.5636 48.3867 12.8236L49.3821 13.4347V13.4221Z" fill="#FFA300"/>
<path fill-rule="evenodd" clip-rule="evenodd" d="M53.5311 15.9639C54.6336 14.5716 56.1991 13.6235 58.1111 13.0061C56.0951 13.1636 54.4099 14.096 52.9893 15.6332L53.5311 15.9639Z" fill="#FFA300"/>
<path fill-rule="evenodd" clip-rule="evenodd" d="M56.5984 17.8446C57.0415 17.1394 57.5601 16.4845 58.145 15.8916C57.4381 16.4017 56.7686 16.9617 56.1416 17.5674L56.5984 17.8446Z" fill="#FFA300"/>
<path fill-rule="evenodd" clip-rule="evenodd" d="M52.3998 15.271L50.1665 27.6094L57.0366 18.1154L52.3998 15.271Z" fill="#FF8000"/>
<path fill-rule="evenodd" clip-rule="evenodd" d="M41.2801 23.231L21.8857 43.501L27.4738 42.4237L30.4663 38.2658L31.4459 36.9018L41.2707 23.2467L39.9981 30.5735L50.1662 27.6094L41.2801 23.231Z" fill="#FF8000"/>
<path fill-rule="evenodd" clip-rule="evenodd" d="M43.5703 0.875732L46.7329 10.3036L52.5729 8.44197L43.5703 0.875732Z" fill="#FF8000"/>
<path fill-rule="evenodd" clip-rule="evenodd" d="M43.5703 0.875732L38.1807 5.2542L46.7328 10.3036L43.5703 0.875732Z" fill="#FFA300"/>
<path fill-rule="evenodd" clip-rule="evenodd" d="M43.5703 0.875732L24.5791 7.07173L38.1807 5.25419L43.5703 0.875732Z" fill="#FF8000"/>
<path fill-rule="evenodd" clip-rule="evenodd" d="M43.5704 0.875693L13.4692 0L24.5792 7.07169L43.5704 0.875693Z" fill="#FFA300"/>
<path fill-rule="evenodd" clip-rule="evenodd" d="M37.7776 6.80078L0 13.8063L36.5586 12.2534L46.7677 11.8187L37.7776 6.80078Z" fill="#FFA300"/>
<path fill-rule="evenodd" clip-rule="evenodd" d="M36.5586 12.2534L0 13.8064L9.15697 19.4606L22.894 17.306L36.5586 12.2534Z" fill="#FF8000"/>
<path fill-rule="evenodd" clip-rule="evenodd" d="M36.5589 12.2533L22.8944 17.3059L12.4585 21.5489L24.5796 23.9744L34.1429 20.3361L46.768 11.8186L36.5589 12.2533Z" fill="#FF8000"/>
<path fill-rule="evenodd" clip-rule="evenodd" d="M52.4002 15.271L41.2808 23.231L50.1668 27.6094L52.4002 15.271Z" fill="#FFA300"/>
<path fill-rule="evenodd" clip-rule="evenodd" d="M46.7674 11.8186L34.1423 20.3361L27.877 24.6453L40.8738 23.231L32.3909 26.466L21.8857 43.501L41.2801 23.231L46.7674 11.8186Z" fill="#FFA300"/>
<path fill-rule="evenodd" clip-rule="evenodd" d="M41.2706 23.2468L31.4458 36.902L29.4204 42.049L32.794 41.3466L35.6227 37.217L39.998 30.5737L41.2706 23.2468Z" fill="#FFA300"/>
<path fill-rule="evenodd" clip-rule="evenodd" d="M39.9985 30.5735L35.6232 37.2168L36.1618 36.4324L34.5459 40.9432L38.6535 39.9982L39.9985 30.5735Z" fill="#FF8000"/>
<path fill-rule="evenodd" clip-rule="evenodd" d="M46.768 11.8186L41.2808 23.231L52.4002 15.271L46.768 11.8186Z" fill="#FF8000"/>
<path fill-rule="evenodd" clip-rule="evenodd" d="M54.4409 42.9247H65.932L68.5465 39.57H58.4823V29.9185H54.4409V42.9247Z" fill="black"/>
<path fill-rule="evenodd" clip-rule="evenodd" d="M76.2421 39.57V38.0202H83.0964L85.6952 34.6623H76.2421V33.2732H83.7264L86.3251 29.9185H72.2007V42.9247H83.7264L86.3251 39.57H76.2421Z" fill="black"/>
<path fill-rule="evenodd" clip-rule="evenodd" d="M96.5153 42.9247H105.247V35.1506H93.5039L96.1531 38.3604H101.193V39.57H96.5153C95.5238 39.6106 94.5488 39.3067 93.7559 38.71C93.4093 38.4478 93.1302 38.1067 92.9417 37.715C92.7533 37.3233 92.6609 36.8923 92.6723 36.4578C92.6646 36.0179 92.7593 35.5823 92.949 35.1854C93.1387 34.7885 93.4182 34.4412 93.7654 34.1709C94.5462 33.5544 95.5211 33.2362 96.5153 33.2732H103.045L105.644 29.9185H96.509C94.2137 29.9185 92.3321 30.5075 90.8643 31.6856C90.1587 32.2277 89.5912 32.9288 89.208 33.7319C88.8249 34.5349 88.6368 35.4171 88.6593 36.3066C88.6466 37.2117 88.8407 38.1077 89.2266 38.9265C89.6125 39.7453 90.1802 40.4653 90.8863 41.0316C92.3731 42.2916 94.2463 42.9216 96.5058 42.9216L96.5153 42.9247Z" fill="black"/>
<path fill-rule="evenodd" clip-rule="evenodd" d="M113.764 33.2732V42.9247H117.806V33.2732H121.702L124.317 29.9185H111.005L108.406 33.2732H113.764Z" fill="black"/>
<path fill-rule="evenodd" clip-rule="evenodd" d="M122.827 43.1232L131.379 31.3989C132.1 30.412 132.835 29.9185 133.584 29.9185C134.334 29.9185 135.069 30.4057 135.789 31.3801L144.556 43.1232H139.516L133.672 35.0781L127.864 43.1232H122.827Z" fill="black"/>
<path fill-rule="evenodd" clip-rule="evenodd" d="M158.579 42.9247H162.621V29.9185H158.579V34.7001H150.859V29.9185H146.817V42.9247H150.859V38.0548H158.579V42.9247Z" fill="black"/>
<path d="M58.1234 47.5299H59.3046V52.2549H58.1234V51.754C57.9201 51.9533 57.6834 52.1153 57.4241 52.2328C57.1817 52.3297 56.9229 52.3789 56.6618 52.3777C56.364 52.3764 56.0699 52.3122 55.7985 52.1896C55.5271 52.0669 55.2846 51.8885 55.0868 51.6658C54.6381 51.1876 54.3969 50.5511 54.4159 49.8956C54.3909 49.2346 54.6235 48.5897 55.0648 48.0969C55.2615 47.8739 55.5041 47.696 55.7759 47.5753C56.0477 47.4546 56.3424 47.394 56.6398 47.3976C56.9157 47.3958 57.189 47.4505 57.443 47.5583C57.7027 47.6732 57.9379 47.8368 58.136 48.0402V47.5173L58.1234 47.5299ZM56.8634 48.5064C56.6911 48.502 56.5198 48.5346 56.3612 48.602C56.2025 48.6694 56.0601 48.77 55.9436 48.897C55.7054 49.1776 55.5747 49.5338 55.5747 49.9018C55.5747 50.2699 55.7054 50.626 55.9436 50.9067C56.0635 51.0308 56.2071 51.1295 56.366 51.197C56.5248 51.2644 56.6956 51.2991 56.8681 51.2991C57.0407 51.2991 57.2115 51.2644 57.3703 51.197C57.5292 51.1295 57.6728 51.0308 57.7926 50.9067C58.0457 50.6287 58.1782 50.2617 58.1612 49.8861C58.1691 49.7035 58.1406 49.5212 58.0773 49.3498C58.0141 49.1783 57.9173 49.0212 57.7926 48.8876C57.6706 48.7612 57.5235 48.6617 57.3608 48.5955C57.1981 48.5293 57.0233 48.4979 56.8477 48.5033L56.8634 48.5064Z" fill="black"/>
<path d="M68.1655 48.4876L67.1764 49.0325C67.0315 48.861 66.849 48.7251 66.643 48.6356C66.437 48.546 66.2132 48.505 65.9889 48.516C65.792 48.5074 65.5954 48.5381 65.4104 48.6062C65.2255 48.6744 65.0559 48.7786 64.9116 48.9129C64.7758 49.0449 64.6692 49.2039 64.5986 49.3797C64.5281 49.5555 64.4952 49.7442 64.5021 49.9335C64.4951 50.1167 64.5265 50.2993 64.5943 50.4697C64.6621 50.64 64.7648 50.7943 64.8959 50.9225C65.035 51.0522 65.1986 51.153 65.377 51.219C65.5555 51.2849 65.7453 51.3148 65.9354 51.3068C66.1704 51.3188 66.4049 51.2758 66.6204 51.1812C66.8358 51.0866 67.0262 50.943 67.1764 50.7619L68.1214 51.3919C67.8696 51.7177 67.5427 51.9778 67.1686 52.15C66.7946 52.3222 66.3844 52.4015 65.9731 52.381C65.613 52.4009 65.2527 52.3453 64.9153 52.2178C64.5779 52.0903 64.2709 51.8938 64.0139 51.6407C63.743 51.3678 63.5398 51.0352 63.4208 50.6696C63.3017 50.3039 63.2699 49.9155 63.3281 49.5354C63.3863 49.1553 63.5328 48.7941 63.7559 48.4809C63.9789 48.1676 64.2722 47.911 64.6124 47.7316C65.0377 47.5132 65.5109 47.4049 65.9889 47.4166C66.4251 47.4096 66.8568 47.5057 67.2489 47.697C67.6185 47.8798 67.9351 48.1541 68.1687 48.4939L68.1655 48.4876Z" fill="black"/>
<path d="M73.265 47.5299H74.4494V52.2549H73.265V51.754C73.0617 51.9533 72.825 52.1153 72.5657 52.2328C72.3233 52.3297 72.0645 52.3789 71.8034 52.3777C71.5056 52.3763 71.2115 52.3122 70.9401 52.1896C70.6687 52.0669 70.4262 51.8885 70.2284 51.6658C69.7797 51.1875 69.5385 50.5511 69.5575 49.8955C69.5325 49.2346 69.7651 48.5897 70.2064 48.0969C70.4033 47.874 70.6458 47.6962 70.9176 47.5755C71.1894 47.4549 71.484 47.3942 71.7814 47.3976C72.0563 47.3958 72.3286 47.4505 72.5815 47.5583C72.8411 47.6732 73.0763 47.8368 73.2745 48.0402V47.5173L73.265 47.5299ZM72.005 48.5064C71.8327 48.502 71.6615 48.5346 71.5028 48.602C71.3441 48.6694 71.2017 48.77 71.0852 48.897C70.837 49.1689 70.7058 49.5276 70.7198 49.8955C70.7072 50.2682 70.8406 50.631 71.0915 50.9067C71.2114 51.0308 71.355 51.1295 71.5139 51.1969C71.6727 51.2644 71.8435 51.2991 72.016 51.2991C72.1886 51.2991 72.3594 51.2644 72.5182 51.1969C72.6771 51.1295 72.8207 51.0308 72.9406 50.9067C73.1948 50.6291 73.3284 50.2621 73.3123 49.8861C73.3198 49.7033 73.2908 49.5208 73.2269 49.3494C73.1631 49.1779 73.0658 49.0209 72.9406 48.8876C72.8185 48.7612 72.6714 48.6617 72.5087 48.5955C72.3459 48.5293 72.1712 48.4979 71.9956 48.5032L72.005 48.5064Z" fill="black"/>
<path d="M76.3211 45.7849H77.5054V47.53H78.2079V48.5537H77.5054V52.2676H76.3211V48.5537H75.71V47.53H76.3211V45.7849Z" fill="black"/>
<path d="M84.013 48.4876L83.0239 49.0325C82.8796 48.8598 82.6974 48.7228 82.4914 48.6321C82.2854 48.5414 82.0612 48.4995 81.8364 48.5096C81.6395 48.5011 81.4428 48.5317 81.2579 48.5999C81.073 48.668 80.9034 48.7723 80.7591 48.9065C80.6233 49.0385 80.5167 49.1976 80.4461 49.3734C80.3756 49.5492 80.3427 49.7378 80.3496 49.9271C80.3426 50.1103 80.374 50.293 80.4418 50.4633C80.5096 50.6337 80.6123 50.7879 80.7434 50.9162C80.8825 51.0459 81.0461 51.1467 81.2245 51.2126C81.403 51.2786 81.5928 51.3085 81.7828 51.3005C82.0179 51.3125 82.2524 51.2695 82.4679 51.1749C82.6833 51.0803 82.8737 50.9367 83.0239 50.7556L83.9689 51.3855C83.7176 51.6726 83.4118 51.9069 83.0692 52.0749C82.7267 52.243 82.3542 52.3414 81.9734 52.3645C81.5925 52.3877 81.2109 52.3351 80.8505 52.2097C80.4902 52.0844 80.1582 51.8889 79.874 51.6344C79.6023 51.362 79.3984 51.0296 79.2787 50.664C79.159 50.2984 79.1268 49.9098 79.1847 49.5295C79.2427 49.1492 79.3891 48.7878 79.6122 48.4745C79.8353 48.1611 80.1289 47.9045 80.4693 47.7253C80.8946 47.5069 81.3679 47.3986 81.8459 47.4103C82.2821 47.4029 82.7139 47.499 83.1058 47.6906C83.4754 47.8734 83.7921 48.1478 84.0256 48.4876H84.013Z" fill="black"/>
<path d="M85.6165 45.7029H86.7945V48.0118C87.003 47.825 87.2402 47.6729 87.497 47.5614C87.7215 47.4629 87.9638 47.4114 88.2089 47.4102C88.4303 47.4049 88.6504 47.4455 88.8554 47.5296C89.0603 47.6136 89.2456 47.7392 89.3996 47.8984C89.5473 48.0675 89.6598 48.2644 89.7307 48.4774C89.8015 48.6905 89.8292 48.9156 89.8122 49.1395V52.2674H88.6404V50.1916C88.6544 49.8183 88.6291 49.4445 88.5648 49.0765C88.5259 48.9053 88.4305 48.7521 88.2939 48.6418C88.1596 48.5417 87.9951 48.4906 87.8277 48.4969C87.5945 48.4912 87.3683 48.5771 87.1977 48.7363C87.0151 48.9125 86.8899 49.1398 86.8386 49.3883C86.7914 49.7116 86.7735 50.0384 86.7851 50.3648V52.2548H85.6165V45.7029Z" fill="black"/>
<path d="M93.4563 47.53H94.6722L95.9038 50.5036L97.2615 47.53H98.4805L95.5132 54.0001H94.2847L95.2612 51.9148L93.4563 47.53Z" fill="black"/>
<path d="M101.908 47.4102C102.35 47.409 102.785 47.5242 103.168 47.7441C103.551 47.9579 103.869 48.2701 104.091 48.6483C104.312 49.0266 104.429 49.4572 104.428 49.8955C104.435 50.3358 104.326 50.7702 104.113 51.1555C103.897 51.5362 103.583 51.8517 103.203 52.069C102.817 52.2823 102.383 52.3909 101.943 52.384C101.613 52.3937 101.285 52.3343 100.979 52.2096C100.674 52.0848 100.398 51.8974 100.169 51.6595C99.9337 51.4184 99.7491 51.1325 99.626 50.8188C99.503 50.5051 99.4442 50.1699 99.453 49.833C99.4618 49.4961 99.5381 49.1645 99.6773 48.8576C99.8166 48.5507 100.016 48.2749 100.264 48.0465C100.71 47.6343 101.297 47.4088 101.905 47.4165L101.908 47.4102ZM101.908 48.5284C101.736 48.5244 101.566 48.5566 101.407 48.6228C101.249 48.689 101.106 48.7878 100.988 48.9127C100.751 49.1895 100.621 49.542 100.621 49.9065C100.621 50.271 100.751 50.6235 100.988 50.9003C101.109 51.0224 101.253 51.1194 101.411 51.1855C101.569 51.2517 101.739 51.2857 101.911 51.2857C102.083 51.2857 102.253 51.2517 102.411 51.1855C102.57 51.1194 102.713 51.0224 102.834 50.9003C103.071 50.6235 103.201 50.271 103.201 49.9065C103.201 49.542 103.071 49.1895 102.834 48.9127C102.713 48.7856 102.566 48.6858 102.403 48.6201C102.24 48.5544 102.065 48.5242 101.889 48.5316L101.908 48.5284Z" fill="black"/>
<path d="M105.911 47.5298H107.115V49.8135C107.099 50.124 107.129 50.4351 107.206 50.7365C107.258 50.8989 107.36 51.0403 107.499 51.1396C107.646 51.2404 107.822 51.2912 108 51.2845C108.177 51.2898 108.352 51.2403 108.501 51.1428C108.647 51.0409 108.757 50.8954 108.816 50.727C108.879 50.4396 108.903 50.1451 108.888 49.8513V47.5298H110.082V49.5395C110.116 50.1127 110.049 50.6875 109.883 51.2373C109.743 51.5872 109.497 51.8853 109.181 52.0909C108.825 52.3077 108.414 52.4171 107.997 52.4059C107.55 52.4268 107.109 52.3043 106.737 52.0563C106.41 51.817 106.171 51.4757 106.059 51.0861C105.94 50.5701 105.892 50.0401 105.918 49.5111V47.5361L105.911 47.5298Z" fill="black"/>
<path d="M114.29 47.5299H115.475V48.015C115.693 47.8206 115.941 47.6612 116.209 47.5425C116.421 47.4552 116.649 47.4103 116.88 47.4102C117.102 47.4058 117.323 47.4472 117.529 47.5317C117.735 47.6162 117.921 47.7421 118.076 47.9016C118.224 48.07 118.337 48.2663 118.408 48.4789C118.479 48.6915 118.506 48.9161 118.489 49.1396V52.2675H117.314V50.1917C117.329 49.8141 117.304 49.4361 117.239 49.064C117.2 48.8968 117.107 48.7473 116.974 48.6387C116.84 48.5386 116.675 48.4875 116.508 48.4938C116.392 48.4904 116.277 48.5101 116.168 48.5517C116.06 48.5933 115.961 48.6561 115.878 48.7364C115.694 48.918 115.569 49.1507 115.519 49.4042C115.475 49.7171 115.458 50.0333 115.468 50.3492V52.2392H114.284V47.5142L114.29 47.5299Z" fill="black"/>
<path d="M124.915 50.2453H121.095C121.139 50.5576 121.297 50.8426 121.539 51.0454C121.794 51.2583 122.119 51.3704 122.452 51.3604C122.665 51.3641 122.876 51.3247 123.073 51.2446C123.27 51.1645 123.449 51.0453 123.599 50.8942L124.6 51.3667C124.373 51.7006 124.064 51.9707 123.703 52.151C123.314 52.3299 122.889 52.4172 122.462 52.4062C122.127 52.4188 121.794 52.363 121.482 52.2422C121.17 52.1214 120.886 51.9382 120.647 51.7037C120.417 51.473 120.237 51.1979 120.116 50.8952C119.996 50.5925 119.939 50.2685 119.948 49.9429C119.938 49.6113 119.994 49.281 120.114 48.9716C120.233 48.6621 120.414 48.3798 120.644 48.1411C120.87 47.9067 121.143 47.7221 121.444 47.599C121.746 47.4759 122.07 47.417 122.395 47.426C122.732 47.4125 123.068 47.4691 123.381 47.5922C123.694 47.7152 123.979 47.9022 124.216 48.1411C124.453 48.3933 124.638 48.6905 124.758 49.0151C124.879 49.3397 124.933 49.6851 124.919 50.0311V50.261L124.915 50.2453ZM123.722 49.3003C123.643 49.0439 123.48 48.8218 123.259 48.6703C123.023 48.503 122.741 48.4157 122.452 48.4214C122.139 48.4166 121.834 48.5152 121.583 48.7018C121.389 48.8655 121.239 49.0757 121.148 49.3129L123.722 49.3003Z" fill="black"/>
<path d="M125.895 47.53H127.105L128.302 50.3241L129.492 47.53H130.699L128.683 52.2676H127.914L125.895 47.53Z" fill="black"/>
<path d="M136.668 50.2452H132.85C132.892 50.5577 133.049 50.8432 133.291 51.0453C133.548 51.2582 133.874 51.3702 134.208 51.3603C134.42 51.3641 134.631 51.3247 134.829 51.2446C135.026 51.1644 135.204 51.0452 135.354 50.8941L136.356 51.3666C136.128 51.6999 135.819 51.9698 135.458 52.1509C135.069 52.3295 134.645 52.4168 134.217 52.4061C133.883 52.4187 133.549 52.3629 133.237 52.2421C132.925 52.1213 132.641 51.9381 132.403 51.7037C132.172 51.4736 131.99 51.1986 131.869 50.8958C131.749 50.593 131.691 50.2687 131.7 49.9428C131.69 49.6109 131.747 49.2804 131.867 48.9709C131.987 48.6613 132.168 48.3791 132.399 48.141C132.626 47.9065 132.898 47.7218 133.2 47.5987C133.501 47.4755 133.825 47.4167 134.151 47.426C134.487 47.4126 134.823 47.4693 135.136 47.5924C135.45 47.7155 135.734 47.9023 135.972 48.141C136.209 48.3933 136.393 48.6904 136.514 49.015C136.634 49.3396 136.689 49.6851 136.674 50.031V50.261L136.668 50.2452ZM135.474 49.3002C135.395 49.0439 135.232 48.8218 135.011 48.6702C134.777 48.5025 134.495 48.4152 134.208 48.4214C133.894 48.4166 133.587 48.5151 133.335 48.7017C133.143 48.8674 132.994 49.0771 132.9 49.3128L135.474 49.3002Z" fill="black"/>
<path d="M137.877 47.5301H138.914V48.1286C139.007 47.9128 139.159 47.7273 139.352 47.5931C139.529 47.4725 139.739 47.4088 139.953 47.4104C140.122 47.4145 140.287 47.4553 140.438 47.5301L140.067 48.5539C139.961 48.4944 139.844 48.4589 139.723 48.4499C139.622 48.458 139.524 48.4941 139.442 48.5541C139.36 48.6142 139.296 48.6959 139.257 48.7901C139.099 49.2155 139.036 49.6702 139.071 50.1226V52.2677H137.89V47.5427L137.877 47.5301Z" fill="black"/>
<path d="M144.02 47.5299H145.214V48.0749C145.403 47.8632 145.634 47.6927 145.891 47.5741C146.148 47.4628 146.425 47.4069 146.704 47.4102C146.986 47.4062 147.263 47.4815 147.504 47.6276C147.751 47.7797 147.951 47.9979 148.08 48.2576C148.252 47.9923 148.487 47.7748 148.766 47.6254C149.044 47.4761 149.355 47.3999 149.671 47.4039C149.985 47.3973 150.294 47.4791 150.563 47.6402C150.805 47.781 150.997 47.9949 151.111 48.2513C151.245 48.6473 151.301 49.0655 151.278 49.4829V52.2612H150.084V49.8641C150.117 49.4892 150.048 49.1123 149.882 48.7742C149.814 48.6797 149.723 48.6039 149.618 48.5538C149.513 48.5037 149.397 48.4809 149.281 48.4875C149.085 48.4859 148.894 48.5478 148.736 48.6639C148.566 48.7802 148.436 48.9464 148.364 49.1396C148.269 49.4603 148.229 49.7946 148.244 50.1287V52.2643H147.047V49.9712C147.06 49.6606 147.029 49.3497 146.953 49.0482C146.908 48.8809 146.809 48.7327 146.672 48.6261C146.543 48.5295 146.384 48.4795 146.222 48.4844C146.027 48.483 145.838 48.5461 145.683 48.6639C145.516 48.7878 145.39 48.959 145.321 49.1553C145.227 49.4804 145.186 49.8188 145.201 50.157V52.2643H144.008V47.5394L144.02 47.5299Z" fill="black"/>
<path d="M153.403 45.5801C153.504 45.5792 153.604 45.5989 153.696 45.6379C153.789 45.6769 153.873 45.7344 153.942 45.8069C154.014 45.8785 154.071 45.964 154.11 46.0582C154.148 46.1523 154.167 46.2533 154.166 46.355C154.168 46.4556 154.15 46.5556 154.112 46.6488C154.074 46.742 154.017 46.8264 153.945 46.8968C153.877 46.9686 153.794 47.0255 153.702 47.064C153.611 47.1024 153.512 47.1217 153.413 47.1205C153.312 47.122 153.212 47.1026 153.118 47.0636C153.025 47.0246 152.941 46.9667 152.871 46.8937C152.798 46.8214 152.74 46.735 152.702 46.6396C152.663 46.5443 152.645 46.442 152.647 46.3393C152.645 46.2396 152.664 46.1407 152.702 46.0485C152.74 45.9564 152.796 45.8731 152.868 45.8038C152.937 45.732 153.021 45.6752 153.113 45.6368C153.205 45.5983 153.304 45.579 153.403 45.5801ZM152.808 47.53H153.999V52.2549H152.808V47.53Z" fill="black"/>
<path d="M158.5 48.1945L157.766 48.9285C157.562 48.6826 157.271 48.5238 156.954 48.4843C156.842 48.4777 156.732 48.5075 156.639 48.5694C156.604 48.5928 156.576 48.6242 156.556 48.661C156.536 48.6977 156.526 48.7387 156.525 48.7804C156.527 48.8462 156.552 48.9091 156.598 48.9568C156.704 49.048 156.824 49.1224 156.954 49.1773L157.385 49.3947C157.75 49.5488 158.074 49.7862 158.33 50.0877C158.505 50.327 158.595 50.617 158.588 50.913C158.594 51.1127 158.555 51.3113 158.476 51.4946C158.397 51.678 158.278 51.8418 158.129 51.9745C157.779 52.2723 157.327 52.4235 156.869 52.3966C156.548 52.4059 156.23 52.337 155.942 52.196C155.654 52.0549 155.404 51.846 155.215 51.5871L155.949 50.7901C156.085 50.9514 156.251 51.085 156.437 51.1839C156.589 51.2721 156.759 51.3229 156.935 51.3319C157.07 51.3399 157.203 51.3009 157.313 51.2217C157.357 51.1935 157.393 51.1549 157.418 51.1092C157.443 51.0636 157.457 51.0124 157.458 50.9602C157.458 50.7775 157.284 50.598 156.941 50.4247L156.538 50.2231C155.771 49.8367 155.389 49.3537 155.391 48.7741C155.39 48.5924 155.427 48.4123 155.502 48.2465C155.576 48.0807 155.686 47.9329 155.823 47.8134C156.127 47.5427 156.525 47.4004 156.932 47.4165C157.232 47.4147 157.529 47.4837 157.798 47.6181C158.072 47.7527 158.309 47.9528 158.488 48.2008L158.5 48.1945Z" fill="black"/>
<path d="M162.951 48.1946L162.214 48.9285C162.011 48.6804 161.72 48.5211 161.401 48.4844C161.29 48.477 161.179 48.5069 161.086 48.5694C161.052 48.5928 161.024 48.6243 161.004 48.661C160.984 48.6978 160.974 48.7388 160.973 48.7805C160.974 48.8462 161 48.9091 161.046 48.9569C161.151 49.0483 161.27 49.1227 161.398 49.1774L161.833 49.3947C162.198 49.5489 162.521 49.7862 162.778 50.0877C162.979 50.3738 163.07 50.7235 163.032 51.0713C162.994 51.4192 162.831 51.7414 162.573 51.9777C162.227 52.2711 161.782 52.422 161.329 52.3998C161.008 52.409 160.69 52.3402 160.402 52.1992C160.114 52.0581 159.865 51.8492 159.675 51.5903L160.406 50.7933C160.544 50.9531 160.709 51.0866 160.894 51.1871C161.047 51.275 161.219 51.3257 161.395 51.3351C161.53 51.3425 161.663 51.3036 161.773 51.2249C161.816 51.1955 161.851 51.1566 161.876 51.1113C161.902 51.0659 161.916 51.0152 161.918 50.9634C161.918 50.7807 161.745 50.6012 161.398 50.4279L160.998 50.2263C160.234 49.8399 159.851 49.3569 159.849 48.7773C159.847 48.5953 159.885 48.4152 159.961 48.2493C160.036 48.0834 160.146 47.9358 160.283 47.8166C160.588 47.5459 160.985 47.4036 161.392 47.4197C161.695 47.4178 161.994 47.4879 162.265 47.6243C162.535 47.7607 162.769 47.9594 162.948 48.204L162.951 48.1946Z" fill="black"/>
</g>
<defs>
<clipPath id="clip0">
<rect width="163.04" height="54" fill="white"/>
</clipPath>
</defs>
</svg>
