<svg width="32" height="32" viewBox="0 0 32 32" fill="none" xmlns="http://www.w3.org/2000/svg">
<path fill-rule="evenodd" clip-rule="evenodd" d="M15.9999 5.33325C13.0533 5.33325 10.6666 7.71992 10.6666 10.6666C10.6666 13.6133 13.0533 15.9999 15.9999 15.9999C18.9466 15.9999 21.3333 13.6133 21.3333 10.6666C21.3333 7.71992 18.9466 5.33325 15.9999 5.33325ZM18.8 10.6666C18.8 9.11993 17.5467 7.86659 16 7.86659C14.4534 7.86659 13.2 9.11993 13.2 10.6666C13.2 12.2133 14.4534 13.4666 16 13.4666C17.5467 13.4666 18.8 12.2133 18.8 10.6666ZM24.1334 22.6666C24.1334 21.8133 19.96 19.8666 16 19.8666C12.04 19.8666 7.86672 21.8133 7.86672 22.6666V24.1333H24.1334V22.6666ZM5.33325 22.6666C5.33325 19.1199 12.4399 17.3333 15.9999 17.3333C19.5599 17.3333 26.6666 19.1199 26.6666 22.6666V26.6666H5.33325V22.6666Z" fill="#1B1B1B"/>
</svg>
