<svg width="38" height="38" viewBox="0 0 38 38" fill="none" xmlns="http://www.w3.org/2000/svg">
<g clip-path="url(#clip0)">
<path d="M34.6604 4.52734H3.34013C2.82602 4.52734 2.34471 4.65374 1.90927 4.86207L18.9261 21.8789L22.7401 18.2134C22.7401 18.2134 22.7404 18.2131 22.7405 18.2129C22.7405 18.2128 22.7408 18.2126 22.7408 18.2126L36.0918 4.86237C35.6563 4.65389 35.1747 4.52734 34.6604 4.52734Z" fill="black"/>
<path d="M37.666 6.43683L25.1021 19.0001L37.6656 31.5637C37.8739 31.1282 38.0003 30.6469 38.0003 30.1328V7.86717C38.0003 7.35336 37.8742 6.87212 37.666 6.43683Z" fill="black"/>
<path d="M0.335032 6.43634C0.1267 6.87178 0.000305176 7.35309 0.000305176 7.8672V30.1328C0.000305176 30.6466 0.126551 31.128 0.334735 31.5633L12.8987 19L0.335032 6.43634Z" fill="black"/>
<path d="M23.5278 20.5744L19.7133 24.2403C19.4958 24.4577 19.211 24.5664 18.9262 24.5664C18.6414 24.5664 18.3565 24.4577 18.1391 24.2403L14.473 20.5742L1.90878 33.1376C2.3443 33.3461 2.8259 33.4726 3.34017 33.4726H34.6605C35.1746 33.4726 35.6559 33.3462 36.0913 33.1379L23.5278 20.5744Z" fill="black"/>
</g>
<defs>
<clipPath id="clip0">
<rect x="0.000305176" width="38" height="38" fill="white"/>
</clipPath>
</defs>
</svg>
