<svg width="74" height="74" viewBox="0 0 74 74" fill="none" xmlns="http://www.w3.org/2000/svg">
<path d="M37 0L69.0429 55.5H4.95706L37 0Z" fill="#0C0A13"/>
<path d="M57.648 56H55.488V43.076C55.488 41.636 55.176 40.568 54.552 39.872C53.952 39.152 52.944 38.792 51.528 38.792C50.52 38.792 49.596 39.056 48.756 39.584C47.916 40.088 47.292 40.748 46.884 41.564C46.644 42.044 46.44 42.68 46.272 43.472C46.128 44.24 46.056 45.008 46.056 45.776V56H43.896V43.076C43.896 41.564 43.56 40.472 42.888 39.8C42.24 39.128 41.28 38.792 40.008 38.792C38.856 38.792 37.836 39.092 36.948 39.692C36.228 40.172 35.688 40.772 35.328 41.492C35.112 41.948 34.908 42.584 34.716 43.4C34.548 44.192 34.464 44.984 34.464 45.776V56H32.304V37.352H34.464V40.196C35.016 39.164 35.808 38.348 36.84 37.748C37.896 37.148 39.084 36.848 40.404 36.848C41.82 36.848 42.948 37.148 43.788 37.748C44.652 38.324 45.312 39.224 45.768 40.448C46.344 39.272 47.172 38.384 48.252 37.784C49.356 37.16 50.544 36.848 51.816 36.848C53.784 36.848 55.248 37.412 56.208 38.54C57.168 39.644 57.648 41.468 57.648 44.012V56ZM66.2883 56H63.6603V52.832H66.2883V56Z" fill="#FDFFFC"/>
</svg>
