<svg width="38" height="38" viewBox="0 0 38 38" fill="none" xmlns="http://www.w3.org/2000/svg">
<g clip-path="url(#clip0)">
<path d="M19.0767 8.02972L4.46582 22.5024V36.8866C4.46582 37.5019 4.94898 37.9999 5.56426 37.9999H13.4955V25.5727C13.4955 24.9575 14.0083 24.4743 14.6236 24.4743H23.5299C24.1451 24.4743 24.6432 24.9575 24.6432 25.5727V37.9998H32.4361C33.0514 37.9998 33.5346 37.5018 33.5346 36.8866V22.5024L19.0767 8.02972ZM19.0767 22.2329C16.6216 22.2329 14.6236 20.2357 14.6236 17.7798C14.6236 15.3239 16.6216 13.3266 19.0767 13.3266C21.5312 13.3266 23.5299 15.3239 23.5299 17.7798C23.5299 20.2357 21.5312 22.2329 19.0767 22.2329Z" fill="black"/>
<path d="M19.0764 15.5533C17.8479 15.5533 16.8499 16.5524 16.8499 17.7799C16.8499 19.0073 17.8479 20.0065 19.0764 20.0065C20.305 20.0065 21.303 19.0073 21.303 17.7799C21.303 16.5525 20.305 15.5533 19.0764 15.5533Z" fill="black"/>
<path d="M22.4883 26.7306H15.8086V38H22.4883V26.7306Z" fill="black"/>
<path d="M37.7569 17.6402C37.7561 17.6384 37.756 17.6365 37.7553 17.6347C37.3691 16.6821 27.6111 7.11936 26.8691 6.37747L21.4375 0.945844C20.1764 -0.315281 17.9759 -0.315281 16.7147 0.945844C15.9135 1.74711 0.645272 16.6447 0.243897 17.6346C0.243229 17.6364 0.24308 17.6385 0.24308 17.6385C-0.244017 18.8456 -6.04168e-05 20.2788 0.975694 21.2545C1.25498 21.5343 1.57783 21.7318 1.91612 21.8884L18.2891 5.66861C18.7239 5.23376 19.4285 5.23376 19.8633 5.66861L36.0933 21.8985C36.4322 21.7368 36.7502 21.5278 37.0235 21.2545C37.9992 20.2788 38.2432 18.8455 37.7569 17.6402Z" fill="black"/>
<path d="M32.4358 2.23853H27.9827C27.3904 2.23853 26.9182 2.65905 26.8826 3.24219L33.5343 9.90866V3.30728C33.5343 2.69193 33.0512 2.23853 32.4358 2.23853Z" fill="black"/>
</g>
<defs>
<clipPath id="clip0">
<rect width="38" height="38" fill="white"/>
</clipPath>
</defs>
</svg>
