<svg width="231" height="74" viewBox="0 0 231 74" fill="none" xmlns="http://www.w3.org/2000/svg">
<path d="M37 0L69.0429 55.5H4.95706L37 0Z" fill="#0C0A13"/>
<path d="M57.648 56H55.488V43.076C55.488 41.636 55.176 40.568 54.552 39.872C53.952 39.152 52.944 38.792 51.528 38.792C50.52 38.792 49.596 39.056 48.756 39.584C47.916 40.088 47.292 40.748 46.884 41.564C46.644 42.044 46.44 42.68 46.272 43.472C46.128 44.24 46.056 45.008 46.056 45.776V56H43.896V43.076C43.896 41.564 43.56 40.472 42.888 39.8C42.24 39.128 41.28 38.792 40.008 38.792C38.856 38.792 37.836 39.092 36.948 39.692C36.228 40.172 35.688 40.772 35.328 41.492C35.112 41.948 34.908 42.584 34.716 43.4C34.548 44.192 34.464 44.984 34.464 45.776V56H32.304V37.352H34.464V40.196C35.016 39.164 35.808 38.348 36.84 37.748C37.896 37.148 39.084 36.848 40.404 36.848C41.82 36.848 42.948 37.148 43.788 37.748C44.652 38.324 45.312 39.224 45.768 40.448C46.344 39.272 47.172 38.384 48.252 37.784C49.356 37.16 50.544 36.848 51.816 36.848C53.784 36.848 55.248 37.412 56.208 38.54C57.168 39.644 57.648 41.468 57.648 44.012V56ZM66.2883 56H63.6603V52.832H66.2883V56Z" fill="#FDFFFC"/>
<path d="M86.8198 56H71.1958V54.092L83.5798 39.152H72.0238V37.352H86.3518V39.26L73.9678 54.2H86.8198V56ZM105.396 56H103.236V43.724C103.236 42.02 102.84 40.772 102.048 39.98C101.256 39.188 100.068 38.792 98.4838 38.792C96.8038 38.792 95.4238 39.38 94.3438 40.556C93.2878 41.708 92.7598 43.268 92.7598 45.236V56H90.5998V30.08H92.7598V39.944C94.0318 38.648 95.0998 37.808 95.9638 37.424C96.8278 37.04 97.7638 36.848 98.7718 36.848C101.7 36.848 103.704 37.928 104.784 40.088C105 40.496 105.156 41 105.252 41.6C105.348 42.2 105.396 42.836 105.396 43.508V56ZM125.364 37.352L118.344 55.928C116.496 60.872 114.54 63.344 112.476 63.344C112.044 63.344 111.636 63.308 111.252 63.236C110.892 63.164 110.628 63.116 110.46 63.092V61.076C110.724 61.124 111 61.172 111.288 61.22C111.6 61.268 111.9 61.292 112.188 61.292C113.172 61.292 113.952 60.74 114.528 59.636C115.104 58.1 115.56 56.936 115.896 56.144L108.66 37.352H111.072L117.048 53.372L123.024 37.352H125.364ZM143.4 37.352L136.164 56H133.752L126.624 37.352H128.964L135.012 53.336L141.06 37.352H143.4ZM162.66 46.676C162.66 49.556 161.892 51.92 160.356 53.768C158.82 55.592 156.72 56.504 154.056 56.504C151.56 56.504 149.52 55.676 147.936 54.02C146.232 52.22 145.38 49.784 145.38 46.712C145.38 43.736 146.136 41.348 147.648 39.548C149.184 37.748 151.308 36.848 154.02 36.848C156.78 36.848 158.928 37.772 160.464 39.62C161.928 41.396 162.66 43.748 162.66 46.676ZM160.356 46.748C160.356 44.348 159.888 42.476 158.952 41.132C157.872 39.572 156.228 38.792 154.02 38.792C152.004 38.792 150.444 39.512 149.34 40.952C148.236 42.392 147.684 44.3 147.684 46.676C147.684 49.148 148.248 51.08 149.376 52.472C150.504 53.864 152.064 54.56 154.056 54.56C156.144 54.56 157.752 53.756 158.88 52.148C159.864 50.732 160.356 48.932 160.356 46.748ZM173.16 56.072C172.92 56.144 172.524 56.228 171.972 56.324C171.444 56.444 171.012 56.504 170.676 56.504C169.476 56.504 168.624 56.204 168.12 55.604C167.616 55.004 167.364 54.08 167.364 52.832V39.152H164.736V37.352H167.364V32.168H169.524V37.352H173.016V39.152H169.524V52.22C169.524 53.156 169.644 53.78 169.884 54.092C170.124 54.404 170.64 54.56 171.432 54.56C172.08 54.56 172.656 54.464 173.16 54.272V56.072ZM191.567 56H189.155L182.171 45.596L178.643 48.944V56H176.483V30.08H178.643V46.208L187.787 37.352H190.739L183.755 44.084L191.567 56ZM210.683 46.676C210.683 49.556 209.915 51.92 208.379 53.768C206.843 55.592 204.743 56.504 202.079 56.504C199.583 56.504 197.543 55.676 195.959 54.02C194.255 52.22 193.403 49.784 193.403 46.712C193.403 43.736 194.159 41.348 195.671 39.548C197.207 37.748 199.331 36.848 202.043 36.848C204.803 36.848 206.951 37.772 208.487 39.62C209.951 41.396 210.683 43.748 210.683 46.676ZM208.379 46.748C208.379 44.348 207.911 42.476 206.975 41.132C205.895 39.572 204.251 38.792 202.043 38.792C200.027 38.792 198.467 39.512 197.363 40.952C196.259 42.392 195.707 44.3 195.707 46.676C195.707 49.148 196.271 51.08 197.399 52.472C198.527 53.864 200.087 54.56 202.079 54.56C204.167 54.56 205.775 53.756 206.903 52.148C207.887 50.732 208.379 48.932 208.379 46.748ZM229.427 37.352L222.191 56H219.779L212.651 37.352H214.991L221.039 53.336L227.087 37.352H229.427Z" fill="#0C0A13"/>
</svg>
