<svg width="381" height="122" viewBox="0 0 381 122" fill="none" xmlns="http://www.w3.org/2000/svg">
<path d="M61.0259 0L113.876 91.5H8.1759L61.0259 0Z" fill="#FDFFFC"/>
<path d="M95.0818 92.3243H91.5192V71.0172C91.5192 68.6431 91.0046 66.8824 89.9754 65.7349C88.9858 64.5479 87.3232 63.9544 84.9878 63.9544C83.3252 63.9544 81.8012 64.3896 80.4158 65.2601C79.0303 66.091 78.0011 67.1791 77.3282 68.5244C76.9323 69.3158 76.5959 70.3643 76.3188 71.67C76.0813 72.9362 75.9625 74.2024 75.9625 75.4685V92.3243H72.3999V71.0172C72.3999 68.5244 71.8457 66.7241 70.7374 65.6162C69.6686 64.5083 68.0852 63.9544 65.9872 63.9544C64.0872 63.9544 62.4048 64.449 60.9402 65.4381C59.7527 66.2295 58.862 67.2187 58.2683 68.4057C57.912 69.1575 57.5755 70.206 57.2589 71.5513C56.9818 72.8571 56.8432 74.1628 56.8432 75.4685V92.3243H53.2806V61.5803H56.8432V66.2691C57.7537 64.5677 59.06 63.2224 60.7621 62.2332C62.5038 61.244 64.4632 60.7494 66.6404 60.7494C68.9759 60.7494 70.8363 61.244 72.2218 62.2332C73.6468 63.1828 74.7354 64.6666 75.4875 66.6845C76.4375 64.7457 77.8032 63.2817 79.5845 62.2925C81.4054 61.2638 83.3648 60.7494 85.4628 60.7494C88.7087 60.7494 91.1233 61.6792 92.7067 63.5389C94.2901 65.359 95.0818 68.3661 95.0818 72.5603V92.3243ZM109.333 92.3243H104.998V87.1014H109.333V92.3243Z" fill="#0C0A13"/>
<path d="M143.196 92.3243H117.427V89.1787L137.852 64.5479H118.792V61.5803H142.424V64.7259L121.999 89.3567H143.196V92.3243ZM173.835 92.3243H170.272V72.0855C170.272 69.2762 169.619 67.2187 168.313 65.9129C167.007 64.6072 165.047 63.9543 162.434 63.9543C159.663 63.9543 157.387 64.9237 155.606 66.8626C153.864 68.7618 152.993 71.3337 152.993 74.5782V92.3243H149.431V49.5913H152.993V65.8536C155.091 63.7169 156.853 62.3321 158.278 61.699C159.703 61.0659 161.247 60.7494 162.909 60.7494C167.739 60.7494 171.044 62.5299 172.826 66.091C173.182 66.7636 173.439 67.5946 173.597 68.5837C173.756 69.5729 173.835 70.6215 173.835 71.7294V92.3243ZM206.769 61.5803L195.191 92.2056C192.143 100.357 188.917 104.432 185.512 104.432C184.8 104.432 184.127 104.373 183.494 104.254C182.9 104.135 182.464 104.056 182.187 104.017V100.693C182.623 100.772 183.078 100.851 183.553 100.93C184.068 101.009 184.562 101.049 185.037 101.049C186.66 101.049 187.947 100.139 188.897 98.3188C189.847 95.7864 190.599 93.8674 191.153 92.5617L179.218 61.5803H183.197L193.053 87.9916L202.91 61.5803H206.769ZM236.517 61.5803L224.582 92.3243H220.604L208.847 61.5803H212.707L222.682 87.9323L232.657 61.5803H236.517ZM268.283 76.9523C268.283 81.7004 267.017 85.5978 264.483 88.6445C261.95 91.6516 258.486 93.1552 254.092 93.1552C249.976 93.1552 246.611 91.7901 243.998 89.06C241.188 86.0924 239.783 82.0763 239.783 77.0116C239.783 72.1053 241.029 68.1683 243.523 65.2007C246.057 62.2331 249.56 60.7494 254.033 60.7494C258.585 60.7494 262.128 62.2727 264.661 65.3194C267.076 68.2474 268.283 72.125 268.283 76.9523ZM264.483 77.071C264.483 73.1142 263.711 70.028 262.168 67.8122C260.386 65.2403 257.675 63.9543 254.033 63.9543C250.708 63.9543 248.135 65.1414 246.314 67.5154C244.493 69.8895 243.583 73.0351 243.583 76.9523C243.583 81.0277 244.513 84.2129 246.373 86.5079C248.234 88.8028 250.807 89.9502 254.092 89.9502C257.536 89.9502 260.188 88.6247 262.049 85.9737C263.672 83.6392 264.483 80.6716 264.483 77.071ZM285.602 92.443C285.206 92.5617 284.553 92.7002 283.642 92.8584C282.771 93.0563 282.059 93.1552 281.505 93.1552C279.525 93.1552 278.12 92.6606 277.289 91.6714C276.458 90.6822 276.042 89.1589 276.042 87.1014V64.5479H271.707V61.5803H276.042V53.0337H279.605V61.5803H285.364V64.5479H279.605V86.0924C279.605 87.6355 279.802 88.6643 280.198 89.1787C280.594 89.693 281.445 89.9502 282.751 89.9502C283.82 89.9502 284.77 89.792 285.602 89.4754V92.443ZM315.961 92.3243H311.983L300.464 75.1717L294.645 80.6914V92.3243H291.082V49.5913H294.645V76.1807L309.727 61.5803H314.595L303.076 72.679L315.961 92.3243ZM347.49 76.9523C347.49 81.7004 346.223 85.5978 343.69 88.6445C341.157 91.6516 337.693 93.1552 333.299 93.1552C329.182 93.1552 325.818 91.7901 323.205 89.06C320.395 86.0924 318.989 82.0763 318.989 77.0116C318.989 72.1053 320.236 68.1683 322.73 65.2007C325.263 62.2331 328.767 60.7494 333.24 60.7494C337.792 60.7494 341.335 62.2727 343.868 65.3194C346.283 68.2474 347.49 72.125 347.49 76.9523ZM343.69 77.071C343.69 73.1142 342.918 70.028 341.374 67.8122C339.593 65.2403 336.882 63.9543 333.24 63.9543C329.915 63.9543 327.342 65.1414 325.521 67.5154C323.7 69.8895 322.789 73.0351 322.789 76.9523C322.789 81.0277 323.72 84.2129 325.58 86.5079C327.441 88.8028 330.014 89.9502 333.299 89.9502C336.743 89.9502 339.395 88.6247 341.256 85.9737C342.879 83.6392 343.69 80.6716 343.69 77.071ZM378.406 61.5803L366.471 92.3243H362.493L350.736 61.5803H354.596L364.571 87.9323L374.546 61.5803H378.406Z" fill="#FDFFFC"/>
</svg>
