<svg width="38" height="38" viewBox="0 0 38 38" fill="none" xmlns="http://www.w3.org/2000/svg">
<g clip-path="url(#clip0)">
<path d="M21.3011 0.00396729C20.6857 0.00396729 20.1878 0.5019 20.1878 1.11725C20.1878 1.73259 20.6857 2.23053 21.3011 2.23053C29.281 2.23053 35.7737 8.72317 35.7737 16.7032C35.7737 17.3185 36.2716 17.8164 36.887 17.8164C37.5023 17.8164 38.0002 17.3185 38.0002 16.7032C38.0002 7.4947 30.5095 0.00396729 21.3011 0.00396729Z" fill="black"/>
<path d="M21.3011 4.45709C20.6857 4.45709 20.1878 4.95502 20.1878 5.57037C20.1878 6.18572 20.6857 6.68365 21.3011 6.68365C26.8261 6.68365 31.3206 11.1781 31.3206 16.7032C31.3206 17.3185 31.8185 17.8164 32.4338 17.8164C33.0492 17.8164 33.5471 17.3185 33.5471 16.7032C33.5471 9.95068 28.0535 4.45709 21.3011 4.45709Z" fill="black"/>
<path d="M21.3011 8.91022C20.6857 8.91022 20.1878 9.40815 20.1878 10.0235C20.1878 10.6388 20.6857 11.1368 21.3011 11.1368C24.3702 11.1368 26.8675 13.634 26.8675 16.7032C26.8675 17.3185 27.3654 17.8165 27.9807 17.8165C28.5961 17.8165 29.094 17.3185 29.094 16.7032C29.094 12.4066 25.5976 8.91022 21.3011 8.91022Z" fill="black"/>
<path d="M21.3011 13.3633C20.6857 13.3633 20.1878 13.8612 20.1878 14.4766C20.1878 15.0919 20.6857 15.5898 21.3011 15.5898C21.9153 15.5898 22.4143 16.0889 22.4143 16.7031C22.4143 17.3185 22.9123 17.8164 23.5276 17.8164C24.143 17.8164 24.6409 17.3185 24.6409 16.7031C24.6409 14.8615 23.1427 13.3633 21.3011 13.3633Z" fill="black"/>
<path d="M14.7936 7.27779L8.49663 0.980786C7.19416 -0.322715 5.07522 -0.320563 3.77283 0.980786L2.99005 1.7635L14.0108 12.7844L14.7936 12.0016C15.4242 11.371 15.7721 10.5317 15.7721 9.63913C15.7721 8.74762 15.4242 7.90835 14.7936 7.27779Z" fill="black"/>
<path d="M37.0234 29.5569L30.7264 23.2599C29.4642 21.9977 27.2616 21.9998 26.0037 23.2599L25.2201 24.043L36.2406 35.0635L37.0234 34.2807C38.3259 32.9782 38.3259 30.8593 37.0234 29.5569Z" fill="black"/>
<path d="M23.4872 25.4586C22.2472 26.0468 20.7305 25.8591 19.7055 24.8341L13.2194 18.2986C12.1944 17.2736 12.0067 15.7571 12.5949 14.5169L1.50165 3.42371C-1.65933 8.2825 -0.0575393 20.7662 8.4966 29.3194C16.9485 37.7713 29.5671 39.7725 34.5474 36.5188L23.4872 25.4586Z" fill="black"/>
</g>
<defs>
<clipPath id="clip0">
<rect x="0.000305176" width="38" height="38" fill="white"/>
</clipPath>
</defs>
</svg>
