<svg width="38" height="38" viewBox="0 0 38 38" fill="none" xmlns="http://www.w3.org/2000/svg">
<g clip-path="url(#clip0)">
<path d="M37.8065 1.55625C37.6374 1.40789 37.3967 1.37346 37.1926 1.4681L0.328685 18.5962C0.130222 18.6884 0.00241957 18.8864 3.39261e-05 19.1052C-0.00235172 19.324 0.121248 19.5247 0.31778 19.6212L10.7502 24.741C10.9415 24.835 11.1696 24.8137 11.3405 24.686L21.4837 17.1049L13.5209 25.2956C13.4073 25.4125 13.3493 25.5726 13.3618 25.735L14.1547 36.0602C14.1723 36.289 14.3256 36.4847 14.5436 36.5564C14.6019 36.5754 14.6618 36.5848 14.721 36.5848C14.8833 36.5848 15.0412 36.5151 15.1511 36.3879L20.6883 29.9714L27.5334 33.242C27.682 33.313 27.854 33.316 28.0049 33.2503C28.1559 33.1845 28.2709 33.0566 28.3202 32.8996L37.9739 2.15346C38.0414 1.93875 37.9756 1.70462 37.8065 1.55625Z" fill="black"/>
</g>
<defs>
<clipPath id="clip0">
<rect x="0.000305176" width="38" height="38" fill="white"/>
</clipPath>
</defs>
</svg>
