<svg width="106" height="99" viewBox="0 0 106 99" fill="none" xmlns="http://www.w3.org/2000/svg">
<path d="M28.9873 55.9615C28.9873 52.1308 25.7699 49.0298 21.7988 49.0298C17.8297 49.0298 14.6113 52.1308 14.6113 55.9615C14.6113 56.2591 14.637 56.5471 14.6746 56.8323C15.1197 60.248 18.1373 62.8931 21.7978 62.8931C25.5602 62.8931 28.6411 60.104 28.9557 56.5528C28.9725 56.3563 28.9873 56.1608 28.9873 55.9615ZM18.1986 53.3489L19.6654 54.7615C19.5507 54.9513 19.4637 55.1545 19.4063 55.3729H17.3392C17.446 54.6175 17.7466 53.9298 18.1986 53.3489ZM17.3332 56.5729H19.4142C19.4735 56.7865 19.5586 56.9907 19.6743 57.1728L18.2066 58.5912C17.7516 58.0132 17.441 57.3245 17.3332 56.5729ZM21.1777 60.2681C20.4003 60.1641 19.6902 59.8694 19.0928 59.4335L20.5536 58.0227C20.7455 58.1315 20.9571 58.2097 21.1787 58.2659L21.1777 60.2681ZM21.1777 53.6551C20.9512 53.7123 20.7386 53.7981 20.5407 53.9116L19.0779 52.5009C19.6783 52.0602 20.3934 51.7674 21.1777 51.6625V53.6551ZM22.42 51.6606C23.2053 51.7655 23.9204 52.0583 24.5207 52.499L23.0579 53.9097C22.8601 53.7981 22.6484 53.7104 22.42 53.6531V51.6606ZM22.42 60.2662V58.265C22.6435 58.2087 22.8532 58.1286 23.045 58.0208L24.5079 59.4316C23.9095 59.8675 23.1993 60.1612 22.42 60.2662ZM25.399 58.596L23.9253 57.1728C24.039 56.9868 24.134 56.7884 24.1933 56.5729H26.2585C26.1487 57.3245 25.854 58.0179 25.399 58.596ZM24.1933 55.3739C24.135 55.1555 24.0489 54.9542 23.9332 54.7625L25.4 53.3489C25.854 53.9288 26.1546 54.6165 26.2605 55.3729L24.1933 55.3739Z" fill="#C1C1C1"/>
<path d="M80.2754 49.0298C76.3063 49.0298 73.0889 52.1308 73.0889 55.9615C73.0889 56.2591 73.1136 56.5471 73.1502 56.8323C73.5953 60.248 76.6139 62.8931 80.2734 62.8931C84.0378 62.8931 87.1177 60.104 87.4312 56.5528C87.447 56.3573 87.4619 56.1618 87.4619 55.9624C87.4658 52.1308 84.2474 49.0298 80.2754 49.0298ZM76.6762 53.3489L78.143 54.7615C78.0282 54.9513 77.9412 55.1545 77.8818 55.3729H75.8167C75.9235 54.6175 76.2232 53.9298 76.6762 53.3489ZM75.8108 56.5729H77.8917C77.9531 56.7865 78.0361 56.9907 78.1529 57.1728L76.6841 58.5922C76.2281 58.0132 75.9186 57.3245 75.8108 56.5729ZM79.6542 60.2681C78.8768 60.1641 78.1677 59.8694 77.5703 59.4335L79.0321 58.0227C79.224 58.1315 79.4347 58.2097 79.6562 58.2659L79.6542 60.2681ZM79.6542 53.6551C79.4277 53.7123 79.2171 53.7981 79.0183 53.9116L77.5555 52.5009C78.1548 52.0602 78.8709 51.7674 79.6542 51.6625V53.6551ZM80.8965 51.6606C81.6828 51.7655 82.3979 52.0583 82.9983 52.499L81.5354 53.9097C81.3376 53.7981 81.125 53.7104 80.8965 53.6531V51.6606ZM80.8965 60.2662V58.265C81.121 58.2087 81.3297 58.1286 81.5236 58.0208L82.9864 59.4316C82.387 59.8675 81.6769 60.1612 80.8965 60.2662ZM83.8775 58.596L82.4028 57.1728C82.5166 56.9868 82.6125 56.7884 82.6709 56.5729H84.737C84.6262 57.3245 84.3315 58.0179 83.8775 58.596ZM82.6699 55.3739C82.6125 55.1555 82.5255 54.9542 82.4108 54.7625L83.8765 53.3498C84.3295 53.9298 84.6302 54.6175 84.736 55.3739H82.6699Z" fill="#C1C1C1"/>
<path d="M100.495 47.7315C92.2861 40.8962 82.4954 40.5557 82.4954 40.5557L76.837 38.8426C76.0339 38.5993 75.1794 39.0276 74.9222 39.8002L74.4732 41.1604L64.0643 41.9111L63.8507 39.9109C63.7844 39.2861 63.2295 38.8159 62.5777 38.833L61.8884 38.8512C61.2138 38.8693 60.6758 39.4006 60.6758 40.0521V42.3098L45.0486 42.9956C45.3918 41.8892 44.6411 41.1938 44.6411 41.1938L51.1165 38.2397C51.5121 38.0595 51.7673 37.6789 51.7782 37.2573C51.7871 36.8357 51.5487 36.4437 51.161 36.2481L50.4034 35.8628C49.8901 35.6024 49.2848 35.568 48.7438 35.7683C46.3581 36.6506 39.3338 39.3128 32.1602 42.6284C21.5614 43.3457 9.78469 45.3326 6.95203 47.0924C4.11837 48.8532 3.84539 51.0299 4.05507 53.2886C4.36069 56.5651 6.9273 59.2263 10.2931 59.7538L14.9347 60.4825L15.0811 60.4816C14.3403 59.4619 13.8369 58.2639 13.6668 56.9581C13.6242 56.6318 13.5955 56.3018 13.5955 55.9632C13.5955 51.6032 17.2739 48.0548 21.7968 48.0548C26.3198 48.0548 30.0001 51.6032 30.0001 55.9632C30.0001 56.1873 29.9833 56.4115 29.9665 56.6299C29.8448 58.0016 29.3493 59.2702 28.5907 60.3509L72.5722 59.9245L73.1755 59.9035C72.6454 59.0165 72.2824 58.0235 72.1429 56.9581C72.1004 56.6318 72.0717 56.3018 72.0717 55.9632C72.0717 51.6032 75.752 48.0548 80.273 48.0548C84.797 48.0548 88.4763 51.6032 88.4763 55.9632C88.4763 56.1873 88.4604 56.4115 88.4436 56.6299C88.3566 57.6 88.0846 58.5166 87.6662 59.3522L97.7833 58.9688L98.4608 58.2496C100.182 56.4229 101.371 54.189 101.904 51.7748C102.236 50.2811 101.693 48.7283 100.495 47.7315Z" fill="#C1C1C1"/>
</svg>
