<svg width="106" height="99" viewBox="0 0 106 99" fill="none" xmlns="http://www.w3.org/2000/svg">
<path d="M101.111 52.1309L100.442 52.0303C100.682 43.1727 99.2399 41.3887 97.6264 35.9644H98.514C98.9355 35.9644 99.2754 35.6348 99.2754 35.2291V34.3846C99.2754 33.979 98.9336 33.6503 98.514 33.6503H44.5073C43.7144 33.6503 42.9372 33.8555 42.2555 34.244L25.8871 43.5689C25.8871 43.5689 9.50105 44.2063 6.96162 46.6297C5.67812 47.8542 4.51775 50.27 4.09418 53.0581C3.67061 55.8453 4.77681 58.8168 5.40526 59.4581C6.0347 60.0993 7.04338 60.4061 7.04338 60.4061L7.44331 61.1385C7.70139 61.6097 8.21164 61.8995 8.76424 61.8862L11.3982 61.8254V54.8118C11.3982 52.092 13.6875 49.8833 16.5096 49.8833H23.5024C25.9758 49.8833 27.9823 51.8165 27.9823 54.2047V61.4359L28.1015 61.433L70.8679 60.7994L71.4835 60.8593V54.8108C71.4835 52.091 73.7728 49.8824 76.5939 49.8824H83.5887C86.0631 49.8824 88.0676 51.8156 88.0676 54.2038V62.1104L93.969 60.902C94.2793 60.8384 94.5452 60.6398 94.6871 60.3643L95.1185 59.5359L101.087 58.7826C101.609 58.7171 102 58.2867 102 57.7776V53.1294C101.998 52.6335 101.622 52.2088 101.111 52.1309ZM49.7398 44.0239C49.6088 44.1588 49.4256 44.2358 49.2325 44.2358H36.2054C36.2054 44.2358 37.0053 43.8396 37.4239 43.2744C37.8435 42.7111 37.6111 41.3764 37.1402 40.9261C36.7078 40.5138 35.838 40.2335 35.838 40.2335L42.3895 36.3434C42.8091 36.0936 43.2918 35.9625 43.7853 35.9625H49.3291C49.5143 35.9625 49.6916 36.0337 49.8216 36.161C49.9516 36.2883 50.0235 36.4593 50.0206 36.6389L49.925 43.5204C49.9378 43.7066 49.8718 43.8881 49.7398 44.0239ZM66.1013 43.4653C65.6639 43.9774 65.0148 44.2795 64.3253 44.2947L53.8987 44.5132C53.7125 44.517 53.5312 44.4495 53.3983 44.3241C53.2643 44.1978 53.1894 44.0249 53.1894 43.8453V36.6303C53.1894 36.2617 53.4987 35.9634 53.8809 35.9634H65.4531C65.8117 35.9634 66.1102 36.2266 66.1417 36.5714L66.6086 41.6281C66.7238 42.2826 66.5387 42.9543 66.1013 43.4653ZM96.9458 43.471C96.8847 43.5708 96.7734 43.6306 96.6532 43.6316L75.4729 43.7855C74.5559 43.7921 73.7009 43.3409 73.2093 42.5933L70.9891 36.864C70.9093 36.6588 70.9388 36.4299 71.0679 36.2503C71.1979 36.0708 71.4107 35.9634 71.6362 35.9634H94.0419C94.3433 35.9634 94.6073 36.1496 94.7009 36.4251L96.9546 43.1452C97.0118 43.2487 97.0078 43.3722 96.9458 43.471Z" fill="#C1C1C1"/>
<path d="M19.6869 51.3072C15.5152 51.3072 12.1287 54.5684 12.1287 58.5954C12.1287 58.9079 12.1553 59.21 12.1947 59.513C12.6645 63.1058 15.8354 65.8864 19.6859 65.8864C23.6477 65.8864 26.8865 62.9548 27.2155 59.2176C27.2342 59.0095 27.248 58.8053 27.248 58.5954C27.249 54.5684 23.8644 51.3072 19.6869 51.3072ZM15.9014 55.8499L17.4459 57.3347C17.3247 57.5371 17.2282 57.7508 17.1711 57.9788H14.9971C15.1094 57.1828 15.4246 56.4589 15.9014 55.8499ZM14.9892 59.2404H17.1799C17.242 59.4627 17.3316 59.6764 17.4548 59.8731L15.9073 61.3617C15.4305 60.7565 15.1054 60.0308 14.9892 59.2404ZM19.0328 63.1239C18.2162 63.0184 17.4705 62.7078 16.8411 62.2499L18.3787 60.766C18.5787 60.88 18.8023 60.9627 19.0328 61.0225V63.1239ZM19.0328 56.172C18.7974 56.2309 18.5738 56.323 18.3649 56.4399L16.8273 54.9551C17.4587 54.4905 18.2093 54.1837 19.0318 54.0726L19.0328 56.172ZM20.3409 54.0735C21.1683 54.1837 21.9189 54.4896 22.5513 54.9579L21.0117 56.4408C20.8059 56.3249 20.5803 56.2309 20.3399 56.1739L20.3409 54.0735ZM20.3409 63.1239V61.0216C20.5744 60.9627 20.796 60.88 20.9999 60.7641L22.5356 62.2499C21.9071 62.7068 21.1615 63.0165 20.3409 63.1239ZM23.4743 61.3655L21.9258 59.8712C22.044 59.6764 22.1445 59.4665 22.2056 59.2404H24.3766C24.2624 60.0308 23.954 60.7613 23.4743 61.3655ZM22.2056 57.9788C22.1485 57.7518 22.0539 57.5371 21.9347 57.3347L23.4753 55.8499C23.954 56.4617 24.2692 57.1828 24.3815 57.9788H22.2056Z" fill="#C1C1C1"/>
<path d="M79.7721 51.3072C75.5995 51.3072 72.2119 54.5684 72.2119 58.5954C72.2119 58.9079 72.2375 59.21 72.2789 59.513C72.7478 63.1058 75.9196 65.8864 79.7701 65.8864C83.7309 65.8864 86.9697 62.9548 87.2987 59.2176C87.3184 59.0095 87.3312 58.8053 87.3312 58.5954C87.3332 54.5684 83.9506 51.3072 79.7721 51.3072ZM75.9866 55.8499L77.5291 57.3347C77.408 57.5371 77.3124 57.7508 77.2553 57.9788H75.0823C75.1936 57.1828 75.5088 56.4589 75.9866 55.8499ZM75.0734 59.2404H77.2642C77.3262 59.4627 77.4149 59.6764 77.538 59.8731L75.9925 61.3617C75.5147 60.7565 75.1897 60.0308 75.0734 59.2404ZM79.117 63.1239C78.2994 63.0184 77.5538 62.7078 76.9243 62.2499L78.463 60.766C78.6629 60.88 78.8875 60.9627 79.117 61.0225V63.1239ZM79.117 56.172C78.8826 56.2309 78.658 56.323 78.4482 56.4399L76.9105 54.9551C77.541 54.4905 78.2916 54.1837 79.1151 54.0726L79.117 56.172ZM80.4271 54.0735C81.2536 54.1837 82.0042 54.4896 82.6366 54.9579L81.0969 56.4408C80.8911 56.3249 80.6655 56.2309 80.4261 56.1739L80.4271 54.0735ZM80.4271 63.1239V61.0216C80.6586 60.9627 80.8812 60.88 81.0851 60.7641L82.6208 62.2499C81.9914 62.7068 81.2467 63.0165 80.4271 63.1239ZM83.5595 61.3655L82.0101 59.8712C82.1283 59.6764 82.2297 59.4665 82.2908 59.2404H84.4618C84.3476 60.0308 84.0383 60.7613 83.5595 61.3655ZM82.2908 57.9788C82.2327 57.7518 82.1381 57.5371 82.0209 57.3347L83.5605 55.8499C84.0373 56.4617 84.3545 57.1828 84.4668 57.9788H82.2908Z" fill="#C1C1C1"/>
</svg>
