<svg width="106" height="99" viewBox="0 0 106 99" fill="none" xmlns="http://www.w3.org/2000/svg">
<path d="M22.2992 55.0078C18.1546 55.0477 14.8262 58.3157 14.8656 62.3146C14.8685 62.6245 14.8981 62.9268 14.9405 63.2253C15.4412 66.7898 18.6169 69.5207 22.4422 69.4846C26.3729 69.4504 29.5604 66.5094 29.8502 62.7966C29.8679 62.5931 29.8788 62.3869 29.8768 62.1787C29.8384 58.1788 26.4458 54.9707 22.2992 55.0078ZM21.6773 57.7634L21.698 59.8432C21.4634 59.905 21.2426 59.9972 21.0366 60.1189L19.4931 58.6588C20.117 58.1931 20.8592 57.8803 21.6773 57.7634ZM18.5834 59.5533L20.1318 61.0152C20.0116 61.2158 19.9219 61.4287 19.8647 61.655L17.7082 61.6749C17.8107 60.885 18.1172 60.1636 18.5834 59.5533ZM17.7111 62.9268L19.8854 62.9068C19.9475 63.1283 20.0412 63.3393 20.1634 63.5323L18.6415 65.0256C18.1655 64.4277 17.8333 63.7129 17.7111 62.9268ZM19.5799 65.8972L21.0909 64.4125C21.2919 64.5227 21.5147 64.6064 21.7443 64.6615L21.765 66.748C20.9538 66.6482 20.2077 66.3478 19.5799 65.8972ZM27.0254 61.5913L24.8658 61.6112C24.8047 61.3841 24.7081 61.174 24.5879 60.9753L26.1048 59.4858C26.5848 60.0856 26.9041 60.8023 27.0254 61.5913ZM22.9754 57.7511C23.7964 57.8518 24.5445 58.1531 25.1763 58.6037L23.6634 60.0932C23.4564 59.9763 23.2336 59.8898 22.9961 59.8328L22.9754 57.7511ZM23.0641 66.7347L23.0434 64.6501C23.274 64.5902 23.4938 64.5047 23.6949 64.3868L25.2345 65.8488C24.6135 66.3069 23.8772 66.6225 23.0641 66.7347ZM26.158 64.9638L24.6027 63.4943C24.72 63.2984 24.8185 63.0874 24.8767 62.8621L27.0332 62.8422C26.9278 63.6283 26.6262 64.3555 26.158 64.9638Z" fill="#C1C1C1"/>
<path d="M85.0844 55.0078C80.9398 55.0477 77.6113 58.3157 77.6497 62.3146C77.6537 62.6245 77.6823 62.9268 77.7256 63.2253C78.2254 66.7898 81.4021 69.5207 85.2273 69.4846C89.157 69.4504 92.3456 66.5094 92.6363 62.7966C92.6541 62.5931 92.6639 62.3869 92.662 62.1787C92.6235 58.1788 89.231 54.9707 85.0844 55.0078ZM84.4625 57.7634L84.4832 59.8432C84.2476 59.905 84.0268 59.9972 83.8208 60.1189L82.2783 58.6588C82.9012 58.1931 83.6444 57.8803 84.4625 57.7634ZM81.3695 59.5533L82.916 61.0152C82.7967 61.2158 82.708 61.4287 82.6489 61.655L80.4923 61.6749C80.5958 60.885 80.9023 60.1636 81.3695 59.5533ZM80.4963 62.9268L82.6696 62.9068C82.7317 63.1283 82.8253 63.3393 82.9485 63.5323L81.4257 65.0256C80.9487 64.4277 80.6195 63.7129 80.4963 62.9268ZM82.364 65.8972L83.876 64.4125C84.0771 64.5227 84.3008 64.6064 84.5285 64.6615L84.5492 66.748C83.738 66.6482 82.9939 66.3478 82.364 65.8972ZM89.8105 61.5913L87.652 61.6112C87.5899 61.3841 87.4943 61.174 87.374 60.9753L88.8899 59.4858C89.3709 60.0856 89.6893 60.8023 89.8105 61.5913ZM85.7625 57.7511C86.5826 57.8518 87.3307 58.1531 87.9615 58.6037L86.4485 60.0932C86.2425 59.9763 86.0188 59.8898 85.7822 59.8328L85.7625 57.7511ZM85.8492 66.7347L85.8286 64.6501C86.0582 64.5902 86.279 64.5047 86.4791 64.3868L88.0186 65.8488C87.3996 66.3069 86.6634 66.6225 85.8492 66.7347ZM88.9422 64.9638L87.3888 63.4943C87.5041 63.2984 87.6047 63.0874 87.6618 62.8621L89.8184 62.8422C89.712 63.6283 89.4113 64.3555 88.9422 64.9638Z" fill="#C1C1C1"/>
<path d="M101.18 58.2441L100.277 57.9238C100.277 57.9238 100.293 37.2599 95.5971 31.0262C94.7987 29.9663 60.0117 27.8808 47.362 32.8199C42.1628 34.8493 26.2537 45.2112 26.2537 45.2112C26.2537 45.2112 12.7929 47.2301 8.58419 49.7253C6.71345 51.1416 5.58392 54.0617 5.58392 54.0617L4.44452 55.2375C4.15869 55.5341 4 55.921 4 56.3249V58.2907C4 58.7992 4.42875 59.2136 4.95607 59.2136V62.647C4.78358 62.647 4.62686 62.7449 4.55491 62.8932C4.48395 63.0434 4.48888 63.2392 4.61996 63.3485C5.00436 63.666 6.87214 63.8998 8.26682 64.0567C9.55603 64.1993 13.7203 64.5985 13.7203 64.5985C13.609 64.2145 13.5143 63.8238 13.4562 63.4189C13.4 63.0282 13.3714 62.6708 13.3685 62.3295C13.3212 57.5445 17.3219 53.613 22.2845 53.5655C27.2906 53.5655 31.3297 57.4238 31.3741 62.166C31.376 62.417 31.3632 62.666 31.3435 62.9113C31.3021 63.4407 31.2065 63.955 31.0715 64.453L76.3407 63.9283C76.3062 63.7582 76.2678 63.5919 76.2431 63.4189C76.186 63.0282 76.1574 62.6708 76.1544 62.3295C76.1071 57.5445 80.1068 53.613 85.0695 53.5655C90.0765 53.5655 94.1147 57.4238 94.159 62.166C94.161 62.417 94.1482 62.666 94.1285 62.9113C94.1078 63.1784 94.0723 63.4407 94.027 63.7012L99.8324 63.2268C100.868 63.1422 101.692 62.3609 101.796 61.3657L101.994 59.5017C102.05 58.9522 101.717 58.4352 101.18 58.2441ZM55.0776 44.5629C54.9978 45.0258 54.5808 45.3652 54.0969 45.3652H39.679V43.7692C39.679 42.735 38.929 41.8434 37.8812 41.6276L38.0172 40.0307C38.0172 40.0307 44.5323 35.1791 55.5379 35.0185C55.8326 35.0137 56.1135 35.1363 56.3057 35.3521C56.4979 35.5679 56.5827 35.8549 56.5324 36.1344L55.0776 44.5629Z" fill="#C1C1C1"/>
</svg>
