<svg width="64" height="64" viewBox="0 0 64 64" fill="none" xmlns="http://www.w3.org/2000/svg">
<g clip-path="url(#clip0)">
<path d="M63.9929 33.1805L63.6272 36.6691C63.6156 36.7798 63.5898 36.8839 63.5526 36.9791C63.2679 37.7163 62.3034 37.9941 61.6571 37.4371C61.3583 37.1799 61.0596 36.9251 60.7621 36.6756C46.4266 24.5898 33.7193 20.1992 32.16 19.6893C32.0559 19.6553 31.9443 19.6549 31.8401 19.6889C30.2531 20.2077 17.0434 24.7708 2.34207 37.437C1.61069 38.0672 0.473569 37.6286 0.371819 36.669L0.00606998 33.1804C-0.024805 32.8806 0.0536949 32.5874 0.233945 32.3469C2.50207 29.3409 18.2844 8.89455 31.5734 4.32144C31.8494 4.22644 32.1484 4.22606 32.4245 4.32106C43.3751 8.09243 56.0376 22.6612 61.4124 29.3383C62.5547 30.7571 63.3672 31.8196 63.7651 32.347C63.9453 32.5875 64.0239 32.8809 63.9929 33.1805Z" fill="#CCCCCC"/>
<path d="M63.6268 36.6692L63.5522 36.9792C63.2676 37.7163 62.3031 37.9942 61.6567 37.4372C46.9554 24.771 33.7455 20.2079 32.1586 19.6891C32.055 19.6552 31.9434 19.6552 31.8399 19.6891C30.253 20.2079 17.0432 24.771 2.34183 37.4372C1.61045 38.0674 0.473332 37.6288 0.371582 36.6692C0.371582 36.6692 22.9852 15.8857 31.9993 15.8857C41.0134 15.8857 63.6268 36.6692 63.6268 36.6692Z" fill="#A6A6A6"/>
<path d="M63.9921 33.1804L63.6263 36.669C63.6147 36.7796 63.5889 36.8837 63.5517 36.979C63.2671 37.7161 62.3026 37.994 61.6562 37.437C61.3575 37.1797 61.0587 36.925 60.7612 36.6755C61.2802 34.2056 61.4077 31.4181 61.4115 29.3381C62.5537 30.757 63.3662 31.8195 63.7641 32.3469C63.9444 32.5874 64.0231 32.8807 63.9921 33.1804Z" fill="#8C8C8C"/>
<path d="M33.8004 32.676H30.582L30.5815 32.6756V29.4606L30.582 29.4601H33.8004L33.8008 29.4606V32.6756L33.8004 32.676Z" fill="#FCEE21"/>
<path d="M19.6175 17.9755C19.4745 18.0477 19.5655 18.2637 19.7171 18.2119C22.3146 17.3269 27.2711 15.8854 32.0007 15.8854C36.7151 15.8854 41.5727 17.3175 44.1263 18.2033C44.2777 18.2558 44.3703 18.0407 44.2278 17.9677C41.3833 16.5089 35.6568 13.8273 32.0007 13.8273C28.3381 13.8273 22.5061 16.5186 19.6175 17.9755Z" fill="#8C8C8C"/>
<path d="M63.993 55.1985L63.6272 58.6871C63.6156 58.7977 63.5899 58.902 63.5526 58.9971C63.268 59.7342 62.3035 60.0121 61.6571 59.4551C61.3584 59.1978 61.0596 58.9431 60.7621 58.6936C46.4266 46.6076 33.7193 42.2171 32.16 41.7072C32.0559 41.6732 31.9443 41.6729 31.8402 41.7069C30.2532 42.2256 17.0434 46.7887 2.34206 59.4549C1.61069 60.0852 0.473564 59.6466 0.371814 58.6869L0.00631413 55.1985C-0.0245608 54.8987 0.0539391 54.6055 0.234189 54.365C2.50206 51.3588 18.2844 30.9125 31.5734 26.3393C31.8494 26.2443 32.1484 26.2439 32.4245 26.3389C43.3751 30.1103 56.0376 44.679 61.4125 51.3561C62.5547 52.775 63.3672 53.8375 63.7651 54.3648C63.9454 54.6055 64.024 54.8988 63.993 55.1985Z" fill="#CCCCCC"/>
<path d="M63.6268 58.6871L63.5522 58.9971C63.2676 59.7342 62.3031 60.0121 61.6567 59.4551C46.9554 46.7889 33.7455 42.2258 32.1586 41.707C32.055 41.6732 31.9434 41.6732 31.8399 41.707C30.253 42.2258 17.0432 46.7889 2.34183 59.4551C1.61045 60.0854 0.473332 59.6467 0.371582 58.6871C0.371582 58.6871 22.9852 37.9037 31.9993 37.9037C41.0134 37.9037 63.6268 58.6871 63.6268 58.6871Z" fill="#A6A6A6"/>
<path d="M63.9928 55.1984L63.6271 58.687C63.6154 58.7977 63.5897 58.9019 63.5524 58.997C63.2678 59.7342 62.3033 60.012 61.6569 59.455C61.3582 59.1978 61.0595 58.943 60.762 58.6935C61.281 56.2237 61.4085 53.4362 61.4122 51.3562C62.5544 52.7751 63.3669 53.8376 63.7648 54.3649C63.9452 54.6054 64.0238 54.8988 63.9928 55.1984Z" fill="#8C8C8C"/>
<path d="M19.6175 39.9936C19.4745 40.0657 19.5655 40.2817 19.7171 40.2299C22.3146 39.3449 27.2711 37.9035 32.0007 37.9035C36.7151 37.9035 41.5727 39.3356 44.1263 40.2213C44.2777 40.2738 44.3703 40.0587 44.2278 39.9857C41.3833 38.527 35.6568 35.8453 32.0007 35.8453C28.3381 35.8452 22.5061 38.5366 19.6175 39.9936Z" fill="#8C8C8C"/>
</g>
<defs>
<clipPath id="clip0">
<rect y="-0.00012207" width="64" height="64" fill="white"/>
</clipPath>
</defs>
</svg>
