<svg width="64" height="64" viewBox="0 0 64 64" fill="none" xmlns="http://www.w3.org/2000/svg">
<g clip-path="url(#clip0)">
<path d="M32 17.125C14.3251 17.125 0 23.857 0 32.1699C0 39.369 10.7432 45.3896 25.1096 46.8729C25.274 46.8899 25.4318 46.8003 25.5011 46.6508L31.6494 33.4066C31.7876 33.1089 32.2124 33.1089 32.3506 33.4066L38.4989 46.6508C38.5682 46.8003 38.726 46.8898 38.8904 46.8729C53.2567 45.3896 64 39.3691 64 32.1699C64 23.857 49.6748 17.125 32 17.125ZM45.7038 39.1428L32.2829 24.7673C32.1301 24.6036 31.87 24.6036 31.7173 24.7673L18.2962 39.1428C10.6807 38.4099 5.64587 34.243 5.64587 30.4948C5.64587 25.6578 16.4741 20.2659 32.0001 20.2659C47.5366 20.2659 58.3544 25.6578 58.3544 30.4948C58.3542 34.243 53.3193 38.4099 45.7038 39.1428Z" fill="#CCCCCC"/>
<path d="M45.589 39.1667C45.6283 39.1591 45.6667 39.1511 45.7037 39.1429L32.2829 24.7672C32.1301 24.6036 31.87 24.6036 31.7173 24.7672L30.3904 26.1885L41.1242 37.6859C42.2624 38.905 43.9489 39.4846 45.589 39.1667Z" fill="#8C8C8C"/>
<path d="M25.5647 39.5762L22.3394 46.5241C23.2459 46.659 24.1691 46.776 25.1085 46.8731C25.2727 46.8901 25.4304 46.8006 25.4997 46.6511L31.9986 32.6516L31.648 33.4069C28.8246 34.9814 26.9232 36.6497 25.5647 39.5762Z" fill="#A6A6A6"/>
<path d="M32 17.125C31.4603 17.125 30.9236 17.1315 30.3904 17.1439C47.3171 17.5379 60.7808 24.1109 60.7808 32.1699C60.7808 38.8983 51.3958 44.5964 38.44 46.5239L38.4989 46.6509C38.5683 46.8004 38.726 46.8899 38.8904 46.873C53.2568 45.3897 64 39.369 64 32.17C64 23.857 49.6748 17.125 32 17.125Z" fill="#8C8C8C"/>
</g>
<defs>
<clipPath id="clip0">
<rect width="64" height="64" fill="white"/>
</clipPath>
</defs>
</svg>
