<svg width="64" height="64" viewBox="0 0 64 64" fill="none" xmlns="http://www.w3.org/2000/svg">
<g clip-path="url(#clip0)">
<path d="M58.1838 31.7511L40.1612 0.251128C40.0727 0.0961279 39.9068 -0.00012207 39.7283 -0.00012207H24.2723C24.094 -0.00012207 23.928 0.0961279 23.8393 0.251128L5.81671 31.7511C5.72809 31.9049 5.72809 32.0949 5.81671 32.2486L23.8393 63.7486C23.8506 63.7674 23.8618 63.7861 23.8742 63.8024C23.8742 63.8036 23.8755 63.8036 23.8755 63.8036C23.9153 63.8561 23.9653 63.8986 24.0202 63.9311C24.0788 63.9661 24.1437 63.9874 24.2123 63.9949C24.2323 63.9986 24.2522 63.9999 24.2722 63.9999H39.7283C39.9067 63.9999 40.0727 63.9036 40.1612 63.7486L58.1838 32.2486C58.2725 32.0949 58.2725 31.9049 58.1838 31.7511ZM22.9735 32.2361C22.8948 32.0886 22.8948 31.9111 22.9735 31.7636L32.0003 14.9411L41.0272 31.7636C41.1058 31.9111 41.1058 32.0886 41.0272 32.2361L32.0003 49.0586L22.9735 32.2361Z" fill="#CCCCCC"/>
<path d="M39.7286 -0.00012207H36.8074L55.116 31.9999L36.8074 63.9999H39.7286C39.9075 63.9999 40.0726 63.904 40.1616 63.7485L58.1841 32.2485C58.2722 32.0945 58.2722 31.9053 58.1841 31.7513L40.1616 0.251253C40.0726 0.0957529 39.9075 -0.00012207 39.7286 -0.00012207Z" fill="#8C8C8C"/>
<path d="M39.7201 0.552378L38.4637 2.89488L33.6052 11.9499L31.9995 14.9411L22.9726 31.7636C22.8927 31.9111 22.8927 32.0886 22.9726 32.2361L31.9995 49.0586L30.3937 52.0499L25.3706 61.4124V61.4136L24.2964 63.4149L24.0194 63.9311L24.0044 63.9574C23.9645 63.9336 23.9307 63.9011 23.9045 63.8636C23.8995 63.8549 23.8945 63.8474 23.8895 63.8386L23.8384 63.7486L5.81574 32.2486C5.72711 32.0949 5.72711 31.9049 5.81574 31.7511L23.8384 0.251128C23.927 0.0961279 24.0929 -0.00012207 24.2714 -0.00012207H39.3906C39.6739 -0.00012207 39.8549 0.302378 39.7201 0.552378Z" fill="#CCCCCC"/>
<path d="M39.7201 0.552378L38.4637 2.89488L33.6052 11.9499L31.9995 14.9411L22.9726 31.7636C22.8927 31.9111 22.8927 32.0886 22.9726 32.2361L31.9995 49.0586L30.3937 52.0499L25.3706 61.4124V61.4136L24.2964 63.4149L24.0194 63.9311L24.0044 63.9574C23.9645 63.9336 23.9307 63.9011 23.9045 63.8636C23.8995 63.8549 23.8945 63.8474 23.8895 63.8386L23.8384 63.7486L5.81574 32.2486C5.72711 32.0949 5.72711 31.9049 5.81574 31.7511L23.8384 0.251128C23.927 0.0961279 24.0929 -0.00012207 24.2714 -0.00012207H39.3906C39.6739 -0.00012207 39.8549 0.302378 39.7201 0.552378Z" fill="#E3E3E3"/>
<path d="M36.8064 -0.00012207L19.7627 31.7631C19.6833 31.911 19.6833 32.0888 19.7627 32.2366L30.3944 52.0503L31.9997 49.0584L22.973 32.2366C22.8937 32.0888 22.8937 31.911 22.973 31.7631L39.7203 0.552503C39.8544 0.302628 39.6738 -0.00012207 39.3907 -0.00012207H36.8064Z" fill="#8C8C8C"/>
<path d="M44.2395 32.2361L27.1952 63.9998H24.1633C24.1072 63.9998 24.0536 63.9836 24.0073 63.9573L24.0223 63.9311L24.2993 63.4148L25.3736 61.4136V61.4123L30.3967 52.0498L32.0024 49.0586L41.0293 32.2361C41.1079 32.0886 41.1079 31.9111 41.0293 31.7636L32.0024 14.9411L33.6082 11.9498L44.2395 31.7636C44.3194 31.9111 44.3194 32.0886 44.2395 32.2361Z" fill="#A6A6A6"/>
</g>
<defs>
<clipPath id="clip0">
<rect y="-0.00012207" width="64" height="64" fill="white"/>
</clipPath>
</defs>
</svg>
