<svg width="64" height="64" viewBox="0 0 64 64" fill="none" xmlns="http://www.w3.org/2000/svg">
<path d="M0.5 31.995C0.5 14.6013 14.6098 0.5 32 0.5C49.3903 0.5 63.5 14.6013 63.5 31.995C63.5 49.3988 49.3901 63.5 32 63.5C14.6099 63.5 0.5 49.3988 0.5 31.995ZM4.0075 31.9988C4.0075 47.4361 16.5638 59.995 32 59.995C47.435 59.995 59.9925 47.4361 59.9925 31.9988C59.9925 16.5602 47.435 4.00125 32 4.00125C16.5638 4.00125 4.0075 16.5602 4.0075 31.9988Z" fill="#CCCCCC" stroke="#C1C1C1"/>
<path d="M36.8566 0.872699C51.9417 3.20961 63.4973 16.2541 63.4973 31.995C63.4973 47.7452 51.9415 60.7905 36.8563 63.1273C50.2361 59.1059 59.9899 46.6928 59.9899 31.995C59.9899 17.3055 50.2363 4.89402 36.8566 0.872699Z" fill="#8C8C8C" stroke="#C1C1C1"/>
<mask id="path-4-inside-1" fill="white">
<path d="M56.1749 45.5775C56.1736 45.58 56.1724 45.5827 56.171 45.5852L56.1697 45.5877C56.1609 45.6029 56.1456 45.6132 56.1277 45.6195H56.1265L55.8464 45.5125L32.2629 36.5818C32.0917 36.517 31.9029 36.517 31.7317 36.5818L8.15185 45.51L7.8666 45.6183C7.8501 45.6119 7.8361 45.6018 7.8271 45.5877L7.82585 45.5852C7.82335 45.5827 7.82198 45.58 7.82198 45.5763C7.81185 45.5572 7.81048 45.5355 7.81685 45.5113L8.02323 45.324L26.3704 28.7603C26.486 28.6559 26.5662 28.518 26.6 28.3659L31.8584 4.65128L31.8699 4.60166L31.903 4.44753C31.9182 4.41953 31.9386 4.39791 31.9616 4.38766C31.9719 4.38128 31.9832 4.37878 31.996 4.37878H31.9985C32.0087 4.37878 32.0201 4.38128 32.0304 4.38641C32.0546 4.39791 32.0762 4.42078 32.0915 4.45266C32.0927 4.45266 32.0927 4.45391 32.0927 4.45516L32.1246 4.59903L32.1361 4.65253L37.3932 28.3659C37.427 28.518 37.5072 28.6559 37.6229 28.7603L55.9686 45.3228C55.9699 45.3215 55.9699 45.3228 55.9711 45.324L56.1812 45.5138C56.1812 45.515 56.1812 45.515 56.1812 45.515C56.1864 45.538 56.1851 45.5597 56.1749 45.5775Z"/>
</mask>
<path d="M56.1749 45.5775C56.1736 45.58 56.1724 45.5827 56.171 45.5852L56.1697 45.5877C56.1609 45.6029 56.1456 45.6132 56.1277 45.6195H56.1265L55.8464 45.5125L32.2629 36.5818C32.0917 36.517 31.9029 36.517 31.7317 36.5818L8.15185 45.51L7.8666 45.6183C7.8501 45.6119 7.8361 45.6018 7.8271 45.5877L7.82585 45.5852C7.82335 45.5827 7.82198 45.58 7.82198 45.5763C7.81185 45.5572 7.81048 45.5355 7.81685 45.5113L8.02323 45.324L26.3704 28.7603C26.486 28.6559 26.5662 28.518 26.6 28.3659L31.8584 4.65128L31.8699 4.60166L31.903 4.44753C31.9182 4.41953 31.9386 4.39791 31.9616 4.38766C31.9719 4.38128 31.9832 4.37878 31.996 4.37878H31.9985C32.0087 4.37878 32.0201 4.38128 32.0304 4.38641C32.0546 4.39791 32.0762 4.42078 32.0915 4.45266C32.0927 4.45266 32.0927 4.45391 32.0927 4.45516L32.1246 4.59903L32.1361 4.65253L37.3932 28.3659C37.427 28.518 37.5072 28.6559 37.6229 28.7603L55.9686 45.3228C55.9699 45.3215 55.9699 45.3228 55.9711 45.324L56.1812 45.5138C56.1812 45.515 56.1812 45.515 56.1812 45.515C56.1864 45.538 56.1851 45.5597 56.1749 45.5775Z" fill="#8C8C8C"/>
<path d="M56.1749 45.5775L55.3074 45.0801L55.2932 45.1048L55.2804 45.1303L56.1749 45.5775ZM56.171 45.5852L55.2948 45.1032L55.2855 45.1201L55.2768 45.1374L56.171 45.5852ZM56.1697 45.5877L57.034 46.0906L57.0498 46.0635L57.0639 46.0354L56.1697 45.5877ZM56.1277 45.6195V46.6195H56.3007L56.4636 46.5614L56.1277 45.6195ZM56.1265 45.6195L55.7697 46.5537L55.942 46.6195H56.1265V45.6195ZM55.8464 45.5125L56.2032 44.5784L56.2005 44.5773L55.8464 45.5125ZM32.2629 36.5818L32.617 35.6466L32.6167 35.6465L32.2629 36.5818ZM31.7317 36.5818L31.3778 35.6465L31.3776 35.6466L31.7317 36.5818ZM8.15185 45.51L7.79775 44.5748L7.79704 44.5751L8.15185 45.51ZM7.8666 45.6183L7.5062 46.5511L7.8634 46.6891L8.22142 46.5532L7.8666 45.6183ZM7.8271 45.5877L6.93274 46.035L6.95592 46.0813L6.98375 46.125L7.8271 45.5877ZM7.82585 45.5852L8.72021 45.1378L8.64765 44.9927L8.53296 44.878L7.82585 45.5852ZM7.82198 45.5763H8.82198V45.3279L8.70577 45.1084L7.82198 45.5763ZM7.81685 45.5113L7.1449 44.7707L6.92515 44.9701L6.84972 45.257L7.81685 45.5113ZM8.02323 45.324L7.35312 44.5818L7.35127 44.5834L8.02323 45.324ZM26.3704 28.7603L25.7003 28.018L25.7002 28.018L26.3704 28.7603ZM26.6 28.3659L27.5762 28.5825L27.5763 28.5824L26.6 28.3659ZM31.8584 4.65128L30.8841 4.42553L30.8821 4.43481L31.8584 4.65128ZM31.8699 4.60166L32.844 4.8274L32.8458 4.81961L32.8475 4.81178L31.8699 4.60166ZM31.903 4.44753L31.0248 3.96923L30.9557 4.09613L30.9253 4.23741L31.903 4.44753ZM31.9616 4.38766L32.3687 5.30106L32.4314 5.2731L32.4897 5.23682L31.9616 4.38766ZM32.0304 4.38641L31.5831 5.28084L31.5925 5.28549L31.6019 5.28996L32.0304 4.38641ZM32.0915 4.45266L31.1894 4.88424L31.4614 5.45266H32.0915V4.45266ZM32.0927 4.45516H31.0927V4.56461L31.1164 4.67146L32.0927 4.45516ZM32.1246 4.59903L33.1023 4.38885L33.1009 4.38273L32.1246 4.59903ZM32.1361 4.65253L31.1584 4.86271L31.1598 4.86897L32.1361 4.65253ZM37.3932 28.3659L36.4169 28.5823L36.417 28.5825L37.3932 28.3659ZM37.6229 28.7603L38.293 28.018L38.2929 28.018L37.6229 28.7603ZM55.9686 45.3228L55.2985 46.065L56.0038 46.7018L56.6757 46.0299L55.9686 45.3228ZM55.9711 45.324L55.264 46.0311L55.282 46.0491L55.3009 46.0662L55.9711 45.324ZM56.1812 45.5138H57.1812V45.0694L56.8514 44.7716L56.1812 45.5138ZM56.1812 45.515H55.1812V45.6251L55.2052 45.7325L56.1812 45.515ZM55.2804 45.1303C55.2788 45.1335 55.2774 45.1364 55.2773 45.1366C55.2768 45.1375 55.2776 45.136 55.2786 45.1341C55.2804 45.1304 55.2864 45.1185 55.2948 45.1032L57.0472 46.0671C57.0569 46.0493 57.0642 46.0349 57.0674 46.0286C57.069 46.0254 57.0703 46.0226 57.0705 46.0223C57.071 46.0212 57.0702 46.0228 57.0693 46.0247L55.2804 45.1303ZM55.2768 45.1374L55.2756 45.1399L57.0639 46.0354L57.0651 46.0329L55.2768 45.1374ZM55.3054 45.0847C55.4539 44.8295 55.6721 44.7203 55.7918 44.6776L56.4636 46.5614C56.6191 46.506 56.8678 46.3763 57.034 46.0906L55.3054 45.0847ZM56.1277 44.6195H56.1265V46.6195H56.1277V44.6195ZM56.4833 44.6854L56.2032 44.5784L55.4895 46.4467L55.7697 46.5537L56.4833 44.6854ZM56.2005 44.5773L32.617 35.6466L31.9087 37.517L55.4922 46.4477L56.2005 44.5773ZM32.6167 35.6465C32.2176 35.4955 31.777 35.4955 31.3778 35.6465L32.0856 37.5171C32.0287 37.5386 31.9659 37.5386 31.909 37.5171L32.6167 35.6465ZM31.3776 35.6466L7.79775 44.5748L8.50596 46.4452L32.0858 37.517L31.3776 35.6466ZM7.79704 44.5751L7.51179 44.6833L8.22142 46.5532L8.50667 46.445L7.79704 44.5751ZM8.227 44.6855C8.36118 44.7373 8.53975 44.8451 8.67046 45.0503L6.98375 46.125C7.13246 46.3584 7.33903 46.4865 7.5062 46.5511L8.227 44.6855ZM8.72146 45.1403L8.72021 45.1378L6.9315 46.0325L6.93274 46.035L8.72146 45.1403ZM8.53296 44.878C8.59046 44.9355 8.67069 45.0301 8.73273 45.166C8.79722 45.3074 8.82198 45.4492 8.82198 45.5763H6.82198C6.82198 45.8942 6.96639 46.1399 7.11875 46.2923L8.53296 44.878ZM8.70577 45.1084C8.83845 45.359 8.8261 45.6053 8.78399 45.7655L6.84972 45.257C6.79486 45.4657 6.78526 45.7553 6.93819 46.0442L8.70577 45.1084ZM8.48881 46.2519L8.69518 46.0646L7.35127 44.5834L7.1449 44.7707L8.48881 46.2519ZM8.69334 46.0663L27.0405 29.5025L25.7002 28.018L7.35312 44.5818L8.69334 46.0663ZM27.0404 29.5026C27.3104 29.2589 27.4976 28.9372 27.5762 28.5825L25.6237 28.1493C25.6349 28.0989 25.6615 28.053 25.7003 28.018L27.0404 29.5026ZM27.5763 28.5824L32.8346 4.86776L30.8821 4.43481L25.6237 28.1494L27.5763 28.5824ZM32.8325 4.87703L32.844 4.8274L30.8957 4.37591L30.8842 4.42554L32.8325 4.87703ZM32.8475 4.81178L32.8807 4.65766L30.9253 4.23741L30.8922 4.39153L32.8475 4.81178ZM32.7812 4.92584C32.7317 5.01671 32.6115 5.19284 32.3687 5.30106L31.5545 3.47426C31.2657 3.60298 31.1048 3.82236 31.0248 3.96923L32.7812 4.92584ZM32.4897 5.23682C32.3033 5.35277 32.1192 5.37878 31.996 5.37878V3.37878C31.8473 3.37878 31.6404 3.4098 31.4335 3.5385L32.4897 5.23682ZM31.996 5.37878H31.9985V3.37878H31.996V5.37878ZM31.9985 5.37878C31.856 5.37878 31.714 5.34628 31.5831 5.28084L32.4776 3.49198C32.3262 3.41629 32.1614 3.37878 31.9985 3.37878V5.37878ZM31.6019 5.28996C31.3719 5.18092 31.2482 5.0072 31.1894 4.88424L32.9936 4.02108C32.9042 3.83437 32.7373 3.6149 32.4588 3.48286L31.6019 5.28996ZM32.0915 5.45266C31.9189 5.45266 31.6887 5.40616 31.4777 5.2418C31.2754 5.08421 31.184 4.89055 31.1435 4.76848C31.1049 4.65227 31.0973 4.55617 31.0949 4.51993C31.0923 4.48129 31.0927 4.44729 31.0927 4.45516H33.0927C33.0927 4.46241 33.0931 4.42778 33.0905 4.38855C33.0881 4.35173 33.0804 4.25508 33.0417 4.1384C33.001 4.01586 32.9094 3.82181 32.7067 3.66395C32.4953 3.49932 32.2647 3.45266 32.0915 3.45266V5.45266ZM31.1164 4.67146L31.1483 4.81534L33.1009 4.38273L33.0691 4.23885L31.1164 4.67146ZM31.1469 4.80921L31.1584 4.86271L33.1138 4.44236L33.1023 4.38886L31.1469 4.80921ZM31.1598 4.86897L36.4169 28.5823L38.3695 28.1495L33.1124 4.43609L31.1598 4.86897ZM36.417 28.5825C36.4956 28.9371 36.6828 29.2588 36.9528 29.5026L38.2929 28.018C38.3317 28.053 38.3583 28.0989 38.3695 28.1493L36.417 28.5825ZM36.9527 29.5025L55.2985 46.065L56.6387 44.5805L38.293 28.018L36.9527 29.5025ZM56.6757 46.0299C56.6587 46.0469 56.4778 46.2405 56.165 46.3029C55.9726 46.3413 55.7717 46.3225 55.5879 46.2466C55.4226 46.1783 55.3151 46.082 55.262 46.0288C55.1859 45.9526 55.1158 45.8472 55.1563 45.904C55.1671 45.9191 55.2051 45.9722 55.264 46.0311L56.6782 44.6169C56.7365 44.6752 56.774 44.7278 56.7844 44.7423C56.8245 44.7985 56.7541 44.6926 56.6777 44.6161C56.6245 44.5627 56.5168 44.4664 56.3514 44.398C56.1674 44.322 55.9663 44.3032 55.7737 44.3416C55.4605 44.4041 55.2791 44.5981 55.2615 44.6157L56.6757 46.0299ZM55.3009 46.0662L55.511 46.256L56.8514 44.7716L56.6413 44.5819L55.3009 46.0662ZM55.1812 45.5138C55.1812 45.5138 55.1812 45.5138 55.1812 45.5138C55.1812 45.5138 55.1812 45.5138 55.1812 45.5138V45.5138C55.1812 45.5138 55.1812 45.5138 55.1812 45.5138C55.1812 45.5138 55.1812 45.5138 55.1812 45.5138C55.1812 45.5138 55.1812 45.5138 55.1812 45.5138C55.1812 45.5138 55.1812 45.5138 55.1812 45.5138C55.1812 45.5138 55.1812 45.5138 55.1812 45.5138C55.1812 45.5138 55.1812 45.5138 55.1812 45.5138C55.1812 45.5138 55.1812 45.5138 55.1812 45.5139V45.5139C55.1812 45.5139 55.1812 45.5139 55.1812 45.5139C55.1812 45.5139 55.1812 45.5139 55.1812 45.5139C55.1812 45.5139 55.1812 45.5139 55.1812 45.5139C55.1812 45.5139 55.1812 45.5139 55.1812 45.5139V45.5139C55.1812 45.5139 55.1812 45.5139 55.1812 45.5139C55.1812 45.5139 55.1812 45.5139 55.1812 45.5139C55.1812 45.5139 55.1812 45.5139 55.1812 45.5139C55.1812 45.5139 55.1812 45.5139 55.1812 45.5139V45.5139C55.1812 45.5139 55.1812 45.5139 55.1812 45.5139C55.1812 45.5139 55.1812 45.5139 55.1812 45.5139C55.1812 45.5139 55.1812 45.5139 55.1812 45.5139V45.514C55.1812 45.514 55.1812 45.514 55.1812 45.514C55.1812 45.514 55.1812 45.514 55.1812 45.514C55.1812 45.514 55.1812 45.514 55.1812 45.514V45.514C55.1812 45.514 55.1812 45.514 55.1812 45.514C55.1812 45.514 55.1812 45.514 55.1812 45.514V45.514C55.1812 45.514 55.1812 45.514 55.1812 45.514C55.1812 45.514 55.1812 45.514 55.1812 45.514V45.514C55.1812 45.514 55.1812 45.514 55.1812 45.514C55.1812 45.514 55.1812 45.514 55.1812 45.514V45.514C55.1812 45.514 55.1812 45.514 55.1812 45.514C55.1812 45.514 55.1812 45.514 55.1812 45.514V45.5141C55.1812 45.5141 55.1812 45.5141 55.1812 45.5141C55.1812 45.5141 55.1812 45.5141 55.1812 45.5141V45.5141C55.1812 45.5141 55.1812 45.5141 55.1812 45.5141V45.5141C55.1812 45.5141 55.1812 45.5141 55.1812 45.5141C55.1812 45.5141 55.1812 45.5141 55.1812 45.5141V45.5141C55.1812 45.5141 55.1812 45.5141 55.1812 45.5141V45.5141C55.1812 45.5141 55.1812 45.5141 55.1812 45.5141V45.5141C55.1812 45.5141 55.1812 45.5141 55.1812 45.5141V45.5141C55.1812 45.5141 55.1812 45.5141 55.1812 45.5141V45.5141C55.1812 45.5142 55.1812 45.5142 55.1812 45.5142V45.5142C55.1812 45.5142 55.1812 45.5142 55.1812 45.5142V45.5142C55.1812 45.5142 55.1812 45.5142 55.1812 45.5142V45.5142C55.1812 45.5142 55.1812 45.5142 55.1812 45.5142V45.5142C55.1812 45.5142 55.1812 45.5142 55.1812 45.5142V45.5142C55.1812 45.5142 55.1812 45.5142 55.1812 45.5142V45.5142C55.1812 45.5142 55.1812 45.5142 55.1812 45.5142V45.5142V45.5142C55.1812 45.5142 55.1812 45.5142 55.1812 45.5142V45.5142C55.1812 45.5142 55.1812 45.5142 55.1812 45.5143V45.5143C55.1812 45.5143 55.1812 45.5143 55.1812 45.5143C55.1812 45.5143 55.1812 45.5143 55.1812 45.5143V45.5143C55.1812 45.5143 55.1812 45.5143 55.1812 45.5143C55.1812 45.5143 55.1812 45.5143 55.1812 45.5143V45.5143C55.1812 45.5143 55.1812 45.5143 55.1812 45.5143V45.5143V45.5143C55.1812 45.5143 55.1812 45.5143 55.1812 45.5143V45.5143V45.5143C55.1812 45.5143 55.1812 45.5143 55.1812 45.5143V45.5143V45.5143C55.1812 45.5143 55.1812 45.5143 55.1812 45.5143C55.1812 45.5143 55.1812 45.5143 55.1812 45.5143V45.5143C55.1812 45.5144 55.1812 45.5144 55.1812 45.5144C55.1812 45.5144 55.1812 45.5144 55.1812 45.5144V45.5144V45.5144C55.1812 45.5144 55.1812 45.5144 55.1812 45.5144C55.1812 45.5144 55.1812 45.5144 55.1812 45.5144V45.5144V45.5144C55.1812 45.5144 55.1812 45.5144 55.1812 45.5144C55.1812 45.5144 55.1812 45.5144 55.1812 45.5144C55.1812 45.5144 55.1812 45.5144 55.1812 45.5144V45.5144V45.5144C55.1812 45.5144 55.1812 45.5144 55.1812 45.5144C55.1812 45.5144 55.1812 45.5144 55.1812 45.5144C55.1812 45.5144 55.1812 45.5144 55.1812 45.5144V45.5144V45.5144C55.1812 45.5144 55.1812 45.5144 55.1812 45.5144C55.1812 45.5144 55.1812 45.5144 55.1812 45.5144C55.1812 45.5144 55.1812 45.5144 55.1812 45.5144C55.1812 45.5144 55.1812 45.5144 55.1812 45.5145V45.5145V45.5145V45.5145C55.1812 45.5145 55.1812 45.5145 55.1812 45.5145C55.1812 45.5145 55.1812 45.5145 55.1812 45.5145C55.1812 45.5145 55.1812 45.5145 55.1812 45.5145C55.1812 45.5145 55.1812 45.5145 55.1812 45.5145C55.1812 45.5145 55.1812 45.5145 55.1812 45.5145V45.5145V45.5145V45.5145V45.5145C55.1812 45.5145 55.1812 45.5145 55.1812 45.5145C55.1812 45.5145 55.1812 45.5145 55.1812 45.5145C55.1812 45.5145 55.1812 45.5145 55.1812 45.5145C55.1812 45.5145 55.1812 45.5145 55.1812 45.5145C55.1812 45.5145 55.1812 45.5145 55.1812 45.5145C55.1812 45.5145 55.1812 45.5145 55.1812 45.5145C55.1812 45.5145 55.1812 45.5145 55.1812 45.5145C55.1812 45.5145 55.1812 45.5145 55.1812 45.5145C55.1812 45.5145 55.1812 45.5145 55.1812 45.5145C55.1812 45.5145 55.1812 45.5145 55.1812 45.5145C55.1812 45.5145 55.1812 45.5145 55.1812 45.5145C55.1812 45.5145 55.1812 45.5145 55.1812 45.5145C55.1812 45.5145 55.1812 45.5145 55.1812 45.5146C55.1812 45.5146 55.1812 45.5146 55.1812 45.5146C55.1812 45.5146 55.1812 45.5146 55.1812 45.5146C55.1812 45.5146 55.1812 45.5146 55.1812 45.5146C55.1812 45.5146 55.1812 45.5146 55.1812 45.5146C55.1812 45.5146 55.1812 45.5146 55.1812 45.5146C55.1812 45.5146 55.1812 45.5146 55.1812 45.5146C55.1812 45.5146 55.1812 45.5146 55.1812 45.5146C55.1812 45.5146 55.1812 45.5146 55.1812 45.5146C55.1812 45.5146 55.1812 45.5146 55.1812 45.5146C55.1812 45.5146 55.1812 45.5146 55.1812 45.5146C55.1812 45.5146 55.1812 45.5146 55.1812 45.5146C55.1812 45.5146 55.1812 45.5146 55.1812 45.5146C55.1812 45.5146 55.1812 45.5146 55.1812 45.5146C55.1812 45.5146 55.1812 45.5146 55.1812 45.5146C55.1812 45.5146 55.1812 45.5146 55.1812 45.5146C55.1812 45.5146 55.1812 45.5146 55.1812 45.5146V45.5146V45.5146V45.5146C55.1812 45.5146 55.1812 45.5146 55.1812 45.5146C55.1812 45.5146 55.1812 45.5146 55.1812 45.5146C55.1812 45.5146 55.1812 45.5146 55.1812 45.5146C55.1812 45.5146 55.1812 45.5146 55.1812 45.5146C55.1812 45.5146 55.1812 45.5146 55.1812 45.5146C55.1812 45.5146 55.1812 45.5146 55.1812 45.5146V45.5147V45.5147C55.1812 45.5147 55.1812 45.5147 55.1812 45.5147C55.1812 45.5147 55.1812 45.5147 55.1812 45.5147C55.1812 45.5147 55.1812 45.5147 55.1812 45.5147V45.5147V45.5147C55.1812 45.5147 55.1812 45.5147 55.1812 45.5147C55.1812 45.5147 55.1812 45.5147 55.1812 45.5147C55.1812 45.5147 55.1812 45.5147 55.1812 45.5147V45.5147C55.1812 45.5147 55.1812 45.5147 55.1812 45.5147C55.1812 45.5147 55.1812 45.5147 55.1812 45.5147C55.1812 45.5147 55.1812 45.5147 55.1812 45.5147V45.5147C55.1812 45.5147 55.1812 45.5147 55.1812 45.5147C55.1812 45.5147 55.1812 45.5147 55.1812 45.5147V45.5147C55.1812 45.5147 55.1812 45.5147 55.1812 45.5147C55.1812 45.5147 55.1812 45.5147 55.1812 45.5147V45.5147C55.1812 45.5147 55.1812 45.5147 55.1812 45.5147C55.1812 45.5147 55.1812 45.5147 55.1812 45.5147V45.5147C55.1812 45.5147 55.1812 45.5147 55.1812 45.5147C55.1812 45.5147 55.1812 45.5147 55.1812 45.5147V45.5148C55.1812 45.5148 55.1812 45.5148 55.1812 45.5148V45.5148C55.1812 45.5148 55.1812 45.5148 55.1812 45.5148V45.5148C55.1812 45.5148 55.1812 45.5148 55.1812 45.5148V45.5148C55.1812 45.5148 55.1812 45.5148 55.1812 45.5148V45.5148C55.1812 45.5148 55.1812 45.5148 55.1812 45.5148V45.5148C55.1812 45.5148 55.1812 45.5148 55.1812 45.5148V45.5148C55.1812 45.5148 55.1812 45.5148 55.1812 45.5148C55.1812 45.5148 55.1812 45.5148 55.1812 45.5148V45.5148C55.1812 45.5148 55.1812 45.5148 55.1812 45.5148C55.1812 45.5148 55.1812 45.5148 55.1812 45.5148V45.5148C55.1812 45.5148 55.1812 45.5148 55.1812 45.5148C55.1812 45.5148 55.1812 45.5148 55.1812 45.5148C55.1812 45.5148 55.1812 45.5148 55.1812 45.5148V45.5148V45.5148C55.1812 45.5148 55.1812 45.5148 55.1812 45.5148C55.1812 45.5148 55.1812 45.5148 55.1812 45.5148C55.1812 45.5148 55.1812 45.5148 55.1812 45.5149C55.1812 45.5149 55.1812 45.5149 55.1812 45.5149C55.1812 45.5149 55.1812 45.5149 55.1812 45.5149C55.1812 45.5149 55.1812 45.5149 55.1812 45.5149C55.1812 45.5149 55.1812 45.5149 55.1812 45.5149C55.1812 45.5149 55.1812 45.5149 55.1812 45.5149C55.1812 45.5149 55.1812 45.5149 55.1812 45.5149C55.1812 45.5149 55.1812 45.5149 55.1812 45.5149C55.1812 45.5149 55.1812 45.5149 55.1812 45.5149C55.1812 45.5149 55.1812 45.5149 55.1812 45.5149V45.5149V45.5149C55.1812 45.5149 55.1812 45.5149 55.1812 45.5149C55.1812 45.5149 55.1812 45.5149 55.1812 45.5149V45.5149C55.1812 45.5149 55.1812 45.5149 55.1812 45.5149V45.5149C55.1812 45.5149 55.1812 45.5149 55.1812 45.5149V45.5149C55.1812 45.5149 55.1812 45.5149 55.1812 45.5149C55.1812 45.5149 55.1812 45.5149 55.1812 45.5149C55.1812 45.5149 55.1812 45.5149 55.1812 45.5149V45.5149V45.5149V45.5149V45.5149C55.1812 45.5149 55.1812 45.5149 55.1812 45.5149C55.1812 45.515 55.1812 45.515 55.1812 45.515V45.515C55.1812 45.515 55.1812 45.515 55.1812 45.515V45.515V45.515V45.515V45.515C55.1812 45.515 55.1812 45.515 55.1812 45.515V45.515C55.1812 45.515 55.1812 45.515 55.1812 45.515C55.1812 45.515 55.1812 45.515 55.1812 45.515C55.1812 45.515 55.1812 45.515 55.1812 45.515V45.515C55.1812 45.515 55.1812 45.515 55.1812 45.515C55.1812 45.515 55.1812 45.515 55.1812 45.515V45.515V45.515C55.1812 45.515 55.1812 45.515 55.1812 45.515V45.515C55.1812 45.515 55.1812 45.515 55.1812 45.515C55.1812 45.515 55.1812 45.515 55.1812 45.515C55.1812 45.515 55.1812 45.515 56.1812 45.515C57.1812 45.515 57.1812 45.515 57.1812 45.515C57.1812 45.515 57.1812 45.515 57.1812 45.515C57.1812 45.515 57.1812 45.515 57.1812 45.515V45.515C57.1812 45.515 57.1812 45.515 57.1812 45.515V45.515V45.515C57.1812 45.515 57.1812 45.515 57.1812 45.515C57.1812 45.515 57.1812 45.515 57.1812 45.515V45.515C57.1812 45.515 57.1812 45.515 57.1812 45.515C57.1812 45.515 57.1812 45.515 57.1812 45.515C57.1812 45.515 57.1812 45.515 57.1812 45.515V45.515C57.1812 45.515 57.1812 45.515 57.1812 45.515V45.515V45.515V45.515V45.515C57.1812 45.515 57.1812 45.515 57.1812 45.515V45.515C57.1812 45.515 57.1812 45.515 57.1812 45.5149C57.1812 45.5149 57.1812 45.5149 57.1812 45.5149V45.5149V45.5149V45.5149V45.5149C57.1812 45.5149 57.1812 45.5149 57.1812 45.5149C57.1812 45.5149 57.1812 45.5149 57.1812 45.5149C57.1812 45.5149 57.1812 45.5149 57.1812 45.5149V45.5149C57.1812 45.5149 57.1812 45.5149 57.1812 45.5149V45.5149C57.1812 45.5149 57.1812 45.5149 57.1812 45.5149V45.5149C57.1812 45.5149 57.1812 45.5149 57.1812 45.5149C57.1812 45.5149 57.1812 45.5149 57.1812 45.5149V45.5149V45.5149C57.1812 45.5149 57.1812 45.5149 57.1812 45.5149C57.1812 45.5149 57.1812 45.5149 57.1812 45.5149C57.1812 45.5149 57.1812 45.5149 57.1812 45.5149C57.1812 45.5149 57.1812 45.5149 57.1812 45.5149C57.1812 45.5149 57.1812 45.5149 57.1812 45.5149C57.1812 45.5149 57.1812 45.5149 57.1812 45.5149C57.1812 45.5149 57.1812 45.5149 57.1812 45.5149C57.1812 45.5149 57.1812 45.5149 57.1812 45.5149C57.1812 45.5149 57.1812 45.5149 57.1812 45.5149C57.1812 45.5148 57.1812 45.5148 57.1812 45.5148C57.1812 45.5148 57.1812 45.5148 57.1812 45.5148C57.1812 45.5148 57.1812 45.5148 57.1812 45.5148V45.5148V45.5148C57.1812 45.5148 57.1812 45.5148 57.1812 45.5148C57.1812 45.5148 57.1812 45.5148 57.1812 45.5148C57.1812 45.5148 57.1812 45.5148 57.1812 45.5148V45.5148C57.1812 45.5148 57.1812 45.5148 57.1812 45.5148C57.1812 45.5148 57.1812 45.5148 57.1812 45.5148V45.5148C57.1812 45.5148 57.1812 45.5148 57.1812 45.5148C57.1812 45.5148 57.1812 45.5148 57.1812 45.5148V45.5148C57.1812 45.5148 57.1812 45.5148 57.1812 45.5148V45.5148C57.1812 45.5148 57.1812 45.5148 57.1812 45.5148V45.5148C57.1812 45.5148 57.1812 45.5148 57.1812 45.5148V45.5148C57.1812 45.5148 57.1812 45.5148 57.1812 45.5148V45.5148C57.1812 45.5148 57.1812 45.5148 57.1812 45.5148V45.5148C57.1812 45.5148 57.1812 45.5148 57.1812 45.5148V45.5147C57.1812 45.5147 57.1812 45.5147 57.1812 45.5147C57.1812 45.5147 57.1812 45.5147 57.1812 45.5147V45.5147C57.1812 45.5147 57.1812 45.5147 57.1812 45.5147C57.1812 45.5147 57.1812 45.5147 57.1812 45.5147V45.5147C57.1812 45.5147 57.1812 45.5147 57.1812 45.5147C57.1812 45.5147 57.1812 45.5147 57.1812 45.5147V45.5147C57.1812 45.5147 57.1812 45.5147 57.1812 45.5147C57.1812 45.5147 57.1812 45.5147 57.1812 45.5147V45.5147C57.1812 45.5147 57.1812 45.5147 57.1812 45.5147C57.1812 45.5147 57.1812 45.5147 57.1812 45.5147C57.1812 45.5147 57.1812 45.5147 57.1812 45.5147V45.5147C57.1812 45.5147 57.1812 45.5147 57.1812 45.5147C57.1812 45.5147 57.1812 45.5147 57.1812 45.5147C57.1812 45.5147 57.1812 45.5147 57.1812 45.5147V45.5147V45.5147C57.1812 45.5147 57.1812 45.5147 57.1812 45.5147C57.1812 45.5147 57.1812 45.5147 57.1812 45.5147C57.1812 45.5147 57.1812 45.5147 57.1812 45.5147V45.5147V45.5146C57.1812 45.5146 57.1812 45.5146 57.1812 45.5146C57.1812 45.5146 57.1812 45.5146 57.1812 45.5146C57.1812 45.5146 57.1812 45.5146 57.1812 45.5146C57.1812 45.5146 57.1812 45.5146 57.1812 45.5146C57.1812 45.5146 57.1812 45.5146 57.1812 45.5146C57.1812 45.5146 57.1812 45.5146 57.1812 45.5146V45.5146V45.5146V45.5146C57.1812 45.5146 57.1812 45.5146 57.1812 45.5146C57.1812 45.5146 57.1812 45.5146 57.1812 45.5146C57.1812 45.5146 57.1812 45.5146 57.1812 45.5146C57.1812 45.5146 57.1812 45.5146 57.1812 45.5146C57.1812 45.5146 57.1812 45.5146 57.1812 45.5146C57.1812 45.5146 57.1812 45.5146 57.1812 45.5146C57.1812 45.5146 57.1812 45.5146 57.1812 45.5146C57.1812 45.5146 57.1812 45.5146 57.1812 45.5146C57.1812 45.5146 57.1812 45.5146 57.1812 45.5146C57.1812 45.5146 57.1812 45.5146 57.1812 45.5146C57.1812 45.5146 57.1812 45.5146 57.1812 45.5146C57.1812 45.5146 57.1812 45.5146 57.1812 45.5146C57.1812 45.5146 57.1812 45.5146 57.1812 45.5146C57.1812 45.5146 57.1812 45.5146 57.1812 45.5146C57.1812 45.5146 57.1812 45.5146 57.1812 45.5146C57.1812 45.5146 57.1812 45.5146 57.1812 45.5146C57.1812 45.5145 57.1812 45.5145 57.1812 45.5145C57.1812 45.5145 57.1812 45.5145 57.1812 45.5145C57.1812 45.5145 57.1812 45.5145 57.1812 45.5145C57.1812 45.5145 57.1812 45.5145 57.1812 45.5145C57.1812 45.5145 57.1812 45.5145 57.1812 45.5145C57.1812 45.5145 57.1812 45.5145 57.1812 45.5145C57.1812 45.5145 57.1812 45.5145 57.1812 45.5145C57.1812 45.5145 57.1812 45.5145 57.1812 45.5145C57.1812 45.5145 57.1812 45.5145 57.1812 45.5145C57.1812 45.5145 57.1812 45.5145 57.1812 45.5145C57.1812 45.5145 57.1812 45.5145 57.1812 45.5145C57.1812 45.5145 57.1812 45.5145 57.1812 45.5145C57.1812 45.5145 57.1812 45.5145 57.1812 45.5145V45.5145V45.5145V45.5145V45.5145C57.1812 45.5145 57.1812 45.5145 57.1812 45.5145C57.1812 45.5145 57.1812 45.5145 57.1812 45.5145C57.1812 45.5145 57.1812 45.5145 57.1812 45.5145C57.1812 45.5145 57.1812 45.5145 57.1812 45.5145C57.1812 45.5145 57.1812 45.5145 57.1812 45.5145V45.5145V45.5145V45.5145C57.1812 45.5144 57.1812 45.5144 57.1812 45.5144C57.1812 45.5144 57.1812 45.5144 57.1812 45.5144C57.1812 45.5144 57.1812 45.5144 57.1812 45.5144C57.1812 45.5144 57.1812 45.5144 57.1812 45.5144V45.5144V45.5144C57.1812 45.5144 57.1812 45.5144 57.1812 45.5144C57.1812 45.5144 57.1812 45.5144 57.1812 45.5144C57.1812 45.5144 57.1812 45.5144 57.1812 45.5144V45.5144V45.5144C57.1812 45.5144 57.1812 45.5144 57.1812 45.5144C57.1812 45.5144 57.1812 45.5144 57.1812 45.5144C57.1812 45.5144 57.1812 45.5144 57.1812 45.5144V45.5144V45.5144C57.1812 45.5144 57.1812 45.5144 57.1812 45.5144C57.1812 45.5144 57.1812 45.5144 57.1812 45.5144V45.5144V45.5144C57.1812 45.5144 57.1812 45.5144 57.1812 45.5144C57.1812 45.5144 57.1812 45.5144 57.1812 45.5143V45.5143C57.1812 45.5143 57.1812 45.5143 57.1812 45.5143C57.1812 45.5143 57.1812 45.5143 57.1812 45.5143V45.5143V45.5143C57.1812 45.5143 57.1812 45.5143 57.1812 45.5143V45.5143V45.5143C57.1812 45.5143 57.1812 45.5143 57.1812 45.5143V45.5143V45.5143C57.1812 45.5143 57.1812 45.5143 57.1812 45.5143V45.5143C57.1812 45.5143 57.1812 45.5143 57.1812 45.5143C57.1812 45.5143 57.1812 45.5143 57.1812 45.5143V45.5143C57.1812 45.5143 57.1812 45.5143 57.1812 45.5143C57.1812 45.5143 57.1812 45.5143 57.1812 45.5143V45.5143C57.1812 45.5142 57.1812 45.5142 57.1812 45.5142V45.5142C57.1812 45.5142 57.1812 45.5142 57.1812 45.5142V45.5142V45.5142C57.1812 45.5142 57.1812 45.5142 57.1812 45.5142V45.5142C57.1812 45.5142 57.1812 45.5142 57.1812 45.5142V45.5142C57.1812 45.5142 57.1812 45.5142 57.1812 45.5142V45.5142C57.1812 45.5142 57.1812 45.5142 57.1812 45.5142V45.5142C57.1812 45.5142 57.1812 45.5142 57.1812 45.5142V45.5142C57.1812 45.5142 57.1812 45.5142 57.1812 45.5142V45.5142C57.1812 45.5142 57.1812 45.5142 57.1812 45.5141V45.5141C57.1812 45.5141 57.1812 45.5141 57.1812 45.5141V45.5141C57.1812 45.5141 57.1812 45.5141 57.1812 45.5141V45.5141C57.1812 45.5141 57.1812 45.5141 57.1812 45.5141V45.5141C57.1812 45.5141 57.1812 45.5141 57.1812 45.5141V45.5141C57.1812 45.5141 57.1812 45.5141 57.1812 45.5141C57.1812 45.5141 57.1812 45.5141 57.1812 45.5141V45.5141C57.1812 45.5141 57.1812 45.5141 57.1812 45.5141V45.5141C57.1812 45.5141 57.1812 45.5141 57.1812 45.5141C57.1812 45.5141 57.1812 45.5141 57.1812 45.5141V45.514C57.1812 45.514 57.1812 45.514 57.1812 45.514C57.1812 45.514 57.1812 45.514 57.1812 45.514V45.514C57.1812 45.514 57.1812 45.514 57.1812 45.514C57.1812 45.514 57.1812 45.514 57.1812 45.514V45.514C57.1812 45.514 57.1812 45.514 57.1812 45.514C57.1812 45.514 57.1812 45.514 57.1812 45.514V45.514C57.1812 45.514 57.1812 45.514 57.1812 45.514C57.1812 45.514 57.1812 45.514 57.1812 45.514V45.514C57.1812 45.514 57.1812 45.514 57.1812 45.514C57.1812 45.514 57.1812 45.514 57.1812 45.514C57.1812 45.514 57.1812 45.514 57.1812 45.514V45.5139C57.1812 45.5139 57.1812 45.5139 57.1812 45.5139C57.1812 45.5139 57.1812 45.5139 57.1812 45.5139C57.1812 45.5139 57.1812 45.5139 57.1812 45.5139V45.5139C57.1812 45.5139 57.1812 45.5139 57.1812 45.5139C57.1812 45.5139 57.1812 45.5139 57.1812 45.5139C57.1812 45.5139 57.1812 45.5139 57.1812 45.5139C57.1812 45.5139 57.1812 45.5139 57.1812 45.5139V45.5139C57.1812 45.5139 57.1812 45.5139 57.1812 45.5139C57.1812 45.5139 57.1812 45.5139 57.1812 45.5139C57.1812 45.5139 57.1812 45.5139 57.1812 45.5139C57.1812 45.5139 57.1812 45.5139 57.1812 45.5139V45.5139C57.1812 45.5138 57.1812 45.5138 57.1812 45.5138C57.1812 45.5138 57.1812 45.5138 57.1812 45.5138C57.1812 45.5138 57.1812 45.5138 57.1812 45.5138C57.1812 45.5138 57.1812 45.5138 57.1812 45.5138C57.1812 45.5138 57.1812 45.5138 57.1812 45.5138C57.1812 45.5138 57.1812 45.5138 57.1812 45.5138C57.1812 45.5138 57.1812 45.5138 57.1812 45.5138V45.5138C57.1812 45.5138 57.1812 45.5138 57.1812 45.5138C57.1812 45.5138 57.1812 45.5138 57.1812 45.5138H55.1812ZM55.2052 45.7325C55.1762 45.6027 55.1539 45.3476 55.3074 45.0801L57.0423 46.075C57.2163 45.7717 57.1965 45.4733 57.1573 45.2975L55.2052 45.7325Z" fill="#C1C1C1" mask="url(#path-4-inside-1)"/>
<path d="M27.0881 28.4741L31.4972 8.58963V30.375L11.9897 42.4167L26.7054 29.1314C26.7054 29.1314 26.7054 29.1314 26.7054 29.1314C26.8982 28.9574 27.0319 28.7276 27.0881 28.4742L27.0881 28.4741Z" fill="#E3E3E3" stroke="#C1C1C1"/>
<path d="M37.2924 29.1315L52.002 42.4123L32.5007 30.3751V8.59029L36.9097 28.4742L36.9097 28.4743C36.966 28.7279 37.0997 28.9574 37.2922 29.1313L37.2924 29.1315Z" fill="#CCCCCC" stroke="#C1C1C1"/>
</svg>
