<svg width="64" height="64" viewBox="0 0 64 64" fill="none" xmlns="http://www.w3.org/2000/svg">
<g clip-path="url(#clip0)">
<path d="M40.6265 4.87488H23.3735C10.4641 4.87488 0 15.3213 0 28.2088V35.7909C0 48.6785 10.4641 59.1249 23.3735 59.1249H40.6265C53.5359 59.1249 64 48.6785 64 35.791V28.2089C64 15.3213 53.5359 4.87488 40.6265 4.87488ZM57.1917 38.6474C57.1917 47.767 49.786 55.1603 40.6509 55.1603H23.349C14.2139 55.1603 6.80813 47.7671 6.80813 38.6474V25.3524C6.80813 16.2328 14.2139 8.8395 23.349 8.8395H40.6509C49.786 8.8395 57.1917 16.2326 57.1917 25.3524V38.6474Z" fill="#CCCCCC"/>
<path d="M23.3467 8.83948H20.1273C10.9922 8.83948 3.58643 16.2326 3.58643 25.3524V38.6474C3.58643 47.767 10.9922 55.1602 20.1273 55.1602H23.3467C14.2115 55.1602 6.8058 47.7671 6.8058 38.6474V25.3524C6.80593 16.2326 14.2115 8.83948 23.3467 8.83948Z" fill="#A6A6A6"/>
<path d="M40.6295 4.87488H37.4102C50.3197 4.87488 60.7837 15.3213 60.7837 28.2088V35.7909C60.7837 48.6785 50.3197 59.1249 37.4102 59.1249H40.6295C53.5389 59.1249 64.003 48.6785 64.003 35.791V28.2089C64.003 15.3213 53.5389 4.87488 40.6295 4.87488Z" fill="#8C8C8C"/>
<path d="M58.7084 21.1409C58.6492 23.1771 58.1947 25.2777 56.8683 26.6186C56.3364 27.1572 55.596 27.6124 54.6984 28.016C50.839 29.7566 44.0812 30.5716 38.5735 33.2622C35.4723 34.7876 33.3787 39.8007 32.4873 42.3491C32.326 42.81 31.676 42.81 31.5148 42.3491C30.6234 39.8007 28.5298 34.7876 25.4285 33.2622C18.6409 29.9469 9.95392 29.4789 7.13379 26.6185C5.80742 25.2776 5.35292 23.1771 5.29367 21.1407C5.23017 19.0512 5.56929 17.0176 5.80292 15.8919C5.88404 15.5011 6.35792 15.3479 6.65354 15.6159C7.86967 16.7179 10.8854 19.1209 16.3229 21.5572C23.2478 24.6781 30.183 28.4105 31.7593 34.7365C31.8223 34.9891 32.1797 34.9891 32.2427 34.7365C33.819 28.4106 40.7542 24.6781 47.679 21.5572C50.2468 20.4067 52.2737 19.2639 53.8267 18.2611C55.5648 17.1407 56.7088 16.196 57.3503 15.6144C57.6453 15.347 58.118 15.501 58.1989 15.8909C58.4325 17.0165 58.7718 19.0507 58.7084 21.1409Z" fill="#8C8C8C"/>
<path d="M58.7092 21.1408C58.6499 23.1771 58.1954 25.2777 56.869 26.6186C56.3371 27.1572 55.5968 27.6123 54.6991 28.016C55.4975 24.2698 54.8575 21.8711 54.5755 20.6035C54.4249 19.9325 54.1235 19.0492 53.8274 18.2612C55.5644 17.1416 56.708 16.1973 57.3498 15.6156C57.6452 15.3479 58.1189 15.5019 58.1998 15.8918C58.4334 17.0176 58.7725 19.0512 58.7092 21.1408Z" fill="#737474"/>
<path d="M58.7068 21.1409C57.5621 21.8659 56.3246 22.5485 55.0252 23.19C51.3603 25.0026 47.2061 26.4848 43.2798 27.6443C35.7828 29.8601 32.9878 35.3363 32.2312 37.2126C32.1468 37.4218 31.852 37.4218 31.7676 37.2126C31.011 35.3363 28.216 29.86 20.719 27.6443C15.402 26.0747 9.66509 23.9111 5.29196 21.1407C5.22846 19.0512 5.56759 17.0176 5.80121 15.8919C5.88234 15.5011 6.35621 15.3479 6.65184 15.6159C7.86796 16.7179 10.8837 19.1209 16.3212 21.5572C23.2461 24.6781 30.1813 28.4105 31.7576 34.7365C31.8206 34.9891 32.178 34.9891 32.241 34.7365C33.8173 28.4106 40.7525 24.6781 47.6773 21.5572C50.2451 20.4067 52.272 19.2639 53.825 18.2611C55.5631 17.1407 56.7071 16.196 57.3486 15.6144C57.6436 15.347 58.1163 15.501 58.1972 15.8909C58.431 17.0165 58.7702 19.0507 58.7068 21.1409Z" fill="#CCCCCC"/>
<path d="M58.7092 21.1408C57.5644 21.8658 56.3269 22.5485 55.0275 23.19C54.9233 22.0587 54.7095 21.2038 54.5755 20.6035C54.4249 19.9325 54.1235 19.0492 53.8274 18.2612C55.5644 17.1416 56.708 16.1973 57.3498 15.6156C57.6452 15.3479 58.1189 15.5019 58.1998 15.8918C58.4334 17.0176 58.7725 19.0512 58.7092 21.1408Z" fill="#A6A6A6"/>
</g>
<defs>
<clipPath id="clip0">
<rect y="-0.00012207" width="64" height="64" fill="white"/>
</clipPath>
</defs>
</svg>
