<svg width="200" height="61" viewBox="0 0 200 61" fill="none" xmlns="http://www.w3.org/2000/svg">
<rect y="0.66748" width="200" height="60" rx="8" fill="white"/>
<path d="M69.179 36.7669H71.8636C71.4162 33.9118 68.9446 31.9232 65.7273 31.9232C61.9205 31.9232 59.0653 34.7215 59.0653 39.409C59.0653 44.0112 61.7926 46.8663 65.8054 46.8663C69.4062 46.8663 71.9844 44.551 71.9844 40.801V39.0538H66.0824V41.1135H69.4347C69.392 43.1874 68.0071 44.5013 65.8196 44.5013C63.3835 44.5013 61.7145 42.676 61.7145 39.3805C61.7145 36.1064 63.4119 34.2882 65.7628 34.2882C67.517 34.2882 68.7102 35.2257 69.179 36.7669ZM78.6772 46.8805C81.8732 46.8805 83.9045 44.6291 83.9045 41.2555C83.9045 37.8749 81.8732 35.6163 78.6772 35.6163C75.4812 35.6163 73.4499 37.8749 73.4499 41.2555C73.4499 44.6291 75.4812 46.8805 78.6772 46.8805ZM78.6914 44.8209C76.9229 44.8209 76.0565 43.2442 76.0565 41.2484C76.0565 39.2527 76.9229 37.6547 78.6914 37.6547C80.4315 37.6547 81.2979 39.2527 81.2979 41.2484C81.2979 43.2442 80.4315 44.8209 78.6914 44.8209ZM90.3452 46.8805C93.5412 46.8805 95.5724 44.6291 95.5724 41.2555C95.5724 37.8749 93.5412 35.6163 90.3452 35.6163C87.1491 35.6163 85.1179 37.8749 85.1179 41.2555C85.1179 44.6291 87.1491 46.8805 90.3452 46.8805ZM90.3594 44.8209C88.5909 44.8209 87.7244 43.2442 87.7244 41.2484C87.7244 39.2527 88.5909 37.6547 90.3594 37.6547C92.0994 37.6547 92.9659 39.2527 92.9659 41.2484C92.9659 43.2442 92.0994 44.8209 90.3594 44.8209ZM101.999 50.943C104.946 50.943 107.12 49.5936 107.12 46.845V35.7584H104.584V37.5624H104.442C104.051 36.774 103.235 35.6163 101.31 35.6163C98.7887 35.6163 96.8072 37.5908 96.8072 41.1774C96.8072 44.7357 98.7887 46.5112 101.303 46.5112C103.171 46.5112 104.044 45.5098 104.442 44.7073H104.57V46.774C104.57 48.3365 103.505 48.997 102.042 48.997C100.493 48.997 99.8114 48.2655 99.4989 47.6689L97.1836 48.23C97.6523 49.7144 99.2219 50.943 101.999 50.943ZM102.02 44.4942C100.323 44.4942 99.4279 43.1732 99.4279 41.1632C99.4279 39.1817 100.309 37.7257 102.02 37.7257C103.675 37.7257 104.584 39.0965 104.584 41.1632C104.584 43.2442 103.661 44.4942 102.02 44.4942ZM111.826 32.122H109.255V46.6675H111.826V32.122ZM118.799 46.8805C121.342 46.8805 123.089 45.6377 123.543 43.7413L121.143 43.4715C120.795 44.3948 119.942 44.8777 118.835 44.8777C117.173 44.8777 116.072 43.784 116.05 41.9161H123.65V41.1277C123.65 37.2996 121.349 35.6163 118.664 35.6163C115.539 35.6163 113.501 37.9104 113.501 41.2769C113.501 44.7002 115.511 46.8805 118.799 46.8805ZM116.058 40.1831C116.136 38.7911 117.165 37.6192 118.7 37.6192C120.177 37.6192 121.171 38.6987 121.185 40.1831H116.058ZM129.9 46.6675H132.534V41.7527H135.319C138.678 41.7527 140.482 39.7357 140.482 36.9374C140.482 34.1604 138.699 32.122 135.354 32.122H129.9V46.6675ZM132.534 39.5865V34.3237H134.949C136.924 34.3237 137.797 35.3891 137.797 36.9374C137.797 38.4857 136.924 39.5865 134.963 39.5865H132.534ZM144.728 32.122H142.157V46.6675H144.728V32.122ZM150.011 46.8877C151.723 46.8877 152.745 46.0851 153.214 45.1689H153.299V46.6675H155.771V39.3663C155.771 36.4828 153.42 35.6163 151.339 35.6163C149.045 35.6163 147.284 36.6391 146.716 38.6277L149.116 38.9686C149.372 38.2229 150.096 37.5837 151.353 37.5837C152.547 37.5837 153.2 38.1945 153.2 39.2669V39.3095C153.2 40.0482 152.426 40.0837 150.501 40.2896C148.385 40.5169 146.36 41.149 146.36 43.6064C146.36 45.7513 147.93 46.8877 150.011 46.8877ZM150.679 44.9984C149.606 44.9984 148.839 44.5084 148.839 43.5638C148.839 42.5766 149.699 42.1646 150.849 42.0013C151.524 41.909 152.873 41.7385 153.207 41.4686V42.7541C153.207 43.9686 152.227 44.9984 150.679 44.9984ZM159.064 50.7371C161.066 50.7371 162.224 49.7002 162.842 47.9885L167.224 35.7726L164.475 35.7584L161.954 43.997H161.841L159.326 35.7584H156.599L160.555 46.8948L160.335 47.4842C159.845 48.6916 159.106 48.784 157.984 48.4644L157.387 50.4601C157.735 50.6092 158.36 50.7371 159.064 50.7371Z" fill="#1B1B1B"/>
<path d="M66.1932 16.6675H67.4659C67.0881 14.6987 65.4375 13.3465 63.2898 13.3465C60.6797 13.3465 58.8352 15.355 58.8352 18.5766C58.8352 21.7982 60.6648 23.8067 63.3693 23.8067C65.7955 23.8067 67.5256 22.1909 67.5256 19.6703V18.5766H63.6477V19.6703H66.3324C66.2976 21.4999 65.0945 22.6533 63.3693 22.6533C61.4801 22.6533 60.0284 21.2215 60.0284 18.5766C60.0284 15.9317 61.4801 14.4999 63.2898 14.4999C64.7614 14.4999 65.7607 15.3301 66.1932 16.6675ZM72.2799 23.8266C73.831 23.8266 74.9645 23.051 75.3225 21.8976L74.189 21.5794C73.8907 22.3749 73.1996 22.7726 72.2799 22.7726C70.9027 22.7726 69.9532 21.8827 69.8985 20.247H75.4418V19.7499C75.4418 16.9061 73.7515 15.9317 72.1605 15.9317C70.0924 15.9317 68.7202 17.5624 68.7202 19.909C68.7202 22.2555 70.0725 23.8266 72.2799 23.8266ZM69.8985 19.2328C69.978 18.0446 70.8182 16.9857 72.1605 16.9857C73.4333 16.9857 74.2486 17.9402 74.2486 19.2328H69.8985ZM80.1476 16.0311H78.5169V14.2016H77.3436V16.0311H76.1902V17.0254H77.3436V21.7982C77.3436 23.1305 78.4175 23.7669 79.4118 23.7669C79.8493 23.7669 80.1277 23.6874 80.2868 23.6277L80.0482 22.5737C79.9488 22.5936 79.7897 22.6334 79.5311 22.6334C79.0141 22.6334 78.5169 22.4743 78.5169 21.48V17.0254H80.1476V16.0311ZM85.05 23.6675H86.2233V16.0311H85.05V23.6675ZM85.6466 14.7584C86.104 14.7584 86.4819 14.4004 86.4819 13.9629C86.4819 13.5254 86.104 13.1675 85.6466 13.1675C85.1892 13.1675 84.8114 13.5254 84.8114 13.9629C84.8114 14.4004 85.1892 14.7584 85.6466 14.7584ZM91.2933 16.0311H89.6626V14.2016H88.4893V16.0311H87.3359V17.0254H88.4893V21.7982C88.4893 23.1305 89.5632 23.7669 90.5575 23.7669C90.995 23.7669 91.2734 23.6874 91.4325 23.6277L91.1939 22.5737C91.0945 22.5936 90.9354 22.6334 90.6768 22.6334C90.1598 22.6334 89.6626 22.4743 89.6626 21.48V17.0254H91.2933V16.0311ZM99.298 23.8266C101.366 23.8266 102.758 22.2555 102.758 19.8891C102.758 17.5027 101.366 15.9317 99.298 15.9317C97.2298 15.9317 95.8378 17.5027 95.8378 19.8891C95.8378 22.2555 97.2298 23.8266 99.298 23.8266ZM99.298 22.7726C97.727 22.7726 97.0111 21.4203 97.0111 19.8891C97.0111 18.3578 97.727 16.9857 99.298 16.9857C100.869 16.9857 101.585 18.3578 101.585 19.8891C101.585 21.4203 100.869 22.7726 99.298 22.7726ZM105.323 19.0737C105.323 17.7413 106.148 16.9857 107.271 16.9857C108.36 16.9857 109.021 17.6966 109.021 18.8948V23.6675H110.195V18.8152C110.195 16.8663 109.156 15.9317 107.609 15.9317C106.456 15.9317 105.74 16.4487 105.382 17.2243H105.283V16.0311H104.149V23.6675H105.323V19.0737Z" fill="#1B1B1B"/>
<path fill-rule="evenodd" clip-rule="evenodd" d="M21.9518 17.4926L34.5506 30.6871L22.0123 43.9967C21.6464 43.7533 21.4502 43.2251 21.4469 42.5428C21.4406 41.2351 21.3408 20.4773 21.3333 18.9199C21.3298 18.1729 21.5889 17.7171 21.9518 17.4926ZM38.7055 26.2772L23.3852 17.5106C23.2215 17.4167 23.0357 17.3597 22.8506 17.3342L35.072 30.1339L38.7055 26.2772ZM39.3862 34.6523L35.5964 30.6835L39.3824 26.6647L44.5962 29.6476C45.8806 30.3821 45.2237 31.3011 44.5962 31.6615L39.3862 34.6523ZM23.0508 44.0009C23.1577 43.9588 23.2692 43.905 23.3849 43.8387L38.7084 35.0415L35.0755 31.2368L23.0508 44.0009Z" fill="url(#paint0_linear)"/>
<defs>
<linearGradient id="paint0_linear" x1="21.3333" y1="30.6676" x2="45.3333" y2="30.6676" gradientUnits="userSpaceOnUse">
<stop stop-color="#FFA400"/>
<stop offset="1" stop-color="#FF7F00"/>
</linearGradient>
</defs>
</svg>
