<svg width="200" height="61" viewBox="0 0 200 61" fill="none" xmlns="http://www.w3.org/2000/svg">
<rect y="0.66748" width="200" height="60" rx="8" fill="white"/>
<path d="M61.3026 46.6675L62.5028 43.0808H67.9716L69.179 46.6675H71.9915L66.8636 32.122H63.6108L58.4901 46.6675H61.3026ZM63.2131 40.9644L65.1804 35.105H65.294L67.2614 40.9644H63.2131ZM73.2937 50.7584H75.8647V44.9487H75.9712C76.3761 45.7442 77.2212 46.8592 79.0962 46.8592C81.6673 46.8592 83.592 44.8209 83.592 41.2271C83.592 37.5908 81.6104 35.6163 79.0891 35.6163C77.1644 35.6163 76.3619 36.774 75.9712 37.5624H75.8221V35.7584H73.2937V50.7584ZM75.815 41.2129C75.815 39.0965 76.7241 37.7257 78.3789 37.7257C80.0906 37.7257 80.9712 39.1817 80.9712 41.2129C80.9712 43.2584 80.0763 44.7499 78.3789 44.7499C76.7383 44.7499 75.815 43.3294 75.815 41.2129ZM85.2937 50.7584H87.8647V44.9487H87.9712C88.3761 45.7442 89.2212 46.8592 91.0962 46.8592C93.6673 46.8592 95.592 44.8209 95.592 41.2271C95.592 37.5908 93.6104 35.6163 91.0891 35.6163C89.1644 35.6163 88.3619 36.774 87.9712 37.5624H87.8221V35.7584H85.2937V50.7584ZM87.815 41.2129C87.815 39.0965 88.7241 37.7257 90.3789 37.7257C92.0906 37.7257 92.9712 39.1817 92.9712 41.2129C92.9712 43.2584 92.0763 44.7499 90.3789 44.7499C88.7383 44.7499 87.815 43.3294 87.815 41.2129ZM109.773 36.1206H112.309C112.259 33.6632 110.164 31.9232 107.067 31.9232C104.013 31.9232 101.719 33.6419 101.726 36.2129C101.726 38.301 103.211 39.5013 105.604 40.1192L107.259 40.5453C108.828 40.943 109.865 41.4331 109.873 42.5624C109.865 43.8053 108.686 44.6362 106.968 44.6362C105.32 44.6362 104.042 43.8976 103.935 42.3706H101.343C101.449 45.2612 103.601 46.8877 106.989 46.8877C110.476 46.8877 112.5 45.1476 112.507 42.5837C112.5 40.0624 110.419 38.9118 108.232 38.3933L106.868 38.0524C105.675 37.7683 104.382 37.2641 104.397 36.0496C104.404 34.9558 105.384 34.1533 107.032 34.1533C108.601 34.1533 109.638 34.8848 109.773 36.1206ZM119.69 35.7584H117.538V33.1448H114.967V35.7584H113.419V37.747H114.967V43.8124C114.953 45.8649 116.445 46.8734 118.376 46.8166C119.108 46.7953 119.612 46.6533 119.889 46.5609L119.456 44.551C119.314 44.5865 119.023 44.6504 118.703 44.6504C118.057 44.6504 117.538 44.4232 117.538 43.3862V37.747H119.69V35.7584ZM125.982 46.8805C129.178 46.8805 131.209 44.6291 131.209 41.2555C131.209 37.8749 129.178 35.6163 125.982 35.6163C122.786 35.6163 120.755 37.8749 120.755 41.2555C120.755 44.6291 122.786 46.8805 125.982 46.8805ZM125.996 44.8209C124.228 44.8209 123.361 43.2442 123.361 41.2484C123.361 39.2527 124.228 37.6547 125.996 37.6547C127.736 37.6547 128.603 39.2527 128.603 41.2484C128.603 43.2442 127.736 44.8209 125.996 44.8209ZM132.891 46.6675H135.462V40.2541C135.462 38.8692 136.506 37.8891 137.92 37.8891C138.353 37.8891 138.893 37.9672 139.113 38.0382V35.6732C138.879 35.6305 138.474 35.6021 138.19 35.6021C136.94 35.6021 135.896 36.3124 135.498 37.5766H135.384V35.7584H132.891V46.6675ZM144.701 46.8805C147.244 46.8805 148.991 45.6377 149.446 43.7413L147.045 43.4715C146.697 44.3948 145.845 44.8777 144.737 44.8777C143.075 44.8777 141.974 43.784 141.953 41.9161H149.552V41.1277C149.552 37.2996 147.251 35.6163 144.566 35.6163C141.441 35.6163 139.403 37.9104 139.403 41.2769C139.403 44.7002 141.413 46.8805 144.701 46.8805ZM141.96 40.1831C142.038 38.7911 143.068 37.6192 144.602 37.6192C146.079 37.6192 147.074 38.6987 147.088 40.1831H141.96Z" fill="#1B1B1B"/>
<path d="M62.375 23.6675C65.4773 23.6675 67.2273 21.7385 67.2273 18.5567C67.2273 15.3948 65.4773 13.4857 62.5142 13.4857H59.233V23.6675H62.375ZM60.4659 22.5737V14.5794H62.4347C64.821 14.5794 66.0341 16.0908 66.0341 18.5567C66.0341 21.0425 64.821 22.5737 62.2955 22.5737H60.4659ZM71.8386 23.8266C73.9068 23.8266 75.2989 22.2555 75.2989 19.8891C75.2989 17.5027 73.9068 15.9317 71.8386 15.9317C69.7705 15.9317 68.3784 17.5027 68.3784 19.8891C68.3784 22.2555 69.7705 23.8266 71.8386 23.8266ZM71.8386 22.7726C70.2676 22.7726 69.5517 21.4203 69.5517 19.8891C69.5517 18.3578 70.2676 16.9857 71.8386 16.9857C73.4097 16.9857 74.1256 18.3578 74.1256 19.8891C74.1256 21.4203 73.4097 22.7726 71.8386 22.7726ZM78.1602 23.6675H79.3136L80.9841 17.801H81.1034L82.7739 23.6675H83.9273L86.254 16.0311H85.021L83.3705 21.8578H83.2909L81.6801 16.0311H80.4273L78.7966 21.8777H78.717L77.0665 16.0311H75.8335L78.1602 23.6675ZM88.5784 19.0737C88.5784 17.7413 89.4037 16.9857 90.5273 16.9857C91.6161 16.9857 92.2773 17.6966 92.2773 18.8948V23.6675H93.4506V18.8152C93.4506 16.8663 92.4115 15.9317 90.8653 15.9317C89.7119 15.9317 88.996 16.4487 88.6381 17.2243H88.5386V16.0311H87.4051V23.6675H88.5784V19.0737ZM96.3679 13.4857H95.1946V23.6675H96.3679V13.4857ZM101.219 23.8266C103.287 23.8266 104.679 22.2555 104.679 19.8891C104.679 17.5027 103.287 15.9317 101.219 15.9317C99.1509 15.9317 97.7589 17.5027 97.7589 19.8891C97.7589 22.2555 99.1509 23.8266 101.219 23.8266ZM101.219 22.7726C99.6481 22.7726 98.9322 21.4203 98.9322 19.8891C98.9322 18.3578 99.6481 16.9857 101.219 16.9857C102.79 16.9857 103.506 18.3578 103.506 19.8891C103.506 21.4203 102.79 22.7726 101.219 22.7726ZM108.318 23.8465C109.65 23.8465 110.346 23.1305 110.585 22.6334H110.644V23.6675H111.818V18.6362C111.818 16.2101 109.968 15.9317 108.994 15.9317C107.84 15.9317 106.528 16.3294 105.931 17.7215L107.045 18.1192C107.303 17.5624 107.915 16.9658 109.033 16.9658C110.112 16.9658 110.644 17.5375 110.644 18.5169V18.5567C110.644 19.1234 110.068 19.0737 108.675 19.2527C107.259 19.4367 105.712 19.7499 105.712 21.4999C105.712 22.9913 106.866 23.8465 108.318 23.8465ZM108.496 22.7925C107.562 22.7925 106.886 22.3749 106.886 21.5595C106.886 20.6646 107.701 20.3862 108.616 20.2669C109.113 20.2073 110.445 20.068 110.644 19.8294V20.9033C110.644 21.8578 109.889 22.7925 108.496 22.7925ZM116.443 23.8266C117.914 23.8266 118.411 22.9118 118.67 22.4942H118.809V23.6675H119.943V13.4857H118.769V17.2442H118.67C118.411 16.8465 117.954 15.9317 116.462 15.9317C114.533 15.9317 113.201 17.4629 113.201 19.8692C113.201 22.2953 114.533 23.8266 116.443 23.8266ZM116.602 22.7726C115.13 22.7726 114.374 21.48 114.374 19.8493C114.374 18.2385 115.11 16.9857 116.602 16.9857C118.033 16.9857 118.789 18.1391 118.789 19.8493C118.789 21.5794 118.014 22.7726 116.602 22.7726ZM128.494 23.8266C130.562 23.8266 131.954 22.2555 131.954 19.8891C131.954 17.5027 130.562 15.9317 128.494 15.9317C126.426 15.9317 125.034 17.5027 125.034 19.8891C125.034 22.2555 126.426 23.8266 128.494 23.8266ZM128.494 22.7726C126.923 22.7726 126.207 21.4203 126.207 19.8891C126.207 18.3578 126.923 16.9857 128.494 16.9857C130.065 16.9857 130.781 18.3578 130.781 19.8891C130.781 21.4203 130.065 22.7726 128.494 22.7726ZM134.519 19.0737C134.519 17.7413 135.344 16.9857 136.468 16.9857C137.556 16.9857 138.218 17.6966 138.218 18.8948V23.6675H139.391V18.8152C139.391 16.8663 138.352 15.9317 136.806 15.9317C135.652 15.9317 134.936 16.4487 134.578 17.2243H134.479V16.0311H133.345V23.6675H134.519V19.0737ZM147.993 16.0311H146.363V14.2016H145.189V16.0311H144.036V17.0254H145.189V21.7982C145.189 23.1305 146.263 23.7669 147.258 23.7669C147.695 23.7669 147.973 23.6874 148.133 23.6277L147.894 22.5737C147.794 22.5936 147.635 22.6334 147.377 22.6334C146.86 22.6334 146.363 22.4743 146.363 21.48V17.0254H147.993V16.0311ZM150.696 19.0737C150.696 17.7413 151.546 16.9857 152.704 16.9857C153.808 16.9857 154.474 17.6817 154.474 18.8948V23.6675H155.647V18.8152C155.647 16.8514 154.603 15.9317 153.042 15.9317C151.839 15.9317 151.153 16.4338 150.795 17.2243H150.696V13.4857H149.522V23.6675H150.696V19.0737ZM160.595 23.8266C162.147 23.8266 163.28 23.051 163.638 21.8976L162.505 21.5794C162.206 22.3749 161.515 22.7726 160.595 22.7726C159.218 22.7726 158.269 21.8827 158.214 20.247H163.757V19.7499C163.757 16.9061 162.067 15.9317 160.476 15.9317C158.408 15.9317 157.036 17.5624 157.036 19.909C157.036 22.2555 158.388 23.8266 160.595 23.8266ZM158.214 19.2328C158.294 18.0446 159.134 16.9857 160.476 16.9857C161.749 16.9857 162.564 17.9402 162.564 19.2328H158.214Z" fill="#1B1B1B"/>
<path fill-rule="evenodd" clip-rule="evenodd" d="M36.4272 16.0007C36.5976 17.4557 35.9838 18.8894 35.0866 19.9433C34.1503 20.9807 32.6526 21.7742 31.1939 21.672C31.0029 20.272 31.7421 18.7833 32.5694 17.8751C33.5047 16.8444 35.1287 16.0547 36.4272 16.0007ZM41.9607 26.1566C41.7972 26.2483 39.1002 27.7607 39.1297 30.8445C39.1636 34.5691 42.5985 35.8004 42.6405 35.8139C42.62 35.9007 42.1026 37.5909 40.8143 39.3071C39.7384 40.818 38.6113 42.2951 36.821 42.3221C35.9699 42.3405 35.3951 42.1106 34.7963 41.8711C34.1716 41.6212 33.5206 41.3609 32.5023 41.3609C31.4226 41.3609 30.7428 41.6296 30.0871 41.8888C29.5202 42.1128 28.9714 42.3298 28.1979 42.3597C26.4928 42.4186 25.1901 40.7467 24.0753 39.2493C21.8466 36.1919 20.1117 30.6334 22.4379 26.8509C23.5651 24.9958 25.6202 23.8012 27.8171 23.7694C28.7845 23.7508 29.7123 24.101 30.5256 24.4079C31.1476 24.6427 31.7027 24.8522 32.1573 24.8522C32.5566 24.8522 33.0961 24.6511 33.7249 24.4167C34.7158 24.0473 35.9285 23.5952 37.1639 23.7173C38.0088 23.7405 40.4129 24.0307 41.9641 26.1547L41.9607 26.1566Z" fill="url(#paint0_linear)"/>
<defs>
<linearGradient id="paint0_linear" x1="21.3333" y1="29.181" x2="42.6405" y2="29.181" gradientUnits="userSpaceOnUse">
<stop stop-color="#FFA400"/>
<stop offset="1" stop-color="#FF7F00"/>
</linearGradient>
</defs>
</svg>
