<svg width="32" height="32" viewBox="0 0 32 32" fill="none" xmlns="http://www.w3.org/2000/svg">
<path d="M30.2929 19.1592L30.293 19.1597C30.2954 19.1723 30.2981 19.1826 30.3022 19.1977C30.3044 19.2058 30.307 19.2154 30.3101 19.2275C30.3171 19.2548 30.326 19.2933 30.3268 19.3365C30.3268 19.3384 30.3269 19.3404 30.3269 19.3424C30.3269 22.7957 27.5195 25.6043 24.0684 25.6043C20.6167 25.6043 17.8093 22.7957 17.8093 19.3424C17.8093 19.3404 17.8093 19.3383 17.8094 19.3364C17.8102 19.2933 17.8191 19.2548 17.8261 19.2275C17.8292 19.2154 17.8318 19.2058 17.834 19.1977C17.838 19.1826 17.8408 19.1723 17.8432 19.1597L17.8433 19.1592C17.8464 19.1427 17.848 19.1307 17.85 19.1159C17.8516 19.1041 17.8534 19.0906 17.8564 19.0715C17.8617 19.0385 17.8698 18.9965 17.8872 18.9537C17.8874 18.9532 17.8876 18.9527 17.8878 18.9522C17.8885 18.9504 17.8892 18.9486 17.89 18.9468L22.4765 8.13563L18.6924 8.4973C18.3407 9.41163 17.4619 10.0683 16.4218 10.0683C15.5471 10.0683 14.7884 9.60139 14.3581 8.91189L10.254 9.30413L14.9515 20.1526L14.9525 20.155L14.9525 20.155C14.9547 20.1603 14.9564 20.1653 14.9577 20.1698C14.9711 20.2053 14.9771 20.2391 14.9808 20.2629C14.9825 20.2736 14.9838 20.2821 14.9848 20.2893C14.987 20.3041 14.9883 20.3135 14.9909 20.3243L14.991 20.3247C14.9942 20.338 14.9978 20.3518 15.0022 20.3679C15.0064 20.3833 15.0113 20.4013 15.0157 20.4195C15.0239 20.4528 15.0321 20.4936 15.0336 20.5383C15.034 20.543 15.0343 20.5481 15.0343 20.5536C15.0343 24.0068 12.227 26.8166 8.77526 26.8166C5.32406 26.8166 2.51675 24.0068 2.51675 20.5536C2.51675 20.5481 2.51705 20.543 2.51752 20.5383C2.51894 20.4936 2.52722 20.4528 2.53534 20.4195C2.53944 20.4027 2.54396 20.3861 2.5479 20.3715L2.54888 20.3679C2.55324 20.3518 2.55692 20.338 2.56005 20.3247L2.56015 20.3243C2.56274 20.3135 2.5641 20.3041 2.56627 20.2893C2.56732 20.2821 2.56857 20.2736 2.57024 20.2629C2.57398 20.2391 2.57993 20.2053 2.59336 20.1698C2.5947 20.1653 2.5964 20.1603 2.59857 20.1551L2.5996 20.1526L2.59962 20.1526L7.84844 8.02959L7.84847 8.02953C7.86475 7.99195 7.88681 7.9638 7.90001 7.94734C7.90394 7.94244 7.9071 7.93853 7.90968 7.93533C7.91788 7.92516 7.92028 7.92219 7.92282 7.918L8.05115 7.99565M30.2929 19.1592L8.02403 7.76401C8.024 7.76404 8.02398 7.76407 8.02395 7.7641C7.98582 7.8071 7.95509 7.86136 7.93522 7.89644C7.93034 7.90505 7.92612 7.91251 7.9226 7.91836L8.05115 7.99565M30.2929 19.1592C30.2898 19.1427 30.2882 19.1307 30.2862 19.1159C30.2846 19.1041 30.2828 19.0906 30.2798 19.0715C30.2745 19.0385 30.2664 18.9965 30.249 18.9537M30.2929 19.1592L30.2462 18.9469M8.05115 7.99565C8.04291 8.00927 8.03306 8.0214 8.02323 8.03352C8.00926 8.05072 7.99533 8.06788 7.98609 8.08919L8.05115 7.99565ZM30.2467 18.9484L30.2466 18.9481L30.2467 18.9484ZM30.2467 18.9484C30.2473 18.9497 30.2479 18.951 30.2484 18.9523C30.254 18.9667 30.2562 18.979 30.2572 18.9864C30.2583 18.9939 30.2585 19 30.2586 19.0029V19.0028C30.2585 18.9999 30.2583 18.9938 30.2572 18.9861C30.2562 18.979 30.2541 18.9674 30.249 18.9537M30.2467 18.9484C30.2475 18.9501 30.2482 18.9519 30.249 18.9537M30.249 18.9537C30.2487 18.9531 30.2485 18.9526 30.2483 18.952C30.2477 18.9504 30.247 18.9487 30.2462 18.9469M30.2462 18.9469L24.9981 6.57475M30.2462 18.9469L24.9981 6.57475M30.2462 18.9469C30.2458 18.9458 30.2453 18.9447 30.2447 18.9436L30.2351 18.921L30.2193 18.9054L30.2462 18.9469ZM24.9981 6.57475L24.8598 6.63286L24.9981 6.57475ZM24.0304 5.96608C24.1056 5.96383 24.1754 5.97652 24.2297 5.98639C24.2345 5.98726 24.2391 5.9881 24.2437 5.98891L24.2437 5.98892C24.2565 5.99122 24.2652 5.99243 24.2758 5.99391C24.2847 5.99515 24.2949 5.99657 24.31 5.99898C24.336 6.00312 24.3687 6.0093 24.4029 6.02138C24.4034 6.0215 24.4058 6.02207 24.4119 6.02351L24.4125 6.02366C24.4187 6.02513 24.4306 6.02793 24.4445 6.03276C24.4513 6.03467 24.4592 6.03739 24.4676 6.04135L24.4042 6.17727M24.0304 5.96608L24.9979 6.57429C24.9914 6.55909 24.984 6.54701 24.9779 6.5382C24.9736 6.532 24.9693 6.52663 24.9666 6.52322C24.9413 6.47393 24.9086 6.43059 24.885 6.39927C24.8803 6.39298 24.8759 6.38718 24.8721 6.38191C24.8663 6.37394 24.8622 6.3672 24.8557 6.35662C24.8522 6.35098 24.8481 6.34425 24.8427 6.33567C24.8297 6.31494 24.8105 6.28592 24.7831 6.25829C24.7693 6.24434 24.7558 6.23376 24.7479 6.22766L24.742 6.2231C24.7374 6.21953 24.736 6.21845 24.7344 6.21705M24.0304 5.96608C24.0262 5.9653 24.0203 5.96429 24.0137 5.96353C24.0031 5.96231 23.989 5.96146 23.9726 5.963L23.9724 5.96303L18.5692 6.47942C18.1584 5.71201 17.3544 5.18325 16.4218 5.18325C15.3247 5.18325 14.4043 5.91279 14.0965 6.90724L8.67927 7.42495L8.67895 7.42498C8.63774 7.42901 8.60376 7.44139 8.58328 7.44915C8.577 7.45153 8.57197 7.45346 8.56786 7.45503C8.55551 7.45977 8.55134 7.46137 8.54582 7.4627L8.58084 7.60855M24.0304 5.96608L8.39013 7.49991M24.4042 6.17727L24.4627 6.03917C24.4923 6.05171 24.5137 6.06941 24.5213 6.0757L24.5223 6.07652C24.523 6.07714 24.5237 6.07766 24.5242 6.07811C24.5426 6.08798 24.5578 6.09846 24.5681 6.10567C24.5724 6.10864 24.5757 6.11103 24.5786 6.11303C24.5852 6.11776 24.5888 6.12027 24.5932 6.12302L24.5933 6.1231C24.5982 6.1261 24.6049 6.12999 24.6129 6.13466C24.6441 6.15275 24.6954 6.18246 24.7344 6.21705M24.4042 6.17727C24.4036 6.17701 24.403 6.17695 24.4025 6.17689C24.4019 6.17683 24.4014 6.17677 24.4009 6.17657L24.4283 6.19346C24.4209 6.18734 24.4135 6.18122 24.4042 6.17727ZM24.7344 6.21705C24.7344 6.21708 24.7345 6.21712 24.7345 6.21715L24.635 6.32937L24.7343 6.21691C24.7343 6.21696 24.7344 6.21701 24.7344 6.21705ZM8.58084 7.60855C8.56488 7.61234 8.54874 7.61501 8.53264 7.61767C8.50356 7.62248 8.47464 7.62726 8.44735 7.63857M8.58084 7.60855L8.54617 7.46261C8.53537 7.46518 8.52657 7.46662 8.51364 7.46875C8.50642 7.46994 8.49791 7.47134 8.48705 7.47326C8.46555 7.47706 8.43701 7.48273 8.40649 7.49362C8.39821 7.49533 8.38713 7.49826 8.37475 7.50356L8.37407 7.50386C8.35898 7.51041 8.3471 7.51796 8.33855 7.52407C8.3336 7.52761 8.32921 7.53109 8.32606 7.53367M8.58084 7.60855C8.59672 7.60474 8.61166 7.59897 8.62657 7.5932C8.64805 7.5849 8.66947 7.57662 8.69354 7.57427L8.43385 7.64143M8.44735 7.63857L8.39013 7.49991M8.44735 7.63857C8.44517 7.63946 8.44293 7.63971 8.44068 7.63996C8.43838 7.64022 8.43608 7.64048 8.43385 7.64143M8.44735 7.63857L8.38995 7.49998C8.39001 7.49996 8.39007 7.49993 8.39013 7.49991M8.39013 7.49991L8.43385 7.64143M8.43385 7.64143C8.42773 7.64409 8.42288 7.64819 8.41802 7.6523C8.41354 7.65608 8.40906 7.65988 8.40355 7.66256M8.40355 7.66256L8.33792 7.52768C8.33788 7.5277 8.33783 7.52772 8.33779 7.52775M8.40355 7.66256C8.36621 7.68073 8.33445 7.70459 8.30211 7.72889C8.29385 7.73509 8.28556 7.74132 8.27713 7.7475M8.40355 7.66256L8.33779 7.52775M8.33779 7.52775C8.33385 7.52967 8.32993 7.53164 8.32606 7.53367M8.33779 7.52775L8.27713 7.7475M8.32606 7.53367C8.27895 7.55828 8.23695 7.59001 8.20702 7.61262C8.20021 7.61777 8.19402 7.62244 8.18854 7.62645L8.27713 7.7475M8.32606 7.53367L8.27713 7.7475M8.27713 7.7475C8.26496 7.75631 8.25246 7.76437 8.24001 7.77239C8.21532 7.7883 8.19085 7.80406 8.1696 7.82536L8.27713 7.7475ZM30.2586 19.0077C30.2586 19.0072 30.2586 19.0053 30.2586 19.003L30.2586 19.0066L30.2586 19.0075V19.0077ZM30.2586 19.0077C30.2586 19.0078 30.2586 19.0079 30.2586 19.0078V19.0078L30.2586 19.0077ZM2.58785 20.197C2.58784 20.1971 2.58785 20.197 2.58789 20.1966L2.58785 20.197ZM17.8894 18.9484C17.8895 18.9483 17.8895 18.9482 17.8896 18.948L17.8894 18.9484ZM2.51731 20.551C2.51731 20.5509 2.51731 20.5508 2.51731 20.5507L2.51731 20.551ZM30.3116 19.2763C30.3114 19.276 30.3122 19.2777 30.3131 19.2797L30.312 19.2772L30.3117 19.2765L30.3116 19.2764L30.3116 19.2763L30.3116 19.2763ZM24.972 6.53424L24.9719 6.53392L24.972 6.53424ZM2.52473 20.5049L2.52466 20.5051L2.52473 20.5049ZM14.9632 20.197L14.9632 20.1965L14.9632 20.197ZM24.0683 9.5542L27.7921 18.3327H20.3441L24.0683 9.5542ZM17.8249 19.2757L17.8237 19.2782C17.8247 19.2762 17.8255 19.2746 17.8253 19.2749L17.8253 19.2749L17.8253 19.2749L17.8252 19.2751L17.8249 19.2757ZM8.77534 10.9722L12.487 19.5439H5.06404L8.77534 10.9722ZM8.77526 24.7972C6.78617 24.7972 5.11389 23.4171 4.65992 21.5633H12.8912C12.4372 23.4171 10.7648 24.7972 8.77526 24.7972ZM16.4218 8.04889C16.1885 8.04889 15.9987 7.85868 15.9987 7.62576C15.9987 7.39284 16.1885 7.20263 16.4218 7.20263C16.6551 7.20263 16.8449 7.39284 16.8449 7.62576C16.8449 7.85868 16.6551 8.04889 16.4218 8.04889ZM24.0684 23.5849C22.0788 23.5849 20.4064 22.2056 19.9525 20.3521H28.1837C27.7297 22.2057 26.0575 23.5849 24.0684 23.5849Z" fill="#1B1B1B" stroke="#1B1B1B" stroke-width="0.3"/>
</svg>
