<svg width="32" height="32" viewBox="0 0 32 32" fill="none" xmlns="http://www.w3.org/2000/svg">
<path fill-rule="evenodd" clip-rule="evenodd" d="M16.0001 6.55327C17.4534 4.8466 19.6801 3.7666 22.0001 3.7666C26.1067 3.7666 29.3334 6.99327 29.3334 11.0999C29.3334 16.1358 24.8075 20.2399 17.9503 26.4579L17.9334 26.4733L16.0001 28.2333L14.0667 26.4866L14.0141 26.4388C7.17692 20.2256 2.66675 16.127 2.66675 11.0999C2.66675 6.99327 5.89341 3.7666 10.0001 3.7666C12.3201 3.7666 14.5467 4.8466 16.0001 6.55327ZM16.0001 24.6333L16.1334 24.4999C22.4801 18.7533 26.6667 14.9533 26.6667 11.0999C26.6667 8.43327 24.6667 6.43327 22.0001 6.43327C19.9467 6.43327 17.9467 7.75327 17.2534 9.57994H14.7601C14.0534 7.75327 12.0534 6.43327 10.0001 6.43327C7.33341 6.43327 5.33341 8.43327 5.33341 11.0999C5.33341 14.9533 9.52008 18.7533 15.8667 24.4999L16.0001 24.6333Z" fill="#1B1B1B"/>
</svg>
