<svg width="32" height="32" viewBox="0 0 32 32" fill="none" xmlns="http://www.w3.org/2000/svg">
<path fill-rule="evenodd" clip-rule="evenodd" d="M23.9999 21V14.3333C23.9999 10.24 21.8266 6.81333 17.9999 5.90667V5C17.9999 3.89333 17.1066 3 15.9999 3C14.8933 3 13.9999 3.89333 13.9999 5V5.90667C10.1866 6.81333 7.99992 10.2267 7.99992 14.3333V21L5.33325 23.6667V25H26.6666V23.6667L23.9999 21ZM15.9999 29C17.4666 29 18.6666 27.8 18.6666 26.3333H13.3333C13.3333 27.8 14.5333 29 15.9999 29ZM10.6666 22.3333H21.3333V14.3333C21.3333 11.0267 19.3199 8.33333 15.9999 8.33333C12.6799 8.33333 10.6666 11.0267 10.6666 14.3333V22.3333Z" fill="#1B1B1B"/>
</svg>
