<svg width="14" height="14" viewBox="0 0 14 14" fill="none" xmlns="http://www.w3.org/2000/svg">
<path fill-rule="evenodd" clip-rule="evenodd" d="M6.99992 0.449524C3.31992 0.449524 0.333252 3.43619 0.333252 7.11619C0.333252 10.7962 3.31992 13.7829 6.99992 13.7829C10.6799 13.7829 13.6666 10.7962 13.6666 7.11619C13.6666 3.43619 10.6799 0.449524 6.99992 0.449524ZM6.99992 12.4495C4.05325 12.4495 1.66659 10.0629 1.66659 7.11619C1.66659 4.16952 4.05325 1.78286 6.99992 1.78286C9.94658 1.78286 12.3333 4.16952 12.3333 7.11619C12.3333 10.0629 9.94658 12.4495 6.99992 12.4495ZM3.66658 7.11619C3.66658 5.27524 5.15897 3.78286 6.99992 3.78286C8.84087 3.78286 10.3333 5.27524 10.3333 7.11619C10.3333 8.95714 8.84087 10.4495 6.99992 10.4495C5.15897 10.4495 3.66658 8.95714 3.66658 7.11619Z" fill="#616161"/>
</svg>
