<svg width="106" height="98" viewBox="0 0 106 98" fill="none" xmlns="http://www.w3.org/2000/svg">
<path d="M24.273 44.8829C32.0809 44.9576 38.3495 51.3103 38.2722 59.0745C38.2679 59.6746 38.2121 60.2618 38.1327 60.8384C37.1924 67.7634 31.2072 73.0698 24.0047 72.9993C16.6004 72.9331 10.5959 67.2188 10.0506 60.0056C10.0205 59.6105 9.9969 59.2112 10.0012 58.8055C10.0763 51.0434 16.4652 44.8103 24.273 44.8829ZM25.4452 50.2341L25.4065 54.2785C25.8509 54.4002 26.2631 54.5774 26.6495 54.8123L29.5563 51.9744C28.3841 51.069 26.9866 50.4605 25.4452 50.2341ZM31.2716 53.7105L28.3605 56.5527C28.5838 56.9434 28.7555 57.3556 28.8607 57.7933L32.9246 57.836C32.7249 56.2964 32.1517 54.8978 31.2716 53.7105ZM32.9139 60.2639L28.8221 60.2234C28.6997 60.659 28.528 61.069 28.2983 61.4405L31.1599 64.3404C32.0616 63.183 32.6842 61.7907 32.9139 60.2639ZM29.3974 66.0401L26.5508 63.1488C26.1686 63.3666 25.75 63.5268 25.3185 63.6336L25.2799 67.6865C26.8105 67.4922 28.2102 66.9092 29.3974 66.0401ZM15.3746 57.6695L19.4406 57.71C19.5565 57.268 19.7369 56.8644 19.9644 56.4758L17.1071 53.5845C16.2033 54.744 15.6 56.1363 15.3746 57.6695ZM22.9978 50.2085C21.45 50.4092 20.0439 50.9879 18.8503 51.8698L21.7012 54.7611C22.0941 54.5369 22.5105 54.3639 22.9592 54.2529L22.9978 50.2085ZM22.8304 67.6651L22.869 63.6143C22.4332 63.4926 22.0232 63.3282 21.6454 63.104L18.7429 65.9419C19.9129 66.8323 21.3019 67.4452 22.8304 67.6651ZM17.0083 64.2186L19.9322 61.3615C19.7111 60.9836 19.5286 60.5778 19.4191 60.1401L15.3574 60.0995C15.5592 61.6263 16.1238 63.0421 17.0083 64.2186Z" fill="#C1C1C1"/>
<path d="M81.7005 44.8829C89.5084 44.9576 95.777 51.3103 95.6997 59.0745C95.6954 59.6746 95.6396 60.2618 95.5602 60.8384C94.6199 67.7634 88.6347 73.0698 81.4322 72.9993C74.0279 72.9331 68.0234 67.2188 67.4781 60.0056C67.448 59.6105 67.4244 59.2112 67.4287 58.8055C67.5038 51.0434 73.8927 44.8103 81.7005 44.8829ZM82.8727 50.2341L82.834 54.2785C83.2784 54.4002 83.6906 54.5774 84.077 54.8123L86.9838 51.9744C85.8116 51.069 84.4141 50.4605 82.8727 50.2341ZM88.6991 53.7105L85.788 56.5527C86.0113 56.9434 86.183 57.3556 86.2882 57.7933L90.3521 57.836C90.1524 56.2964 89.5792 54.8978 88.6991 53.7105ZM90.3414 60.2639L86.2496 60.2234C86.1272 60.659 85.9555 61.069 85.7258 61.4405L88.5874 64.3404C89.4891 63.183 90.1116 61.7907 90.3414 60.2639ZM86.8249 66.0401L83.9783 63.1488C83.5961 63.3666 83.1775 63.5268 82.746 63.6336L82.7074 67.6865C84.238 67.4922 85.6377 66.9092 86.8249 66.0401ZM72.8021 57.6695L76.8681 57.71C76.984 57.268 77.1644 56.8644 77.3919 56.4758L74.5346 53.5845C73.6308 54.744 73.0275 56.1363 72.8021 57.6695ZM80.4253 50.2085C78.8775 50.4092 77.4714 50.9879 76.2778 51.8698L79.1287 54.7611C79.5216 54.5369 79.938 54.3639 80.3867 54.2529L80.4253 50.2085ZM80.2579 67.6651L80.2965 63.6143C79.8607 63.4926 79.4507 63.3282 79.0729 63.104L76.1704 65.9419C77.3404 66.8323 78.7294 67.4452 80.2579 67.6651ZM74.4358 64.2186L77.3597 61.3615C77.1386 60.9836 76.9561 60.5778 76.8466 60.1401L72.7849 60.0995C72.9867 61.6263 73.5513 63.0421 74.4358 64.2186Z" fill="#C1C1C1"/>
<path d="M81.6028 44.6304C89.3888 44.6304 95.7004 50.9076 95.7004 58.6525C95.7004 66.3951 89.3888 72.6728 81.6028 72.6728C75.918 72.6728 71.0298 69.3182 68.8002 64.4958L65.4509 67.0643C65.4509 67.0643 40.8383 67.239 39.4863 66.4794C39.4863 66.4794 42.5406 58.1838 38.6637 54.6774C38.2555 54.3082 37.7426 53.8871 37.1785 53.441C37.8284 55.0518 38.1937 56.8071 38.1937 58.6512C38.1937 66.3952 31.8826 72.6713 24.0966 72.6713C16.3106 72.6713 10 66.3925 10 58.6512C10 50.9063 16.312 44.6306 24.0966 44.6306C24.2244 44.6306 24.3464 44.6467 24.4737 44.6492C23.4554 43.9919 22.8057 43.5792 22.8057 43.5792L23.8629 42.6438C23.8629 42.6438 20.8083 41.9437 21.5118 40.424C22.2177 38.9042 29.6183 29.7912 29.6183 29.7912C29.6183 29.7912 28.3074 26.9864 31.0187 25L32.3208 27.8043C32.3208 27.8043 35.6399 25.5258 36.9611 25.9646C38.2828 26.4021 40.2641 26.6219 40.883 27.5854L41.499 28.1554C41.499 28.1554 41.6733 29.1639 40.6623 30.6536C40.6623 30.6536 30.4844 33.7642 30.0006 36.0424C30.0006 36.0424 29.2947 37.4897 32.3355 37.8384L32.9508 38.628L34.5827 38.7154L37.5329 32.011C37.5329 32.011 40.3545 32.7557 41.807 33.8943L41.5867 35.0328C41.5867 35.0328 53.4372 27.0156 64.5839 38.8891C64.5839 38.8891 72.8223 41.2547 78.5937 33.9819C78.5937 33.9819 78.6816 31.616 92.6029 32.0544L91.6333 33.0622C91.6333 33.0622 92.6029 33.1496 92.9988 33.763C93.3947 34.3756 92.7787 35.033 89.6062 35.033C89.6062 35.033 82.4237 43.1824 76.9172 42.7014L69.0761 46.47L65.5952 52.3848C65.5952 52.3848 65.589 52.8929 65.5531 53.6701C66.3609 53.8413 67.2666 54.0312 68.2275 54.2339C70.0904 48.6571 75.3687 44.6304 81.6028 44.6304ZM24.0967 48.927C18.7043 48.927 14.3193 53.2896 14.3193 58.651C14.3193 64.0131 18.7058 68.3742 24.0967 68.3742C29.489 68.3742 33.8733 64.0116 33.8733 58.651C33.8733 53.2896 29.4888 48.927 24.0967 48.927ZM81.6028 68.3759C86.9937 68.3759 91.3803 64.0131 91.3803 58.6525C91.3803 53.2896 86.9937 48.9284 81.6028 48.9284C77.4584 48.9284 73.9171 51.5107 72.4972 55.1386C77.6814 56.2353 82.8271 57.3261 82.8271 57.3261L82.1632 60.9628L72.0115 60.5169C72.8861 64.9884 76.8522 68.3759 81.6028 68.3759ZM64.6701 60.1936C64.3819 61.1668 64.0062 61.9403 63.5122 62.2724L68.0426 62.4486C67.8485 61.7584 67.7019 61.05 67.6137 60.321L64.6701 60.1936Z" fill="#C1C1C1"/>
</svg>
