<svg width="106" height="99" viewBox="0 0 106 99" fill="none" xmlns="http://www.w3.org/2000/svg">
<path d="M20.7655 49.7239C16.7028 49.7239 13.4092 52.8737 13.4092 56.7624C13.4092 57.0634 13.4348 57.3578 13.4743 57.6475C13.9298 61.1172 17.0173 63.8009 20.7655 63.8009C24.6172 63.8009 27.7718 60.9682 28.0913 57.3625C28.11 57.1634 28.1228 56.9643 28.1228 56.7605C28.1238 52.8737 24.8302 49.7239 20.7655 49.7239ZM17.0804 54.1108L18.5813 55.5461C18.464 55.7376 18.3732 55.9452 18.3141 56.1651H16.1989C16.3103 55.3979 16.617 54.7006 17.0804 54.1108ZM16.193 57.3852H18.3229C18.3841 57.6013 18.4709 57.807 18.5892 57.9948L17.0864 59.4329C16.6209 58.8469 16.3064 58.1476 16.193 57.3852ZM20.1295 61.1361C19.3317 61.0314 18.6079 60.7313 17.9956 60.2906L19.4915 58.8582C19.6877 58.9677 19.9037 59.0479 20.1295 59.1054V61.1361ZM20.1295 54.4222C19.8977 54.4807 19.6808 54.5666 19.4787 54.6808L17.9788 53.2455C18.5951 52.7973 19.3258 52.5019 20.1295 52.3953V54.4222ZM21.4025 52.3953C22.2042 52.5019 22.9359 52.7992 23.5522 53.2464L22.0534 54.6808C21.8512 54.5666 21.6333 54.4788 21.4025 54.4222V52.3953ZM21.4025 61.1352V59.1054C21.6284 59.0479 21.8433 58.9677 22.0396 58.8563L23.5375 60.2906C22.9251 60.7304 22.2003 61.0304 21.4025 61.1352ZM24.4506 59.4385L22.9419 57.9938C23.0582 57.8061 23.1558 57.6032 23.216 57.3843H25.3302C25.2178 58.1477 24.916 58.8525 24.4506 59.4385ZM23.217 56.166C23.1568 55.9462 23.0671 55.7386 22.9497 55.547L24.4506 54.1117C24.915 54.7015 25.2217 55.3989 25.3322 56.1679L23.217 56.166Z" fill="#C1C1C1"/>
<path d="M81.5181 49.7853C77.4722 49.7853 74.1934 52.9219 74.1934 56.7946C74.1934 57.0937 74.218 57.3862 74.2565 57.6759C74.7101 61.1296 77.7848 63.8038 81.5172 63.8038C85.3521 63.8038 88.4929 60.9833 88.8104 57.3928C88.8291 57.1946 88.8419 56.9965 88.8419 56.7946C88.8439 52.9219 85.5651 49.7853 81.5181 49.7853ZM77.8498 54.1533L79.3448 55.5839C79.2284 55.7745 79.1377 55.9811 79.0785 56.2001H76.9722C77.0817 55.4338 77.3874 54.7403 77.8498 54.1533ZM76.9653 57.4136H79.0854C79.1466 57.6297 79.2333 57.8325 79.3507 58.0213L77.8528 59.4556C77.3923 58.8705 77.0777 58.1722 76.9653 57.4136ZM80.8851 61.1494C80.0913 61.0437 79.3714 60.7446 78.761 60.3039L80.25 58.879C80.4453 58.9875 80.6612 59.0687 80.8861 59.1244V61.1494H80.8851ZM80.8851 54.4628C80.6553 54.5204 80.4384 54.6063 80.2382 54.7195L78.7452 53.2909C79.3586 52.8464 80.0863 52.5511 80.8851 52.4444V54.4628ZM82.1532 52.4444C82.9539 52.5511 83.6807 52.8483 84.293 53.2918L82.8011 54.7195C82.5999 54.6063 82.3839 54.5185 82.1532 54.4628V52.4444ZM82.1532 61.1485V59.1244C82.379 59.0687 82.593 58.9866 82.7892 58.8771L84.2792 60.3039C83.6688 60.7436 82.948 61.0418 82.1532 61.1485ZM85.1874 59.4584L83.6856 58.0203C83.801 57.8325 83.8986 57.6315 83.9578 57.4136H86.0621C85.9507 58.1722 85.6509 58.8734 85.1874 59.4584ZM83.9597 56.1991C83.9006 55.9802 83.8118 55.7735 83.6935 55.5829L85.1884 54.1524C85.6509 54.7393 85.9556 55.4329 86.0651 56.1991H83.9597Z" fill="#C1C1C1"/>
<path d="M101.972 51.9019C101.946 50.9743 101.645 50.0703 101.102 49.2984L100.705 48.7322L98.9728 44.3585C98.6464 43.5328 97.8496 42.9582 96.9315 42.8846C95.2275 42.7468 92.3333 42.5373 89.5703 42.4401C79.9124 37.5323 62.054 32.5981 46.9094 37.9758C43.8022 39.0789 34.9243 43.396 34.9243 43.396C34.9243 43.396 20.5075 43.0469 10.2253 46.5562C6.17443 47.9386 3.61943 51.7868 4.04641 55.8831C4.13221 56.7031 4.25843 57.4325 4.38268 58.0213C4.57891 58.9527 5.38259 59.6547 6.36968 59.7595L12.7665 60.4304C12.3642 59.6264 12.0812 58.7574 11.9599 57.8307C11.9086 57.4523 11.883 57.1022 11.883 56.7625C11.883 52.0755 15.8678 48.2623 20.7658 48.2623C25.6648 48.2623 29.6506 52.0765 29.6506 56.7625C29.6506 57.0079 29.6339 57.2475 29.6131 57.4872C29.5195 58.5394 29.2197 59.5368 28.7572 60.4455H73.1763L73.5362 60.4257C73.1418 59.6312 72.8627 58.7715 72.7434 57.859C72.6921 57.4787 72.6674 57.1296 72.6674 56.7955C72.6674 52.1246 76.6375 48.3236 81.5197 48.3236C86.4019 48.3236 90.3729 52.1227 90.3729 56.7955C90.3729 57.0399 90.3562 57.2777 90.3355 57.5165C90.2743 58.2091 90.1156 58.8734 89.8888 59.5075L90.8877 59.45L97.7697 58.579C98.9669 58.4271 100.023 57.7524 100.627 56.7521L101.313 55.6207C101.785 54.8375 102.024 53.9439 101.998 53.0399L101.972 51.9019ZM77.593 43.4724H43.9067C43.9067 43.4724 44.1069 42.7091 43.2263 41.7871C43.2263 41.7871 51.838 36.4717 65.1376 37.7993C68.797 38.1655 73.269 38.4136 79.3572 41.4418L77.593 43.4724Z" fill="#C1C1C1"/>
</svg>
