<svg width="106" height="99" viewBox="0 0 106 99" fill="none" xmlns="http://www.w3.org/2000/svg">
<path d="M20.1106 50.3151C15.6696 50.3151 12.0674 53.7851 12.0674 58.069C12.0674 58.4027 12.0949 58.7267 12.1386 59.0447C12.6374 62.8692 16.0127 65.8278 20.1106 65.8278C24.3236 65.8278 27.7721 62.7072 28.1223 58.7316C28.1406 58.5107 28.1569 58.2938 28.1569 58.068C28.1569 53.7851 24.5557 50.3151 20.1106 50.3151ZM16.0819 55.1476L17.7237 56.73C17.5954 56.9421 17.4947 57.1688 17.4316 57.4123H15.12C15.2391 56.5671 15.574 55.7975 16.0819 55.1476ZM15.1108 58.7551H17.4397C17.5059 58.9947 17.6036 59.2224 17.7318 59.4305L16.087 61.0139C15.5801 60.369 15.234 59.5974 15.1108 58.7551ZM19.4144 62.8908C18.5451 62.7759 17.7502 62.4461 17.0814 61.9592L18.7171 60.3817C18.9309 60.5025 19.167 60.5918 19.4144 60.6526V62.8908ZM19.4144 55.4902C19.162 55.5531 18.9258 55.6512 18.7039 55.7759L17.0662 54.1964C17.7379 53.7027 18.539 53.3768 19.4154 53.259L19.4144 55.4902ZM20.8078 53.259C21.6863 53.3768 22.4853 53.7027 23.1591 54.1974L21.5214 55.7759C21.3005 55.6512 21.0633 55.5531 20.8089 55.4902L20.8078 53.259ZM20.8078 62.8908V60.6526C21.0562 60.5908 21.2913 60.5015 21.5071 60.3788L23.1418 61.9592C22.4731 62.4441 21.6802 62.774 20.8078 62.8908ZM24.1404 61.0178L22.4914 59.4285C22.6186 59.2195 22.7245 58.9976 22.7907 58.7551H25.1022C24.9801 59.5974 24.6503 60.3739 24.1404 61.0178ZM22.7917 57.4133C22.7286 57.1698 22.6288 56.9431 22.5016 56.731L24.1414 55.1486C24.6503 55.7975 24.9852 56.5671 25.1053 57.4142H22.7917V57.4133Z" fill="#C1C1C1"/>
<path d="M78.0945 50.3151C73.6535 50.3151 70.0522 53.7851 70.0522 58.069C70.0522 58.4027 70.0787 58.7267 70.1204 59.0447C70.6192 62.8692 73.9965 65.8278 78.0945 65.8278C82.3074 65.8278 85.755 62.7072 86.1051 58.7316C86.1255 58.5107 86.1397 58.2938 86.1397 58.068C86.1397 53.7851 82.5385 50.3151 78.0945 50.3151ZM74.0647 55.1476L75.7065 56.73C75.5783 56.9421 75.4785 57.1688 75.4144 57.4123H73.1028C73.2219 56.5671 73.5578 55.7975 74.0647 55.1476ZM73.0947 58.7551H75.4236C75.4887 58.9947 75.5864 59.2224 75.7147 59.4305L74.0698 61.0139C73.5649 60.369 73.2178 59.5974 73.0947 58.7551ZM77.3982 62.8908C76.5279 62.7759 75.734 62.4461 75.0642 61.9592L76.699 60.3817C76.9137 60.5025 77.1499 60.5918 77.3982 60.6526V62.8908ZM77.3982 55.4902C77.1438 55.5531 76.9076 55.6512 76.6867 55.7759L75.05 54.1964C75.7218 53.7027 76.5218 53.3768 77.4003 53.259L77.3982 55.4902ZM78.7897 53.259C79.6671 53.3768 80.4661 53.7027 81.1409 54.1974L79.5042 55.7759C79.2823 55.6512 79.0462 55.5531 78.7917 55.4902L78.7897 53.259ZM78.7897 62.8908V60.6526C79.038 60.5908 79.2731 60.5015 79.4889 60.3788L81.1247 61.9592C80.4559 62.4441 79.663 62.774 78.7897 62.8908ZM82.1232 61.0178L80.4742 59.4285C80.6015 59.2195 80.7073 58.9976 80.7745 58.7551H83.0861C82.9619 59.5974 82.6331 60.3739 82.1232 61.0178ZM80.7755 57.4133C80.7124 57.1698 80.6127 56.9431 80.4854 56.731L82.1252 55.1486C82.6331 55.7975 82.968 56.5671 83.0871 57.4142H80.7755V57.4133Z" fill="#C1C1C1"/>
<path d="M101.75 52.5128H100.163L99.7561 43.3159C99.7316 42.7485 99.243 42.3028 98.6547 42.3077L76.7338 42.5011V34.864C76.7338 34.1533 76.1363 33.578 75.3994 33.578H74.354C73.6181 33.578 73.0206 34.1533 73.0206 34.864V42.5345L70.1095 42.56L69.5252 35.8005C69.4031 34.3869 68.1776 33.2983 66.7057 33.2983H40.0823C39.153 33.2983 38.2603 33.6448 37.5905 34.2642L28.6516 42.5374L11.5401 44.2788C9.16847 44.5193 6.99735 45.6737 5.5194 47.4799L3.75746 49.6337C2.41794 50.4317 1.74716 51.9631 2.08815 53.4473L2.61846 55.76C2.84748 56.7623 3.65975 57.5417 4.69899 57.7586L10.5385 58.9837C10.5049 58.6676 10.4734 58.3565 10.4734 58.0688C10.4734 52.9437 14.7973 48.7747 20.1126 48.7747C25.43 48.7747 29.7549 52.9447 29.7549 58.0688C29.7549 58.3358 29.7366 58.5979 29.7152 58.86C29.7091 58.9278 29.6949 58.9935 29.6878 59.0603H68.5267C68.486 58.7128 68.4555 58.381 68.4555 58.0688C68.4555 52.9437 72.7794 48.7747 78.0957 48.7747C83.4141 48.7747 87.738 52.9447 87.738 58.0688C87.738 58.3358 87.7187 58.5979 87.6983 58.86C87.6922 58.9278 87.677 58.9935 87.6709 59.0603H92.5648L96.9986 56.7034H101.754C102.478 56.7034 103.064 56.1389 103.064 55.441V53.7771C103.06 53.0762 102.474 52.5128 101.75 52.5128ZM35.6617 43.043C35.6617 43.043 36.2306 41.7207 35.6617 40.206L39.1906 35.986C39.3922 35.7455 39.6955 35.6051 40.0151 35.6051H50.5755V43.042L35.6617 43.043ZM54.4841 43.043V35.6061H64.0674C64.6354 35.6061 65.1026 36.038 65.126 36.5848L65.4039 43.043H54.4841Z" fill="#C1C1C1"/>
</svg>
