<svg width="106" height="99" viewBox="0 0 106 99" fill="none" xmlns="http://www.w3.org/2000/svg">
<path d="M21.1069 52.6274C17.0232 52.6274 13.7119 55.9197 13.7119 59.9821C13.7119 60.2952 13.7377 60.6035 13.7773 60.9058C14.2357 64.5309 17.3381 67.3347 21.106 67.3347C24.9758 67.3347 28.1485 64.3763 28.4703 60.6084C28.4871 60.4026 28.501 60.1928 28.501 59.9811C28.502 55.9197 25.1916 52.6274 21.1069 52.6274ZM17.4055 57.2108L18.9126 58.7107C18.7957 58.9106 18.7037 59.1263 18.6442 59.3567H16.5192C16.6281 58.557 16.9361 57.8263 17.4055 57.2108ZM16.5093 60.6301H18.6512C18.7116 60.8566 18.8007 61.0713 18.9195 61.2682L17.4084 62.7701C16.9401 62.1595 16.6252 61.4288 16.5093 60.6301ZM20.4673 64.5506C19.6662 64.4394 18.9383 64.1272 18.3224 63.6653L19.8256 62.1693C20.0236 62.2846 20.2405 62.3693 20.4673 62.4284V64.5506ZM20.4673 57.5358C20.2346 57.5968 20.0167 57.6874 19.8137 57.8066L18.3076 56.3087C18.9265 55.8409 19.6612 55.5317 20.4673 55.4204V57.5358ZM21.7476 55.4184C22.5537 55.5297 23.2894 55.8409 23.9073 56.3077L22.4022 57.8056C22.2002 57.6865 21.9803 57.5959 21.7486 57.5348L21.7476 55.4184ZM21.7476 64.5487V62.4293C21.9754 62.3693 22.1903 62.2856 22.3883 62.1693L23.8925 63.6653C23.2765 64.1272 22.5477 64.4374 21.7476 64.5487ZM24.8094 62.777L23.2934 61.2673C23.4122 61.0693 23.5082 60.8576 23.5687 60.6311H25.6937C25.5808 61.4268 25.2788 62.1634 24.8094 62.777ZM23.5716 59.3567C23.5112 59.1263 23.4201 58.9106 23.3033 58.7107L24.8124 57.2108C25.2788 57.8263 25.5867 58.557 25.6976 59.3577H23.5716V59.3567Z" fill="#C1C1C1"/>
<path d="M82.5103 52.6274C78.4266 52.6274 75.1152 55.9197 75.1152 59.9821C75.1152 60.2952 75.141 60.6035 75.1806 60.9058C75.6391 64.5309 78.7415 67.3347 82.5083 67.3347C86.3781 67.3347 89.5508 64.3763 89.8736 60.6084C89.8904 60.4026 89.9043 60.1928 89.9043 59.9811C89.9063 55.9197 86.595 52.6274 82.5103 52.6274ZM78.8088 57.2108L80.3149 58.7107C80.1981 58.9106 80.106 59.1263 80.0466 59.3567H77.9215C78.0315 58.557 78.3394 57.8263 78.8088 57.2108ZM77.9136 60.6301H80.0555C80.1159 60.8566 80.205 61.0713 80.3238 61.2682L78.8137 62.7701C78.3434 62.1595 78.0275 61.4288 77.9136 60.6301ZM81.8706 64.5506C81.0695 64.4394 80.3417 64.1272 79.7257 63.6653L81.2289 62.1693C81.427 62.2846 81.6438 62.3693 81.8706 62.4284V64.5506ZM81.8706 57.5358C81.6379 57.5968 81.42 57.6874 81.217 57.8066L79.7109 56.3087C80.3298 55.8409 81.0635 55.5317 81.8706 55.4204V57.5358ZM83.1519 55.4184C83.958 55.5297 84.6937 55.8409 85.3116 56.3077L83.8055 57.8056C83.6035 57.6865 83.3836 57.5939 83.1519 57.5348V55.4184ZM83.1519 64.5487V62.4293C83.3797 62.3693 83.5946 62.2856 83.7926 62.1693L85.2968 63.6653C84.6809 64.1272 83.9511 64.4374 83.1519 64.5487ZM86.2127 62.777L84.6967 61.2692C84.8155 61.0703 84.9126 60.8595 84.972 60.632H87.097C86.9841 61.4268 86.6831 62.1634 86.2127 62.777ZM84.975 59.3567C84.9145 59.1263 84.8244 58.9106 84.7066 58.7107L86.2147 57.2108C86.6821 57.8263 86.9891 58.557 87.101 59.3577H84.975V59.3567Z" fill="#C1C1C1"/>
<path d="M100.267 48.8202V43.3781C100.267 42.5026 99.627 41.761 98.7576 41.6261C96.6712 41.3011 92.9727 40.6875 91.3111 40.1784C88.9286 39.4477 79.7234 35.5714 76.5358 34.8436C73.3473 34.1159 58.9712 30.2298 45.202 34.9766C42.872 35.7792 32.3904 40.7624 26.2273 43.3534C24.4122 43.3928 6.44644 47.1174 5.48988 49.6701C4.53332 52.2237 4.23328 53.4626 4.05702 54.1106C3.88076 54.7586 4.05702 57.8598 5.39185 60.0195C6.75242 60.7847 9.37158 61.2988 12.3997 61.6435C12.365 61.4593 12.3274 61.2781 12.3036 61.092C12.2512 60.6941 12.2264 60.3307 12.2264 59.9841C12.2264 55.1141 16.2091 51.1512 21.1068 51.1512C26.0045 51.1512 29.9872 55.1132 29.9872 59.9841C29.9872 60.2342 29.9703 60.4824 29.9515 60.7266C29.905 61.2732 29.8059 61.804 29.6624 62.3151C29.6693 62.3151 29.6861 62.3151 29.6861 62.3151L73.7672 61.4327C73.7474 61.3195 73.7216 61.2072 73.7068 61.092C73.6543 60.6961 73.6295 60.3317 73.6295 59.9841C73.6295 55.1141 77.6122 51.1522 82.5099 51.1522C87.4076 51.1522 91.3913 55.1132 91.3913 59.9841C91.3913 60.0028 91.3893 60.0185 91.3883 60.0363L91.5764 60.0205L99.1131 58.6093C99.1131 58.6093 102 57.0808 102 52.8757C102.001 50.0709 100.267 48.8202 100.267 48.8202ZM56.5392 43.6607L40.0766 44.162C40.3796 41.7088 38.919 41.1583 38.919 41.1583C45.4634 35.2504 58.6533 35.0504 58.6533 35.0504L56.5392 43.6607ZM75.0148 42.9113L60.0129 43.4125L61.3725 35.0514C69.126 34.951 73.5553 36.6527 73.5553 36.6527L75.7704 40.2079L75.0148 42.9113ZM83.4724 42.8601H79.2926L75.1139 37.153C78.2489 38.3939 80.7582 39.6171 82.2524 40.3901C83.1595 40.8589 83.6546 41.8605 83.4724 42.8601Z" fill="#C1C1C1"/>
</svg>
