<svg width="106" height="99" viewBox="0 0 106 99" fill="none" xmlns="http://www.w3.org/2000/svg">
<path d="M102.147 51.9993L101.456 51.8954C101.704 42.7611 100.217 40.9213 98.5531 35.3274H99.4683C99.9031 35.3274 100.254 34.9875 100.254 34.5692V33.6983C100.254 33.2799 99.9011 32.941 99.4683 32.941H43.7737C42.9559 32.941 42.1544 33.1526 41.4515 33.5533L24.5715 43.1696C24.5715 43.1696 7.67324 43.827 5.05444 46.3261C3.73082 47.5889 2.53417 50.0801 2.09737 52.9554C1.66056 55.8298 2.80134 58.8941 3.44943 59.5554C4.09854 60.2167 5.13875 60.5331 5.13875 60.5331L5.55118 61.2884C5.81732 61.7743 6.34352 62.0731 6.9134 62.0594L9.62972 61.9967V54.7639C9.62972 51.9591 11.9905 49.6814 14.9008 49.6814H22.1122C24.6629 49.6814 26.7322 51.675 26.7322 54.1379V61.5951L26.8551 61.5921L70.9582 60.9387L71.5931 61.0004V54.7629C71.5931 51.9581 73.9538 49.6804 76.8632 49.6804H84.0766C86.6283 49.6804 88.6955 51.674 88.6955 54.1369V62.2906L94.7813 61.0445C95.1013 60.9789 95.3756 60.7741 95.5219 60.49L95.9668 59.6357L102.122 58.8589C102.66 58.7913 103.063 58.3475 103.063 57.8224V53.0289C103.061 52.5175 102.673 52.0796 102.147 51.9993ZM49.1697 43.6389C49.0346 43.778 48.8457 43.8573 48.6466 43.8573H35.2123C35.2123 43.8573 36.0371 43.4488 36.4689 42.8659C36.9016 42.285 36.6619 40.9086 36.1763 40.4442C35.7304 40.019 34.8334 39.73 34.8334 39.73L41.5896 35.7183C42.0224 35.4607 42.5201 35.3255 43.0291 35.3255H48.7461C48.9371 35.3255 49.12 35.3989 49.254 35.5302C49.3881 35.6615 49.4623 35.8378 49.4592 36.023L49.3607 43.1197C49.3739 43.3117 49.3059 43.4988 49.1697 43.6389ZM66.0426 43.0628C65.5916 43.5909 64.9221 43.9024 64.2111 43.9181L53.4585 44.1434C53.2666 44.1473 53.0796 44.0778 52.9425 43.9484C52.8044 43.8181 52.7271 43.6398 52.7271 43.4547V36.0142C52.7271 35.6341 53.0461 35.3265 53.4403 35.3265H65.3742C65.7439 35.3265 66.0517 35.5978 66.0842 35.9534L66.5658 41.1682C66.6846 41.8432 66.4936 42.5358 66.0426 43.0628ZM97.8512 43.0687C97.7882 43.1716 97.6734 43.2333 97.5495 43.2343L75.7072 43.393C74.7614 43.3998 73.8797 42.9345 73.3728 42.1635L71.0831 36.2552C71.0008 36.0436 71.0313 35.8075 71.1644 35.6223C71.2985 35.4372 71.5179 35.3265 71.7505 35.3265H94.8565C95.1674 35.3265 95.4396 35.5185 95.5361 35.8026L97.8603 42.7327C97.9192 42.8395 97.9152 42.9668 97.8512 43.0687Z" fill="#C1C1C1"/>
<path d="M18.1775 51.1498C13.8755 51.1498 10.3831 54.513 10.3831 58.6657C10.3831 58.988 10.4105 59.2996 10.4511 59.6121C10.9357 63.3172 14.2056 66.1846 18.1765 66.1846C22.2621 66.1846 25.6022 63.1614 25.9414 59.3074C25.9607 59.0929 25.975 58.8822 25.975 58.6657C25.976 54.513 22.4856 51.1498 18.1775 51.1498ZM14.2737 55.8345L15.8665 57.3657C15.7415 57.5744 15.642 57.7948 15.5831 58.0299H13.3411C13.4569 57.209 13.782 56.4625 14.2737 55.8345ZM13.333 59.3309H15.5922C15.6562 59.5602 15.7486 59.7806 15.8756 59.9834L14.2798 61.5185C13.7881 60.8945 13.4529 60.146 13.333 59.3309ZM17.503 63.3358C16.6609 63.227 15.8919 62.9067 15.2428 62.4345L16.8285 60.9043C17.0347 61.0218 17.2653 61.107 17.503 61.1688V63.3358ZM17.503 56.1666C17.2602 56.2274 17.0296 56.3224 16.8143 56.4429L15.2285 54.9117C15.8797 54.4326 16.6537 54.1162 17.502 54.0016L17.503 56.1666ZM18.852 54.0026C19.7053 54.1162 20.4794 54.4316 21.1315 54.9146L19.5438 56.4439C19.3315 56.3243 19.0988 56.2274 18.851 56.1686L18.852 54.0026ZM18.852 63.3358V61.1678C19.0927 61.107 19.3213 61.0218 19.5316 60.9023L21.1153 62.4345C20.4672 62.9057 19.6982 63.2251 18.852 63.3358ZM22.0833 61.5224L20.4865 59.9814C20.6084 59.7806 20.712 59.5641 20.775 59.3309H23.0138C22.896 60.146 22.578 60.8994 22.0833 61.5224ZM20.775 58.0299C20.716 57.7958 20.6185 57.5744 20.4956 57.3657L22.0844 55.8345C22.578 56.4654 22.9031 57.209 23.0189 58.0299H20.775Z" fill="#C1C1C1"/>
<path d="M80.1407 51.1498C75.8377 51.1498 72.3442 54.513 72.3442 58.6657C72.3442 58.988 72.3707 59.2996 72.4133 59.6121C72.8968 63.3172 76.1678 66.1846 80.1387 66.1846C84.2233 66.1846 87.5633 63.1614 87.9026 59.3074C87.9229 59.0929 87.9361 58.8822 87.9361 58.6657C87.9382 54.513 84.4498 51.1498 80.1407 51.1498ZM76.2369 55.8345L77.8277 57.3657C77.7027 57.5744 77.6042 57.7948 77.5453 58.0299H75.3044C75.4191 57.209 75.7442 56.4625 76.2369 55.8345ZM75.2952 59.3309H77.5544C77.6184 59.5602 77.7098 59.7806 77.8368 59.9834L76.243 61.5185C75.7503 60.8945 75.4151 60.146 75.2952 59.3309ZM79.4652 63.3358C78.622 63.227 77.8531 62.9067 77.2039 62.4345L78.7907 60.9043C78.9969 61.0218 79.2285 61.107 79.4652 61.1688V63.3358ZM79.4652 56.1666C79.2234 56.2274 78.9918 56.3224 78.7754 56.4429L77.1897 54.9117C77.8399 54.4326 78.6139 54.1162 79.4631 54.0016L79.4652 56.1666ZM80.8162 54.0026C81.6685 54.1162 82.4426 54.4316 83.0947 54.9146L81.507 56.4439C81.2947 56.3243 81.062 56.2274 80.8152 56.1686L80.8162 54.0026ZM80.8162 63.3358V61.1678C81.0549 61.107 81.2845 61.0218 81.4948 60.9023L83.0785 62.4345C82.4294 62.9057 81.6614 63.2251 80.8162 63.3358ZM84.0465 61.5224L82.4487 59.9814C82.5706 59.7806 82.6752 59.5641 82.7382 59.3309H84.977C84.8592 60.146 84.5402 60.8994 84.0465 61.5224ZM82.7382 58.0299C82.6782 57.7958 82.5807 57.5744 82.4598 57.3657L84.0476 55.8345C84.5392 56.4654 84.8663 57.209 84.9821 58.0299H82.7382Z" fill="#C1C1C1"/>
</svg>
