<svg width="106" height="99" viewBox="0 0 106 99" fill="none" xmlns="http://www.w3.org/2000/svg">
<path d="M29.7236 65.7867C30.7321 65.7867 31.571 66.5368 31.747 67.5237C31.7684 67.6498 31.7834 67.7759 31.7834 67.9087C31.7834 68.526 31.526 69.0814 31.1162 69.4708C30.7493 69.8182 30.2622 70.0329 29.7236 70.0329C29.1872 70.0329 28.698 69.8204 28.3333 69.4708C27.9235 69.0836 27.666 68.5282 27.666 67.9087C27.666 67.7759 27.6789 67.6498 27.7025 67.5237C27.8763 66.5368 28.7152 65.7867 29.7236 65.7867Z" fill="#C1C1C1"/>
<path d="M82.4888 66.7004C82.86 66.1494 83.478 65.7888 84.1775 65.7888C84.8769 65.7888 85.4949 66.1494 85.8661 66.7004C86.0291 66.9438 86.1471 67.2226 86.2008 67.5257C86.2222 67.6518 86.2351 67.778 86.2351 67.9107C86.2351 68.528 85.9776 69.0834 85.5678 69.4729C85.2009 69.8203 84.7139 70.0349 84.1753 70.0349C83.6389 70.0349 83.1518 69.8225 82.7849 69.4729C82.3751 69.0856 82.1177 68.5303 82.1177 67.9107C82.1177 67.778 82.1305 67.6518 82.1541 67.5257C82.2099 67.2226 82.3258 66.9438 82.4888 66.7004Z" fill="#C1C1C1"/>
<path d="M21.1557 59.9781C21.1857 61.0888 21.1857 62.1664 21.1557 63.2771C19.3727 63.3081 17.5575 63.3081 15.7723 63.2462C15.7423 62.1686 15.7423 61.0888 15.8045 59.9803C17.5875 59.9449 19.3705 59.9449 21.1557 59.9781Z" fill="#C1C1C1"/>
<path d="M85.985 60.7607L92.2003 60.7969C92.4158 60.7981 92.5898 60.9732 92.5898 61.1887V65.9167C92.5898 66.3495 92.239 66.7004 91.8061 66.7004H90.9164C90.9121 66.676 90.91 66.6495 90.9057 66.6251C90.5702 63.5978 88.1247 61.3912 85.985 60.7607Z" fill="#C1C1C1"/>
<path d="M15.4398 63.0074C15.4642 60.1677 15.4016 57.3516 15.4631 54.5164C15.4794 53.7681 15.9232 53.0979 16.6001 52.7785C17.241 52.476 17.8842 52.1713 18.5274 51.8622C19.2333 51.5236 19.9371 51.1807 20.6365 50.8266C20.7309 50.789 20.8168 50.7448 20.9004 50.6983C22.3316 49.9062 22.2865 47.9148 22.8315 46.5075C23.3958 44.12 24.3292 41.7989 24.8956 39.4159C24.9992 38.9791 25.0905 38.5402 25.1652 38.0985C25.4664 36.316 26.8719 34.7531 28.6797 34.7451C31.6717 34.7319 34.6529 34.7533 37.6342 34.7759C36.7649 34.7694 36.293 34.7661 36.777 34.7695L36.9189 34.7715C37.3407 34.7777 37.682 35.1167 37.691 35.5385L37.6964 35.7938V39.9912V39.8865C37.7088 46.5508 37.741 53.3346 37.6842 60.008C37.6805 60.4437 38.0326 60.7992 38.4683 60.7992H81.5854C79.1566 61.6953 77.4572 63.6846 77.0002 66.4349C76.9731 66.5885 76.839 66.7003 76.6831 66.7003H37.4111C37.0422 66.7003 36.7262 66.4422 36.6289 66.0863C35.7716 62.9494 33.6396 60.4454 29.6192 60.4454C25.8544 60.4454 23.6887 62.3716 22.736 65.9177C22.6415 66.2697 22.3309 66.5265 21.9664 66.5295C19.717 66.5476 17.0777 66.5284 14.8116 66.5241C14.3787 66.5233 14.028 66.1725 14.0243 65.7397C14.0188 65.1057 14.0087 64.4673 14.0034 63.8335C14 63.42 14.3214 63.0773 14.734 63.0509C14.9665 63.0361 15.1996 63.0215 15.4398 63.0074ZM31.7509 50.2626C32.0253 50.2624 32.2485 50.0412 32.2511 49.7668C32.2784 46.937 32.3214 44.1055 32.2328 41.2739C32.2244 41.005 32.0035 40.7922 31.7345 40.7917C29.9651 40.7883 28.1767 40.7708 26.4065 40.8369C26.1869 40.845 25.9996 40.9972 25.9438 41.2096C25.2067 44.0131 24.3419 46.796 23.5975 49.6207C23.5154 49.9324 23.7474 50.2377 24.0697 50.2429C26.6364 50.2845 29.1835 50.2651 31.7509 50.2626Z" fill="#C1C1C1"/>
<path d="M89.52 27.4818C92.3821 28.973 92.5758 54.3502 92.5889 57.7773C92.5897 57.9937 92.4144 58.1591 92.198 58.1591H40.5273C40.0945 58.1591 39.7436 57.8083 39.7436 57.3754V33.1528C39.7436 32.9364 39.5682 32.761 39.3518 32.761H27.4533C27.2369 32.761 27.0614 32.5856 27.0614 32.3691V27.8367C27.0614 27.6353 27.2096 27.4671 27.4101 27.4476C50.8201 25.1695 86.4653 25.8903 89.52 27.4818Z" fill="#C1C1C1"/>
<path d="M29.6774 61.3908C33.0542 61.4244 35.7653 64.2728 35.7319 67.7542C35.73 68.0232 35.7059 68.2865 35.6715 68.545C35.2649 71.6501 32.6763 74.0294 29.5614 73.9978C26.3591 73.9681 23.7622 71.4059 23.5264 68.1716C23.5134 67.9945 23.5032 67.8154 23.505 67.6335C23.5375 64.1531 26.3006 61.3583 29.6774 61.3908ZM30.1843 63.7903L30.1676 65.6037C30.3598 65.6583 30.5381 65.7377 30.7052 65.8431L31.9623 64.5706C31.4554 64.1646 30.851 63.8917 30.1843 63.7903ZM32.7042 65.349L31.4452 66.6234C31.5417 66.7986 31.616 66.9834 31.6615 67.1797L33.4191 67.1988C33.3327 66.5085 33.0848 65.8814 32.7042 65.349ZM33.4144 68.2875L31.6448 68.2693C31.5919 68.4646 31.5176 68.6484 31.4183 68.815L32.6559 70.1153C33.0458 69.5963 33.3151 68.9721 33.4144 68.2875ZM31.8936 70.8774L30.6625 69.581C30.4972 69.6787 30.3162 69.7505 30.1296 69.7984L30.1129 71.6156C30.7748 71.5285 31.3802 71.2671 31.8936 70.8774ZM25.829 67.1242L27.5875 67.1423C27.6376 66.9442 27.7156 66.7632 27.814 66.5889L26.5782 65.2925C26.1874 65.8124 25.9265 66.4367 25.829 67.1242ZM29.1259 63.7788C28.4565 63.8688 27.8484 64.1282 27.3321 64.5237L28.5651 65.8201C28.735 65.7196 28.9152 65.642 29.1092 65.5922L29.1259 63.7788ZM29.0535 71.6061L29.0702 69.7897C28.8817 69.7352 28.7044 69.6614 28.541 69.5609L27.2857 70.8334C27.7917 71.2326 28.3924 71.5074 29.0535 71.6061ZM26.5355 70.0607L27.8001 68.7796C27.7044 68.6101 27.6255 68.4282 27.5782 68.2319L25.8215 68.2138C25.9088 68.8983 26.153 69.5331 26.5355 70.0607Z" fill="#C1C1C1"/>
<path d="M84.0891 61.3908C87.4664 61.4244 90.1779 64.2733 90.1445 67.7551C90.1426 68.0242 90.1185 68.2876 90.0841 68.5461C89.6774 71.6516 87.0885 74.0313 83.973 73.9997C80.7703 73.97 78.173 71.4075 77.9372 68.1726C77.9242 67.9955 77.914 67.8164 77.9158 67.6345C77.9483 64.1536 80.7118 61.3583 84.0891 61.3908ZM84.5961 63.7906L84.5794 65.6043C84.7716 65.6589 84.9499 65.7384 85.1171 65.8437L86.3744 64.5711C85.8674 64.165 85.2628 63.8921 84.5961 63.7906ZM87.1163 65.3496L85.8572 66.6242C85.9537 66.7994 86.028 66.9842 86.0735 67.1806L87.8313 67.1997C87.745 66.5093 87.497 65.882 87.1163 65.3496ZM87.8267 68.2885L86.0568 68.2703C86.0039 68.4657 85.9296 68.6495 85.8302 68.8162L87.068 70.1166C87.458 69.5976 87.7273 68.9732 87.8267 68.2885ZM86.3057 70.8788L85.0743 69.5822C84.9091 69.6799 84.728 69.7517 84.5413 69.7996L84.5246 71.6172C85.1867 71.53 85.7922 71.2686 86.3057 70.8788ZM80.2401 67.125L81.9988 67.1432C82.049 66.945 82.127 66.764 82.2254 66.5897L80.9895 65.2931C80.5985 65.8131 80.3376 66.4375 80.2401 67.125ZM83.5375 63.7791C82.868 63.8691 82.2598 64.1287 81.7435 64.5241L82.9767 65.8208C83.1466 65.7202 83.3267 65.6426 83.5208 65.5928L83.5375 63.7791ZM83.4651 71.6076L83.4818 69.791C83.2933 69.7364 83.1159 69.6627 82.9525 69.5621L81.6971 70.8348C82.2031 71.2341 82.8039 71.509 83.4651 71.6076ZM80.9467 70.062L82.2115 68.7807C82.1158 68.6112 82.0369 68.4293 81.9896 68.233L80.2327 68.2148C80.32 68.8995 80.5642 69.5344 80.9467 70.062Z" fill="#C1C1C1"/>
</svg>
