<svg width="44" height="31" viewBox="0 0 44 31" fill="none" xmlns="http://www.w3.org/2000/svg">
<path fill-rule="evenodd" clip-rule="evenodd" d="M39.6 0H4.4C1.98 0 0.022 1.98 0.022 4.4L0 26.4C0 28.82 1.98 30.8 4.4 30.8H39.6C42.02 30.8 44 28.82 44 26.4V4.4C44 1.98 42.02 0 39.6 0ZM39.6 4.4V26.4H4.4V4.4H39.6ZM24.2 6.6H19.8V11H24.2V6.6ZM19.8 13.2H24.2V17.6H19.8V13.2ZM17.6 6.6H13.2V11H17.6V6.6ZM13.2 13.2H17.6V17.6H13.2V13.2ZM11 13.2H6.6V17.6H11V13.2ZM6.6 6.6H11V11H6.6V6.6ZM30.8 19.8H13.2V24.2H30.8V19.8ZM26.4 13.2H30.8V17.6H26.4V13.2ZM30.8 6.6H26.4V11H30.8V6.6ZM33 13.2H37.4V17.6H33V13.2ZM37.4 6.6H33V11H37.4V6.6Z" fill="white"/>
</svg>
