<svg width="759" height="399" viewBox="0 0 759 399" fill="none" xmlns="http://www.w3.org/2000/svg">
<rect x="31.1592" width="674" height="399" fill="url(#paint0_linear)"/>
<path fill-rule="evenodd" clip-rule="evenodd" d="M665.626 298C660.913 298 657.093 301.821 657.093 306.533C657.093 311.246 660.913 315.067 665.626 315.067C670.339 315.067 674.159 311.246 674.159 306.533C674.159 301.821 670.339 298 665.626 298ZM652.826 359.696H644.293C644.293 366.736 638.533 372.496 631.493 372.496C624.453 372.496 618.693 366.736 618.693 359.696C618.693 352.656 624.453 346.896 631.493 346.896V338.363C619.717 338.363 610.159 347.92 610.159 359.696C610.159 371.472 619.717 381.029 631.493 381.029C643.269 381.029 652.826 371.472 652.826 359.696ZM657.69 344.763H665.626C670.319 344.763 674.159 348.603 674.159 353.296V376.763H665.626V355.429H644.378C638.148 355.429 633.924 348.731 636.484 343.056L644.292 325.563H634.863L632.09 332.091L623.898 329.829L626.756 322.149C628.164 319.035 631.279 317.029 634.735 317.029H656.922C663.236 317.029 667.418 323.429 664.815 329.104L657.69 344.763Z" fill="white" style="mix-blend-mode:soft-light"/>
<g style="mix-blend-mode:overlay">
<path d="M8.2993 217.74L6.30435 202.691C4.2691 187.339 6.82069 176.251 13.9591 169.427C21.0774 162.451 31.7807 158.016 46.0691 156.122C56.4053 154.751 75.6475 154.057 103.796 154.037L105.609 167.717L48.3058 172.994C46.4616 173.084 44.8555 173.219 43.4875 173.401C35.7353 174.429 30.1048 176.876 26.5961 180.744C23.0672 184.46 21.9274 191.03 23.1767 200.455L25.1717 215.503C26.421 224.927 29.0511 230.766 33.0619 233.018C37.2247 235.25 43.3342 235.832 51.3904 234.764L83.7671 230.472C107.48 227.329 121.069 238.829 124.535 264.974L126.59 280.478C127.618 288.23 127.182 294.862 125.283 300.372C123.385 305.883 120.25 310.243 115.881 313.452C111.491 316.508 106.925 318.815 102.181 320.372C97.4382 321.929 91.8746 323.13 85.4904 323.977C80.1703 324.682 70.6554 325.247 56.9457 325.673C43.3881 326.078 33.6506 326.132 27.7335 325.833L25.9199 312.153C42.8619 311.608 61.9732 309.926 83.2537 307.104C102.71 304.525 111.532 296.395 109.718 282.715L107.663 267.211C106.715 260.066 104.622 254.776 101.382 251.338C98.1221 247.749 92.9961 246.418 86.0039 247.345L54.0832 251.576C45.419 252.725 38.0578 252.618 31.9995 251.256C26.0933 249.873 21.5761 247.301 18.4479 243.54C15.3198 239.778 13.0378 235.982 11.6018 232.151C10.1457 228.168 9.04489 223.364 8.2993 217.74ZM142.979 229.119C139.151 200.238 140.195 178.368 146.114 163.508C152.184 148.628 165.936 139.767 187.368 136.926C203.937 134.729 222.733 134.171 243.757 135.251L245.541 148.703L243.489 148.975C242.1 149.004 240.256 149.094 237.956 149.244C235.656 149.395 232.976 149.595 229.915 149.846C227.007 150.077 223.795 150.348 220.279 150.66C216.762 150.971 213.246 151.283 209.73 151.594C206.366 151.886 202.86 152.273 199.211 152.757C195.695 153.068 192.493 153.415 189.605 153.798C179.725 155.108 172.301 158.026 167.332 162.551C162.496 166.904 159.44 174.193 158.166 184.415C156.872 194.486 157.454 208.794 159.912 227.338C165.917 272.635 181.84 293.571 207.68 290.145L263.102 281.174L264.886 294.626C247.392 300.348 229.07 304.479 209.917 307.018C172.828 311.934 150.516 285.968 142.979 229.119ZM287.058 295.399L264.932 128.499L336.07 119.069C361.759 115.663 376.819 130.681 381.253 164.121C385.122 193.306 377.585 210.546 358.644 215.841L402.885 280.044L384.644 282.462L340.494 218.943L294.47 221.797L303.931 293.162L287.058 295.399ZM292.475 206.748L346.74 199.554C349.476 199.192 351.594 198.834 353.094 198.48C354.594 198.127 356.347 197.353 358.354 196.159C360.493 194.792 361.964 193.051 362.766 190.933C363.7 188.644 364.361 185.463 364.749 181.39C365.117 177.165 364.918 172.165 364.152 166.388C362.379 153.012 359.234 144.458 354.718 140.726C350.181 136.841 344.721 135.323 338.337 136.169L284.072 143.363L292.475 206.748ZM417.101 203.915L404.648 109.977L421.52 107.74L433.974 201.679C434.78 207.759 435.743 213.277 436.864 218.232C437.985 223.188 439.101 227.526 440.213 231.245C441.457 234.792 442.878 237.929 444.477 240.656C446.228 243.363 447.842 245.624 449.32 247.439C450.778 249.101 452.586 250.486 454.743 251.592C457.053 252.678 459.094 253.49 460.867 254.028C462.619 254.415 464.894 254.655 467.69 254.748C470.467 254.689 472.853 254.605 474.849 254.495C476.977 254.213 479.713 253.85 483.057 253.407C483.361 253.366 483.665 253.326 483.969 253.286C484.425 253.225 484.881 253.165 485.337 253.104C485.793 253.044 486.173 252.994 486.477 252.953C489.669 252.53 492.178 252.198 494.002 251.956C495.805 251.562 498.131 251.022 500.979 250.335C503.827 249.648 506.046 248.89 507.638 248.06C509.209 247.078 511.054 245.828 513.173 244.31C515.272 242.64 516.884 240.802 518.01 238.796C519.116 236.639 520.238 234.016 521.375 230.926C522.512 227.836 523.219 224.417 523.496 220.668C523.904 216.747 524.003 212.249 523.795 207.172C523.717 201.923 523.266 196.183 522.44 189.951L509.986 96.0126L527.087 93.7456L539.54 187.684C541.414 201.82 541.638 214.01 540.212 224.253C538.917 234.323 536.844 242.023 533.993 247.35C531.294 252.658 526.924 257.027 520.882 260.457C514.992 263.867 510.016 265.996 505.952 266.844C501.908 267.845 496.162 268.838 488.714 269.826C488.41 269.866 488.03 269.916 487.574 269.977C487.27 270.017 486.966 270.057 486.662 270.098C486.358 270.138 485.978 270.188 485.522 270.249C485.066 270.309 484.686 270.36 484.382 270.4C479.214 271.085 475.024 271.563 471.812 271.834C468.599 272.106 464.653 272.087 459.972 271.78C455.271 271.32 451.431 270.36 448.453 268.899C445.455 267.285 442.128 264.942 438.473 261.869C434.797 258.644 431.705 254.569 429.195 249.643C426.818 244.544 424.508 238.199 422.264 230.608C420.152 222.845 418.431 213.948 417.101 203.915ZM575.378 257.177L564.196 88.826L587.453 85.7429L650.322 218.704L675.007 74.1359L698.035 71.083L732.929 236.29L716.057 238.527L687.721 103.54L662.932 245.57L645.603 247.867L583.295 117.384L592.25 254.94L575.378 257.177Z" fill="white"/>
</g>
<defs>
<linearGradient id="paint0_linear" x1="-352.341" y1="642.5" x2="928.159" y2="-259" gradientUnits="userSpaceOnUse">
<stop stop-color="#5200FF"/>
<stop offset="0.533282" stop-color="#972F9E" stop-opacity="0.50527"/>
<stop offset="1" stop-color="#FF0000" stop-opacity="0"/>
</linearGradient>
</defs>
</svg>
