<svg width="189" height="64" viewBox="0 0 189 64" fill="none" xmlns="http://www.w3.org/2000/svg">
<mask id="mask0" mask-type="alpha" maskUnits="userSpaceOnUse" x="0" y="0" width="64" height="64">
<path d="M64 32C64 49.6731 49.6731 64 32 64C14.3269 64 0 49.6731 0 32C0 14.3269 14.3269 0 32 0C49.6731 0 64 14.3269 64 32Z" fill="white"/>
</mask>
<g mask="url(#mask0)">
<path d="M57.6 32C57.6 46.1385 46.1385 57.6 32 57.6C17.8615 57.6 6.4 46.1385 6.4 32C6.4 17.8615 17.8615 6.4 32 6.4C38.8 6.4 44.9808 9.05127 49.565 13.3765L52.7369 7.62742C47.1517 2.87078 39.9111 0 32 0C14.3269 0 0 14.3269 0 32C0 49.6731 14.3269 64 32 64C49.6731 64 64 49.6731 64 32C64 26.1968 62.4552 20.7544 59.7545 16.0616L55.9646 22.977C57.0217 25.7832 57.6 28.8241 57.6 32Z" fill="#08142F"/>
<path d="M17.0133 21.6259H11.0084C10.5203 21.6259 10.2118 22.1505 10.4491 22.5771L24.2999 47.4747C24.5439 47.9131 25.1746 47.9131 25.4185 47.4747L32.3288 35.053L39.235 47.4671C39.4798 47.9072 40.1135 47.9052 40.3555 47.4636L63.4807 5.26758C63.7144 4.84107 63.4058 4.32 62.9194 4.32H57.5102C57.044 4.32 56.6146 4.57347 56.3894 4.98167L39.7985 35.053L32.8881 22.6313C32.6442 22.1928 32.0135 22.1928 31.7696 22.6313L24.8592 35.053L17.5726 21.9548C17.4596 21.7518 17.2456 21.6259 17.0133 21.6259Z" fill="#08142F"/>
</g>
<path d="M72.048 23.536H75.768L78.144 33.664C78.256 34.112 78.384 34.88 78.528 35.968H78.648C78.792 34.88 78.92 34.112 79.032 33.664L81.456 23.536H85.656L88.056 33.664C88.152 34.08 88.28 34.848 88.44 35.968H88.56C88.688 34.944 88.816 34.176 88.944 33.664L91.392 23.536H94.608L90.24 40H86.472L83.76 29.512C83.616 28.984 83.48 28.208 83.352 27.184H83.256C83.096 28.288 82.96 29.064 82.848 29.512L80.184 40H76.416L72.048 23.536ZM99.8316 23.536H104.2L110.632 40H106.84L105.664 36.856H98.1756L96.9996 40H93.3996L99.8316 23.536ZM104.56 33.952L103 29.776C102.808 29.264 102.464 28.184 101.968 26.536H101.848C101.352 28.184 101.008 29.264 100.816 29.776L99.2556 33.952H104.56ZM114.757 33.352L108.469 23.536H112.429L116.533 30.256H116.653L120.709 23.536H124.477L118.237 33.352V40H114.757V33.352ZM132.397 40.288C131.133 40.288 129.973 40.096 128.917 39.712C127.877 39.312 127.045 38.728 126.421 37.96C125.797 37.192 125.485 36.264 125.485 35.176L125.509 34.648H129.037L129.013 35.032C129.013 35.736 129.325 36.296 129.949 36.712C130.573 37.128 131.445 37.336 132.565 37.336C133.749 37.336 134.605 37.184 135.133 36.88C135.661 36.56 135.925 36.136 135.925 35.608C135.925 35.144 135.749 34.76 135.397 34.456C135.061 34.136 134.629 33.888 134.101 33.712C133.589 33.52 132.877 33.296 131.965 33.04C130.669 32.672 129.621 32.32 128.821 31.984C128.021 31.648 127.333 31.152 126.757 30.496C126.181 29.824 125.893 28.944 125.893 27.856C125.893 26.352 126.501 25.208 127.717 24.424C128.933 23.64 130.549 23.248 132.565 23.248C134.469 23.248 136.021 23.656 137.221 24.472C138.437 25.272 139.045 26.48 139.045 28.096V28.384H135.589V28.168C135.589 27.56 135.309 27.08 134.749 26.728C134.205 26.376 133.461 26.2 132.517 26.2C131.509 26.2 130.733 26.336 130.189 26.608C129.661 26.88 129.397 27.256 129.397 27.736C129.397 28.104 129.557 28.424 129.877 28.696C130.197 28.952 130.597 29.168 131.077 29.344C131.557 29.504 132.237 29.704 133.117 29.944C134.429 30.296 135.501 30.648 136.333 31C137.181 31.336 137.909 31.84 138.517 32.512C139.125 33.184 139.429 34.064 139.429 35.152C139.429 36.912 138.797 38.208 137.533 39.04C136.285 39.872 134.573 40.288 132.397 40.288ZM142.092 23.536H145.476L151.812 32.488C152.004 32.76 152.324 33.296 152.772 34.096L152.892 34.024L152.82 32.632V23.536H156.204V40H152.82L146.46 30.976C146.156 30.544 145.844 30.016 145.524 29.392L145.404 29.464C145.452 30.152 145.476 30.632 145.476 30.904V40H142.092V23.536ZM159.413 23.536H172.349V26.488H162.893V30.112H171.293V33.064H162.893V37.048H172.493V40H159.413V23.536ZM179.405 26.536H174.317V23.536H187.973V26.536H182.885V40H179.405V26.536Z" fill="#1D2122"/>
</svg>
