<svg width="400" height="400" viewBox="0 0 400 400" fill="none" xmlns="http://www.w3.org/2000/svg">
<mask id="mask0" mask-type="alpha" maskUnits="userSpaceOnUse" x="0" y="0" width="400" height="400">
<path d="M400 200C400 310.457 310.457 400 200 400C89.5431 400 0 310.457 0 200C0 89.5431 89.5431 0 200 0C310.457 0 400 89.5431 400 200Z" fill="white"/>
</mask>
<g mask="url(#mask0)">
<path d="M360 200C360 288.366 288.366 360 200 360C111.634 360 40 288.366 40 200C40 111.634 111.634 40 200 40C242.5 40 281.13 56.5704 309.781 83.6031L329.605 47.6713C294.698 17.9424 249.444 0 200 0C89.5431 0 0 89.5431 0 200C0 310.457 89.5431 400 200 400C310.457 400 400 310.457 400 200C400 163.73 390.345 129.715 373.466 100.385L349.779 143.606C356.385 161.145 360 180.151 360 200Z" fill="white"/>
<path d="M106.333 135.162H68.8026C65.7516 135.162 63.8238 138.441 65.3071 141.107L151.875 296.717C153.399 299.457 157.341 299.457 158.866 296.717L202.055 219.081L245.219 296.669C246.749 299.42 250.709 299.407 252.222 296.647L396.754 32.9224C398.215 30.2567 396.286 27 393.247 27H359.439C356.525 27 353.841 28.5842 352.434 31.1354L248.74 219.081L205.551 141.446C204.026 138.705 200.084 138.705 198.56 141.446L155.37 219.081L109.829 137.218C109.123 135.949 107.785 135.162 106.333 135.162Z" fill="white"/>
</g>
</svg>
