<svg width="1920" height="223" viewBox="0 0 1920 223" fill="none" xmlns="http://www.w3.org/2000/svg">
<path d="M16.0208 176V80.5586H-1.64941V54.2222H16.0208V44.543C16.0208 30.6619 20.11 19.8948 28.2886 12.2415C36.4671 4.58813 47.9471 0.761475 62.7285 0.761475C68.1309 0.761475 74.0584 1.54932 80.5112 3.125L80.6238 31.0371C78.2978 30.3618 75.1839 30.0242 71.2822 30.0242C59.8022 30.0242 54.0623 34.9763 54.0623 44.8806V54.2222H77.8101V80.5586H54.0623V176H16.0208ZM163.685 162.832C155.656 173.111 144.814 178.251 131.158 178.251C117.802 178.251 107.673 174.387 100.77 166.658C93.9421 158.855 90.5281 147.675 90.5281 133.119V54.2222H128.457V133.344C128.457 143.774 133.522 148.988 143.651 148.988C152.355 148.988 158.545 145.874 162.222 139.647V54.2222H200.376V176H164.81L163.685 162.832ZM265.429 23.9465V54.2222H285.463V80.5586H265.429V136.27C265.429 140.847 266.254 144.036 267.905 145.837C269.556 147.638 272.82 148.538 277.697 148.538C281.448 148.538 284.6 148.313 287.151 147.863V174.987C280.323 177.163 273.195 178.251 265.767 178.251C252.711 178.251 243.069 175.175 236.842 169.022C230.614 162.869 227.5 153.528 227.5 140.997V80.5586H211.968V54.2222H227.5V23.9465H265.429ZM373.026 162.832C364.997 173.111 354.155 178.251 340.499 178.251C327.143 178.251 317.014 174.387 310.111 166.658C303.283 158.855 299.869 147.675 299.869 133.119V54.2222H337.798V133.344C337.798 143.774 342.863 148.988 352.992 148.988C361.696 148.988 367.886 145.874 371.562 139.647V54.2222H409.717V176H374.151L373.026 162.832ZM504.258 88.5496L491.765 87.6492C479.834 87.6492 472.181 91.4008 468.805 98.9041V176H430.876V54.2222H466.441L467.679 69.8665C474.057 57.9363 482.948 51.9712 494.353 51.9712C498.405 51.9712 501.932 52.4214 504.933 53.3218L504.258 88.5496ZM574.601 178.251C555.917 178.251 540.798 172.699 529.243 161.594C517.688 150.414 511.911 135.895 511.911 118.037V114.886C511.911 102.431 514.199 91.4383 518.776 81.9092C523.428 72.38 530.181 65.0269 539.035 59.8496C547.889 54.5973 558.394 51.9712 570.549 51.9712C587.656 51.9712 601.162 57.2985 611.066 67.9531C620.971 78.5327 625.923 93.3141 625.923 112.297V127.041H550.515C551.866 133.869 554.83 139.234 559.406 143.136C563.983 147.037 569.911 148.988 577.189 148.988C589.194 148.988 598.573 144.786 605.326 136.383L622.659 156.867C617.932 163.395 611.216 168.609 602.513 172.511C593.884 176.338 584.58 178.251 574.601 178.251ZM570.324 81.2339C559.219 81.2339 552.616 88.5871 550.515 103.293H588.782V100.367C588.932 94.2896 587.394 89.6 584.167 86.2986C580.941 82.9221 576.326 81.2339 570.324 81.2339ZM750.177 148.988C755.504 148.988 759.631 147.563 762.557 144.711C765.483 141.785 766.909 137.733 766.834 132.556H802.399C802.399 145.912 797.597 156.867 787.993 165.42C778.464 173.974 766.159 178.251 751.077 178.251C733.369 178.251 719.413 172.699 709.209 161.594C699.005 150.489 693.902 135.107 693.902 115.449V113.873C693.902 101.568 696.153 90.7255 700.655 81.3464C705.232 71.8923 711.798 64.6517 720.351 59.6245C728.905 54.5223 739.034 51.9712 750.74 51.9712C766.571 51.9712 779.139 56.3606 788.443 65.1394C797.747 73.9182 802.399 85.8109 802.399 100.817H766.834C766.834 94.5146 765.296 89.675 762.219 86.2986C759.143 82.9221 755.016 81.2339 749.839 81.2339C740.01 81.2339 734.27 87.4991 732.619 100.03C732.094 104.006 731.831 109.484 731.831 116.462C731.831 128.692 733.294 137.171 736.221 141.898C739.147 146.625 743.799 148.988 750.177 148.988ZM813.654 113.986C813.654 101.83 816.018 91.0256 820.745 81.5715C825.472 72.0424 832.262 64.7267 841.116 59.6245C849.97 54.5223 860.362 51.9712 872.292 51.9712C890.525 51.9712 904.894 57.6361 915.398 68.9661C925.903 80.2209 931.155 95.5651 931.155 114.999V116.349C931.155 135.332 925.865 150.414 915.286 161.594C904.781 172.699 890.525 178.251 872.517 178.251C855.185 178.251 841.266 173.074 830.762 162.719C820.257 152.29 814.592 138.184 813.767 120.401L813.654 113.986ZM851.583 116.349C851.583 127.604 853.347 135.858 856.873 141.11C860.4 146.362 865.614 148.988 872.517 148.988C886.023 148.988 892.926 138.596 893.226 117.812V113.986C893.226 92.1511 886.248 81.2339 872.292 81.2339C859.612 81.2339 852.746 90.6505 851.696 109.484L851.583 116.349ZM943.085 113.986C943.085 101.83 945.449 91.0256 950.176 81.5715C954.903 72.0424 961.694 64.7267 970.547 59.6245C979.401 54.5223 989.793 51.9712 1001.72 51.9712C1019.96 51.9712 1034.33 57.6361 1044.83 68.9661C1055.33 80.2209 1060.59 95.5651 1060.59 114.999V116.349C1060.59 135.332 1055.3 150.414 1044.72 161.594C1034.21 172.699 1019.96 178.251 1001.95 178.251C984.616 178.251 970.697 173.074 960.193 162.719C949.688 152.29 944.023 138.184 943.198 120.401L943.085 113.986ZM981.014 116.349C981.014 127.604 982.778 135.858 986.304 141.11C989.831 146.362 995.045 148.988 1001.95 148.988C1015.45 148.988 1022.36 138.596 1022.66 117.812V113.986C1022.66 92.1511 1015.68 81.2339 1001.72 81.2339C989.043 81.2339 982.177 90.6505 981.127 109.484L981.014 116.349ZM1190.36 116.011C1190.36 134.92 1186.08 150.039 1177.52 161.369C1169.05 172.624 1157.57 178.251 1143.08 178.251C1131.9 178.251 1122.71 174.162 1115.51 165.983V222.82H1077.58V54.2222H1113.03L1114.16 65.4771C1121.44 56.4731 1131 51.9712 1142.86 51.9712C1157.87 51.9712 1169.53 57.5236 1177.86 68.6284C1186.19 79.6582 1190.36 94.8523 1190.36 114.211V116.011ZM1152.43 113.648C1152.43 92.0386 1146.12 81.2339 1133.52 81.2339C1124.51 81.2339 1118.51 84.4603 1115.51 90.9131V138.859C1118.81 145.612 1124.89 148.988 1133.74 148.988C1145.82 148.988 1152.05 138.559 1152.43 117.7V113.648ZM1266.1 178.251C1247.42 178.251 1232.3 172.699 1220.74 161.594C1209.19 150.414 1203.41 135.895 1203.41 118.037V114.886C1203.41 102.431 1205.7 91.4383 1210.28 81.9092C1214.93 72.38 1221.68 65.0269 1230.54 59.8496C1239.39 54.5973 1249.89 51.9712 1262.05 51.9712C1279.16 51.9712 1292.66 57.2985 1302.57 67.9531C1312.47 78.5327 1317.42 93.3141 1317.42 112.297V127.041H1242.02C1243.37 133.869 1246.33 139.234 1250.91 143.136C1255.48 147.037 1261.41 148.988 1268.69 148.988C1280.69 148.988 1290.07 144.786 1296.83 136.383L1314.16 156.867C1309.43 163.395 1302.72 168.609 1294.01 172.511C1285.38 176.338 1276.08 178.251 1266.1 178.251ZM1261.82 81.2339C1250.72 81.2339 1244.12 88.5871 1242.02 103.293H1280.28V100.367C1280.43 94.2896 1278.89 89.6 1275.67 86.2986C1272.44 82.9221 1267.83 81.2339 1261.82 81.2339ZM1406.45 88.5496L1393.96 87.6492C1382.03 87.6492 1374.37 91.4008 1371 98.9041V176H1333.07V54.2222H1368.63L1369.87 69.8665C1376.25 57.9363 1385.14 51.9712 1396.54 51.9712C1400.6 51.9712 1404.12 52.4214 1407.12 53.3218L1406.45 88.5496ZM1485.35 176C1484 173.524 1482.79 169.885 1481.74 165.083C1474.77 173.862 1465.01 178.251 1452.48 178.251C1441 178.251 1431.25 174.799 1423.22 167.896C1415.19 160.918 1411.18 152.177 1411.18 141.673C1411.18 128.467 1416.05 118.488 1425.81 111.735C1435.56 104.982 1449.74 101.605 1468.35 101.605H1480.06V95.1899C1480.06 84.0101 1475.22 78.4202 1465.54 78.4202C1456.53 78.4202 1452.03 82.8471 1452.03 91.7009H1414.1C1414.1 79.9208 1419.09 70.3542 1429.07 63.001C1439.13 55.6478 1451.92 51.9712 1467.45 51.9712C1482.98 51.9712 1495.25 55.7603 1504.25 63.3386C1513.26 70.9169 1517.87 81.3089 1518.1 94.5146V148.426C1518.25 159.605 1519.97 168.159 1523.27 174.087V176H1485.35ZM1461.6 151.239C1466.32 151.239 1470.23 150.226 1473.3 148.2C1476.45 146.175 1478.71 143.886 1480.06 141.335V121.864H1469.03C1455.82 121.864 1449.22 127.792 1449.22 139.647C1449.22 143.098 1450.38 145.912 1452.71 148.088C1455.03 150.189 1458 151.239 1461.6 151.239ZM1583.38 23.9465V54.2222H1603.41V80.5586H1583.38V136.27C1583.38 140.847 1584.2 144.036 1585.85 145.837C1587.5 147.638 1590.77 148.538 1595.64 148.538C1599.4 148.538 1602.55 148.313 1605.1 147.863V174.987C1598.27 177.163 1591.14 178.251 1583.71 178.251C1570.66 178.251 1561.02 175.175 1554.79 169.022C1548.56 162.869 1545.45 153.528 1545.45 140.997V80.5586H1529.92V54.2222H1545.45V23.9465H1583.38ZM1658.45 176H1620.4V54.2222H1658.45V176ZM1618.15 22.821C1618.15 17.4187 1620.1 12.9918 1624.01 9.54028C1627.91 6.08879 1632.97 4.36304 1639.2 4.36304C1645.43 4.36304 1650.49 6.08879 1654.39 9.54028C1658.3 12.9918 1660.25 17.4187 1660.25 22.821C1660.25 28.2234 1658.3 32.6503 1654.39 36.1018C1650.49 39.5533 1645.43 41.2791 1639.2 41.2791C1632.97 41.2791 1627.91 39.5533 1624.01 36.1018C1620.1 32.6503 1618.15 28.2234 1618.15 22.821ZM1677.13 113.986C1677.13 101.83 1679.49 91.0256 1684.22 81.5715C1688.95 72.0424 1695.74 64.7267 1704.59 59.6245C1713.44 54.5223 1723.84 51.9712 1735.77 51.9712C1754 51.9712 1768.37 57.6361 1778.87 68.9661C1789.38 80.2209 1794.63 95.5651 1794.63 114.999V116.349C1794.63 135.332 1789.34 150.414 1778.76 161.594C1768.26 172.699 1754 178.251 1735.99 178.251C1718.66 178.251 1704.74 173.074 1694.24 162.719C1683.73 152.29 1678.07 138.184 1677.24 120.401L1677.13 113.986ZM1715.06 116.349C1715.06 127.604 1716.82 135.858 1720.35 141.11C1723.87 146.362 1729.09 148.988 1735.99 148.988C1749.5 148.988 1756.4 138.596 1756.7 117.812V113.986C1756.7 92.1511 1749.72 81.2339 1735.77 81.2339C1723.09 81.2339 1716.22 90.6505 1715.17 109.484L1715.06 116.349ZM1846.18 54.2222L1847.42 68.5159C1855.82 57.4861 1867.41 51.9712 1882.19 51.9712C1894.87 51.9712 1904.33 55.7603 1910.56 63.3386C1916.86 70.9169 1920.12 82.3219 1920.35 97.5535V176H1882.31V99.1292C1882.31 92.9765 1881.07 88.4745 1878.59 85.6233C1876.12 82.697 1871.61 81.2339 1865.09 81.2339C1857.66 81.2339 1852.14 84.1602 1848.54 90.0127V176H1810.61V54.2222H1846.18Z" fill="#F8F8F8"/>
</svg>
